{"glyphs":{"0":{"ha":914,"x_min":60,"x_max":854,"o":"m 454 -13 q 289 19 361 -13 q 165 115 216 51 q 60 499 60 246 q 165 848 60 724 q 466 972 271 972 q 755 846 653 972 q 854 490 854 722 q 747 113 854 244 q 454 -13 643 -13 m 459 34 q 775 281 700 34 q 802 488 802 367 q 777 692 802 608 q 707 827 751 775 q 465 928 621 928 l 457 928 l 457 34 l 459 34 z "},"1":{"ha":669,"x_min":-1,"x_max":536,"o":"m 190 822 l 146 809 q 83 786 104 797 q 28 766 45 766 q 1 791 -1 767 q 46 827 2 817 q 96 841 71 833 l 536 973 l 536 0 l 189 0 l 190 822 z "},"2":{"ha":846,"x_min":26,"x_max":753,"o":"m 753 34 q 685 0 753 0 l 26 0 q 237 410 43 136 q 478 745 462 717 q 500 785 495 772 q 510 827 510 806 q 501 866 510 848 q 473 898 492 885 q 359 926 433 926 q 239 905 290 926 q 128 827 153 867 q 86 798 110 798 q 62 827 62 798 q 127 906 62 863 q 372 972 231 972 q 650 898 545 972 q 749 718 749 827 q 732 613 749 654 q 699 541 715 571 q 659 475 682 511 l 529 280 q 398 49 435 142 l 597 49 q 667 55 635 49 q 723 62 707 62 q 746 53 738 62 q 753 34 753 44 z "},"3":{"ha":880,"x_min":31,"x_max":789,"o":"m 382 559 q 414 560 399 559 l 414 921 l 399 922 q 385 923 391 923 q 356 923 378 923 q 301 919 334 923 q 242 906 269 914 q 168 866 189 891 q 129 841 147 842 q 91 865 92 838 q 205 945 88 905 q 387 972 287 972 q 554 954 487 972 q 666 906 622 937 q 753 743 753 846 q 651 574 753 642 q 568 534 616 550 q 773 361 724 484 q 789 266 789 321 q 761 158 789 211 q 680 67 732 105 q 376 -13 568 -13 q 92 79 212 -13 q 35 148 50 111 q 32 167 31 159 q 58 193 34 195 q 96 163 82 190 q 133 115 109 136 q 190 76 157 94 q 351 37 264 37 l 414 37 l 414 506 q 369 509 389 509 l 343 509 l 273 505 q 226 531 226 505 q 271 564 226 564 l 382 559 m 494 905 q 463 913 480 909 l 494 905 z "},"4":{"ha":1002,"x_min":23,"x_max":941,"o":"m 107 189 l 79 189 l 70 189 q 38 199 53 189 q 23 226 23 209 q 26 254 23 243 q 36 276 29 264 q 53 302 43 288 l 499 959 l 779 959 l 779 240 q 878 244 863 240 q 912 250 901 250 q 932 242 924 250 q 941 222 941 235 q 899 193 941 195 q 827 189 873 189 l 779 189 l 779 0 l 432 0 l 432 189 q 107 189 270 189 m 432 240 l 432 765 l 96 262 q 91 244 87 248 q 117 240 96 240 l 432 240 z "},"5":{"ha":854,"x_min":61,"x_max":790,"o":"m 184 625 q 393 671 290 671 q 569 643 496 671 q 690 568 641 615 q 790 331 790 471 q 682 90 790 186 q 384 -13 569 -13 q 130 65 254 -13 q 66 132 85 94 q 61 150 61 142 q 85 183 61 183 q 126 155 109 183 q 167 106 142 127 q 225 69 191 85 q 390 35 298 35 l 410 35 q 428 36 419 35 l 428 620 q 369 622 406 622 q 279 608 332 622 q 199 578 227 593 q 149 559 162 559 q 130 568 136 559 q 125 586 123 576 l 161 895 q 162 906 162 901 l 162 918 q 168 958 162 953 q 195 966 176 966 l 295 959 l 429 959 q 666 972 595 959 q 682 973 671 973 q 700 964 692 973 q 708 944 708 954 q 632 911 708 912 q 595 911 612 911 l 217 911 l 184 625 z "},"6":{"ha":947,"x_min":92,"x_max":884,"o":"m 744 852 q 552 926 685 926 q 454 917 495 926 l 454 37 q 494 35 473 35 q 745 125 652 35 q 831 336 831 209 q 772 511 831 447 q 613 576 713 576 q 563 570 578 576 q 502 562 521 554 q 491 578 493 565 q 496 600 488 592 q 517 612 503 608 q 610 623 550 623 q 720 606 671 623 q 805 553 768 589 q 884 329 884 475 q 767 76 884 172 q 500 -13 658 -13 q 214 99 323 -13 q 92 458 92 224 q 225 838 92 696 q 544 972 351 972 q 746 923 660 972 q 810 847 810 886 q 784 825 810 825 q 760 834 769 825 l 744 852 z "},"7":{"ha":830,"x_min":41,"x_max":789,"o":"m 608 119 q 610 0 608 50 l 227 0 q 224 99 224 36 q 231 239 224 161 q 250 394 238 316 q 279 548 262 472 q 316 692 296 625 q 401 911 357 831 l 382 911 l 206 911 l 158 911 q 122 910 136 911 q 117 871 121 886 q 113 846 114 856 q 105 799 108 810 q 69 777 97 770 q 49 791 56 780 q 44 814 41 803 q 50 837 46 825 q 58 866 54 850 q 70 933 70 907 q 102 959 70 959 l 789 959 q 669 608 722 833 q 608 119 608 353 z "},"8":{"ha":924,"x_min":70,"x_max":872,"o":"m 176 56 q 98 136 127 89 q 70 232 70 183 q 81 314 70 281 q 111 372 92 347 q 202 431 149 423 q 223 425 216 433 q 231 407 231 417 q 223 387 231 396 q 196 374 214 377 q 162 356 178 370 q 138 322 147 341 q 123 241 123 288 q 146 155 123 194 q 212 89 170 116 q 440 33 299 33 q 568 64 510 33 q 628 136 628 94 q 597 208 628 172 q 430 330 549 259 q 249 447 310 401 q 153 534 188 492 q 92 703 92 608 q 204 897 93 821 q 490 972 314 972 q 694 927 602 972 q 791 838 763 895 q 806 769 806 810 q 796 697 806 728 q 767 646 785 666 q 674 595 734 609 q 657 593 666 593 q 640 600 648 593 q 633 617 633 608 q 641 637 633 627 q 669 648 650 647 q 704 656 688 649 q 731 678 720 664 q 757 751 757 709 q 744 819 757 794 q 709 863 731 844 q 660 894 688 881 q 604 915 633 907 q 494 930 550 930 q 347 888 391 930 q 331 849 331 872 q 341 801 331 825 q 377 750 352 777 q 538 632 431 692 q 707 528 644 572 q 807 445 770 484 q 872 286 872 375 q 791 100 871 174 q 432 -13 669 -13 q 176 56 278 -13 z "},"9":{"ha":925,"x_min":62,"x_max":854,"o":"m 493 920 q 453 922 474 922 q 198 831 289 922 q 117 620 117 750 q 186 441 117 505 q 361 377 250 381 q 388 379 374 376 l 408 383 q 456 360 454 393 q 390 329 458 329 q 375 329 382 329 q 337 330 368 329 q 253 347 307 332 q 157 397 200 362 q 62 631 62 475 q 180 883 62 787 q 448 972 290 972 q 734 860 624 972 q 854 502 854 736 q 722 121 854 262 q 404 -13 597 -13 q 201 37 286 -13 q 138 113 138 73 q 164 135 138 135 q 187 125 178 135 l 203 107 q 408 33 264 33 q 493 43 452 33 l 493 920 z "},"\u0001":{"ha":0,"x_min":0,"x_max":0,"o":""},"\u0002":{"ha":0,"x_min":0,"x_max":0,"o":""},"\u0003":{"ha":0,"x_min":0,"x_max":0,"o":""},"\u0004":{"ha":0,"x_min":0,"x_max":0,"o":""},"\u0005":{"ha":0,"x_min":0,"x_max":0,"o":""},"\u0006":{"ha":0,"x_min":0,"x_max":0,"o":""},"\u0007":{"ha":0,"x_min":0,"x_max":0,"o":""},"\b":{"ha":0,"x_min":0,"x_max":0,"o":""},"\t":{"ha":0,"x_min":0,"x_max":0,"o":""},"\u0010":{"ha":0,"x_min":0,"x_max":0,"o":""},"\u0011":{"ha":0,"x_min":0,"x_max":0,"o":""},"\u0012":{"ha":0,"x_min":0,"x_max":0,"o":""},"\u0013":{"ha":0,"x_min":0,"x_max":0,"o":""},"\u0014":{"ha":0,"x_min":0,"x_max":0,"o":""},"\u0015":{"ha":0,"x_min":0,"x_max":0,"o":""},"\u0016":{"ha":0,"x_min":0,"x_max":0,"o":""},"\u0017":{"ha":0,"x_min":0,"x_max":0,"o":""},"\u0018":{"ha":0,"x_min":0,"x_max":0,"o":""},"\u0019":{"ha":0,"x_min":0,"x_max":0,"o":""}," ":{"ha":309,"x_min":0,"x_max":0,"o":""},"!":{"ha":564,"x_min":66,"x_max":481,"o":"m 271 307 q 241 344 251 307 q 222 414 232 381 q 201 479 213 447 q 145 601 174 548 q 101 681 115 653 q 79 730 87 709 q 66 801 66 765 q 81 868 66 837 q 123 922 96 899 q 273 972 182 972 q 427 924 370 972 q 481 802 481 879 q 472 738 481 762 q 449 686 463 713 l 411 616 q 326 420 351 509 q 309 355 317 388 q 271 307 297 307 m 133 103 q 170 193 133 161 q 273 226 208 226 q 376 190 338 226 q 410 102 410 157 q 372 22 410 54 q 269 -13 332 -13 q 142 56 172 -13 q 133 103 133 77 z "},"\"":{"ha":601,"x_min":31,"x_max":570,"o":"m 453 561 q 412 596 418 561 q 376 760 398 693 l 345 852 q 336 896 336 878 q 343 929 336 913 q 364 956 350 945 q 452 982 396 982 q 539 959 509 982 q 570 897 570 935 q 562 856 570 881 l 541 795 q 490 598 505 689 q 464 563 485 569 q 453 561 458 561 m 148 561 q 107 596 113 561 q 71 760 93 693 l 39 852 q 31 896 31 878 q 38 929 31 913 q 59 956 45 945 q 147 982 91 982 q 234 959 203 982 q 264 897 264 935 q 256 856 264 881 l 235 795 q 185 598 199 689 q 159 563 180 569 q 148 561 153 561 z "},"#":{"ha":635,"x_min":31,"x_max":604,"o":"m 431 427 l 524 432 q 549 424 539 432 q 559 403 559 416 q 549 381 559 390 q 527 373 538 373 q 486 375 500 373 l 422 377 l 370 100 q 325 -9 350 5 q 306 -13 317 -13 q 288 -3 295 -13 q 281 18 281 6 q 289 54 281 34 l 301 84 q 332 208 316 120 l 363 377 l 223 377 l 171 100 q 127 -9 151 5 q 108 -13 119 -13 q 90 -3 97 -13 q 83 18 83 6 q 91 54 83 36 q 103 84 99 73 q 113 113 108 96 q 135 208 125 158 l 165 377 l 111 375 q 75 373 97 373 q 42 381 53 373 q 31 402 31 390 q 62 429 31 429 l 79 429 l 117 427 l 175 427 l 201 568 l 115 564 q 87 573 98 564 q 76 594 76 582 q 106 622 76 622 l 174 618 l 210 618 l 256 867 q 294 968 274 959 q 311 972 301 972 q 339 944 339 972 q 334 920 339 935 q 326 896 328 905 q 320 876 323 887 l 315 855 q 310 835 312 844 l 269 618 l 408 618 l 454 867 q 476 949 467 934 q 509 972 489 972 q 538 944 538 972 q 532 920 538 935 q 524 896 527 905 q 519 876 522 887 l 513 855 q 509 835 511 844 l 467 618 q 526 621 509 618 q 568 624 554 624 q 604 594 604 624 q 593 573 604 582 q 572 564 583 564 q 534 566 545 564 q 514 567 524 567 l 476 568 q 458 569 466 569 l 431 427 m 372 427 l 399 569 l 259 569 l 233 427 l 372 427 z "},"$":{"ha":779,"x_min":71,"x_max":729,"o":"m 276 0 q 125 58 198 18 q 83 112 83 81 q 91 133 83 123 q 111 142 99 142 q 153 119 126 142 q 287 50 210 69 l 347 328 l 228 442 q 79 665 100 566 q 71 743 71 701 q 91 828 71 786 q 152 902 111 869 q 394 972 239 972 q 482 966 442 972 q 491 1007 487 990 q 496 1038 494 1025 q 527 1073 503 1073 q 545 1066 536 1073 q 553 1047 553 1059 q 543 989 553 1031 l 532 956 q 544 952 538 954 q 569 943 550 950 q 608 925 588 936 q 639 905 628 915 q 658 873 658 890 q 631 842 658 842 q 600 858 619 842 q 520 903 568 886 l 469 659 q 720 355 693 473 q 729 266 729 318 q 705 159 729 213 q 637 66 682 104 q 382 -13 543 -13 q 326 -9 355 -13 q 319 -45 322 -28 l 313 -79 q 277 -127 307 -127 q 257 -119 266 -127 q 248 -102 248 -111 q 256 -68 248 -90 q 276 0 268 -38 m 472 916 q 391 922 435 922 q 321 903 347 922 q 296 856 296 884 q 425 694 296 800 l 472 916 m 337 41 q 391 37 371 37 q 489 57 458 37 q 521 99 521 77 q 516 135 521 121 q 498 169 512 149 q 458 216 485 188 l 389 286 l 337 41 z "},"%":{"ha":1080,"x_min":85,"x_max":1006,"o":"m 233 -13 q 207 16 207 -13 q 219 47 207 32 q 243 76 232 63 q 305 162 266 100 l 753 862 q 788 925 777 900 q 806 958 800 949 q 827 967 813 967 q 851 960 842 967 q 861 943 861 952 q 858 927 861 934 q 849 911 854 920 l 835 891 q 816 863 827 880 l 304 56 q 259 -3 273 7 q 233 -13 245 -13 m 311 534 q 222 550 264 534 q 150 593 180 565 q 85 748 85 654 q 151 895 85 837 q 313 954 217 954 q 468 897 406 954 q 533 745 533 838 q 468 594 533 654 q 311 534 405 536 m 310 581 q 431 622 383 581 q 484 743 484 667 q 432 862 484 815 q 310 907 382 907 l 305 907 q 299 907 302 907 l 299 581 l 310 581 m 560 213 q 577 297 560 259 q 625 362 595 334 q 787 420 690 420 q 941 363 879 420 q 1006 211 1006 304 q 941 60 1006 121 q 786 1 878 1 q 624 60 688 -1 q 560 213 560 119 m 784 47 q 905 89 856 47 q 958 210 958 133 q 906 328 958 282 q 784 374 856 374 q 779 374 781 374 q 773 373 776 374 l 773 47 l 784 47 z "},"&":{"ha":964,"x_min":98,"x_max":902,"o":"m 902 534 q 855 508 902 508 q 827 509 841 508 l 798 511 q 726 514 751 514 q 830 355 805 469 q 838 275 838 321 q 811 175 838 229 q 736 79 784 121 q 469 -13 630 -13 q 201 67 300 -13 q 98 293 98 150 q 153 446 98 376 q 302 545 209 515 q 162 686 197 589 q 151 757 151 716 q 175 838 151 798 q 245 909 199 879 q 503 972 341 972 q 581 967 543 972 q 650 955 620 963 q 699 936 680 946 q 736 891 736 916 q 707 866 736 866 q 681 876 692 866 q 651 897 669 886 q 539 924 609 924 q 448 920 469 924 l 448 41 q 587 50 521 27 q 694 106 653 73 q 785 280 785 179 q 732 450 785 385 q 598 513 680 513 l 583 513 q 532 545 532 513 q 568 567 532 567 l 635 562 q 827 566 779 562 q 888 560 875 570 q 902 534 902 549 z "},"'":{"ha":296,"x_min":31,"x_max":264,"o":"m 148 561 q 107 596 113 561 q 71 760 93 693 l 39 852 q 31 896 31 878 q 38 929 31 913 q 59 956 45 945 q 147 982 91 982 q 234 959 203 982 q 264 897 264 935 q 256 856 264 881 l 235 795 q 185 598 199 689 q 159 563 180 569 q 148 561 153 561 z "},"(":{"ha":637,"x_min":75,"x_max":575,"o":"m 575 1042 q 520 1014 575 1011 q 406 986 469 1017 l 406 -51 q 530 -83 467 -80 q 575 -110 575 -85 q 529 -134 575 -134 q 430 -115 483 -134 q 326 -60 376 -96 q 230 29 275 -24 q 150 149 184 81 q 75 473 75 294 q 210 891 75 715 q 411 1046 295 1003 q 511 1067 469 1067 q 575 1042 575 1067 z "},")":{"ha":637,"x_min":62,"x_max":562,"o":"m 62 -110 q 62 -98 62 -110 q 116 -82 62 -85 q 231 -51 170 -79 l 231 986 q 127 1015 167 1017 q 74 1019 87 1013 q 62 1039 62 1026 q 115 1067 62 1067 q 226 1045 168 1067 q 335 985 284 1024 q 427 891 385 946 q 499 771 469 837 q 562 473 562 634 q 487 149 562 294 q 311 -60 420 18 q 105 -134 208 -134 q 62 -110 62 -134 z "},"*":{"ha":515,"x_min":29,"x_max":486,"o":"m 396 602 q 370 577 396 577 q 340 592 350 577 q 323 622 331 608 l 258 750 l 213 675 l 191 636 q 177 607 184 622 q 149 579 165 579 q 117 606 117 579 q 146 665 117 624 l 220 771 q 146 768 178 769 q 100 766 113 768 q 63 765 79 765 q 38 773 47 765 q 29 795 29 782 q 40 816 29 808 q 64 823 52 823 q 100 822 84 823 q 151 818 121 819 l 222 814 l 151 928 q 130 974 130 958 q 159 1002 130 1002 q 191 971 176 1002 l 258 838 l 319 957 q 341 994 332 984 q 361 1003 351 1003 q 387 979 387 1003 q 360 918 387 962 l 296 815 l 414 821 q 449 823 437 823 q 486 793 486 823 q 449 764 486 764 q 422 766 437 764 q 295 772 384 769 q 375 645 372 648 q 384 633 378 641 q 396 602 396 616 z "},"+":{"ha":688,"x_min":66,"x_max":606,"o":"m 360 248 l 366 141 q 358 121 366 129 q 336 113 350 113 q 314 122 323 113 q 306 149 304 132 l 309 250 l 309 357 q 199 357 241 357 q 145 357 157 357 q 99 353 114 355 q 75 361 84 352 q 66 384 66 371 q 74 405 66 397 q 92 413 81 413 q 136 411 118 413 l 160 409 q 198 408 175 408 l 309 408 l 309 515 l 306 617 q 314 643 304 633 q 336 652 323 652 q 358 644 350 652 q 366 624 366 636 l 360 519 l 360 408 l 471 408 q 505 408 494 408 l 524 410 q 571 413 553 413 q 606 384 606 413 q 595 361 606 371 q 574 353 585 352 q 505 357 528 357 l 360 357 l 360 248 z "},",":{"ha":463,"x_min":66,"x_max":380,"o":"m 302 10 q 223 -13 267 -13 q 152 -1 179 -13 q 105 30 124 11 q 66 123 66 71 q 107 218 66 179 q 214 258 150 258 q 336 212 291 258 q 380 95 380 167 q 309 -99 380 -14 q 252 -152 273 -144 q 220 -160 231 -160 q 188 -130 188 -160 q 195 -116 188 -119 l 220 -105 q 286 -44 255 -90 q 302 10 300 -23 z "},"-":{"ha":500,"x_min":66,"x_max":418,"o":"m 178 414 l 103 410 q 76 418 87 410 q 66 439 66 427 q 103 469 66 469 q 200 463 103 469 l 271 463 l 379 469 q 418 440 418 469 q 376 410 418 410 q 355 411 365 410 l 334 412 q 279 414 315 414 q 178 414 229 414 z "},".":{"ha":465,"x_min":66,"x_max":382,"o":"m 76 74 q 66 131 66 101 q 78 185 66 161 q 111 229 90 210 q 227 271 157 271 q 342 224 298 271 q 382 123 382 181 q 336 27 382 66 q 222 -13 289 -13 q 76 74 110 -13 z "},"/":{"ha":461,"x_min":56,"x_max":406,"o":"m 83 -13 q 56 20 56 -13 q 73 63 56 38 q 106 154 88 93 l 315 867 q 363 968 342 959 q 380 972 371 972 q 406 947 406 972 q 399 919 406 932 q 388 897 391 905 q 380 879 384 888 l 373 859 q 366 840 369 849 l 148 100 q 117 11 126 26 q 83 -13 102 -13 z "},":":{"ha":465,"x_min":66,"x_max":382,"o":"m 220 393 q 155 403 184 393 q 106 433 126 414 q 66 539 66 473 q 111 635 66 595 q 227 676 157 676 q 342 629 298 676 q 382 529 382 587 q 336 433 382 471 q 220 393 289 393 m 76 74 q 66 131 66 101 q 78 185 66 161 q 111 229 90 210 q 227 271 157 271 q 342 224 298 271 q 382 123 382 181 q 336 27 382 66 q 222 -13 289 -13 q 76 74 110 -13 z "},";":{"ha":465,"x_min":66,"x_max":382,"o":"m 220 393 q 155 403 184 393 q 106 433 126 414 q 66 539 66 473 q 111 635 66 595 q 227 676 157 676 q 342 629 298 676 q 382 529 382 587 q 336 433 382 471 q 220 393 289 393 m 303 10 q 223 -13 267 -13 q 152 -1 180 -13 q 106 30 125 11 q 66 123 66 71 q 108 218 66 179 q 215 258 151 258 q 338 212 292 258 q 381 95 381 167 q 311 -99 381 -14 q 253 -152 273 -144 q 220 -160 232 -160 q 189 -130 189 -160 q 197 -116 189 -119 l 221 -105 q 287 -44 256 -90 q 303 10 300 -23 z "},"<":{"ha":634,"x_min":20,"x_max":555,"o":"m 52 322 q 20 363 20 347 q 52 415 20 394 l 424 674 q 479 714 460 699 q 522 736 505 736 q 555 713 555 736 q 526 677 555 696 q 457 634 463 637 l 81 368 q 436 111 420 121 l 512 60 q 543 38 532 48 q 555 15 555 28 q 546 -5 555 2 q 528 -13 538 -13 q 489 3 509 -13 q 442 39 469 19 l 52 322 z "},"=":{"ha":688,"x_min":66,"x_max":606,"o":"m 205 491 l 103 487 q 76 495 87 487 q 66 517 66 504 q 103 546 66 546 q 122 545 112 546 l 143 544 q 200 541 177 541 l 458 541 q 518 543 499 541 q 566 546 550 546 q 606 517 606 546 q 594 495 606 504 q 564 487 583 487 l 467 491 l 205 491 m 178 225 l 103 221 q 76 230 87 221 q 66 250 66 238 q 103 281 66 281 l 200 275 l 458 275 l 566 281 q 606 250 606 281 q 594 230 606 238 q 564 221 583 221 l 496 225 q 178 225 336 225 z "},">":{"ha":634,"x_min":69,"x_max":604,"o":"m 77 -5 q 69 15 69 2 q 81 38 69 28 q 106 57 92 48 q 218 132 199 117 l 542 368 l 167 634 q 111 669 118 665 q 91 682 103 674 q 69 709 69 696 q 96 736 69 736 q 136 722 118 736 q 200 674 167 696 l 572 415 q 604 370 604 394 q 572 322 604 347 l 157 21 q 138 5 147 14 q 77 -5 100 -25 z "},"?":{"ha":628,"x_min":101,"x_max":544,"o":"m 457 340 q 266 326 372 294 q 134 427 175 351 q 113 504 113 466 q 119 566 113 541 q 136 616 124 590 q 201 718 160 669 q 259 792 241 768 q 287 836 276 817 q 307 888 307 870 q 267 922 307 922 q 160 879 208 922 q 129 861 142 861 q 101 886 101 861 q 125 924 101 905 q 182 955 149 944 q 295 972 235 972 q 401 958 356 972 q 477 918 446 943 q 544 787 544 865 q 503 629 544 709 q 415 489 463 549 q 359 416 367 429 q 352 391 352 402 q 376 368 352 368 q 431 385 410 368 q 485 411 466 411 q 504 389 504 411 q 457 340 504 366 m 174 103 q 213 193 174 161 q 315 226 251 226 q 417 190 380 226 q 451 102 451 156 q 414 22 451 54 q 311 -13 374 -13 q 184 56 215 -13 q 174 103 174 77 z "},"@":{"ha":1312,"x_min":57,"x_max":1259,"o":"m 639 692 q 786 644 721 692 l 793 683 l 1024 683 l 929 134 q 1124 262 1044 157 q 1206 516 1206 372 q 1067 806 1206 705 q 706 902 935 902 q 412 823 551 902 q 195 618 276 745 q 111 333 111 484 q 273 -31 111 101 q 623 -150 419 -150 q 813 -111 719 -150 q 856 -99 842 -99 q 877 -106 869 -99 q 885 -127 885 -114 q 739 -190 885 -168 q 607 -200 674 -200 q 470 -185 541 -200 q 337 -139 399 -170 q 224 -64 275 -109 q 136 39 172 -20 q 57 329 57 163 q 149 644 57 499 q 389 866 238 784 q 718 949 543 949 q 1104 836 957 949 q 1259 510 1259 715 q 1185 269 1259 376 q 1000 111 1118 168 q 750 55 884 55 l 684 62 l 694 119 q 544 70 610 70 q 435 87 478 70 q 362 137 392 104 q 300 322 300 204 q 387 581 300 479 q 639 692 480 692 m 535 121 q 561 120 538 120 q 625 135 585 120 q 705 176 665 149 l 777 592 q 633 643 711 643 l 630 643 l 535 121 z "},"A":{"ha":919,"x_min":6,"x_max":889,"o":"m 290 121 q 120 123 165 121 l 100 76 q 84 35 92 56 q 41 -7 68 -7 q 20 1 28 -7 q 12 18 12 9 q 24 51 12 33 q 64 125 45 79 q 6 159 6 131 q 39 188 6 188 q 87 181 60 188 l 425 1003 l 889 0 l 536 0 l 479 121 l 290 121 m 142 176 q 258 170 207 170 l 457 170 l 288 536 l 142 176 z "},"B":{"ha":1019,"x_min":120,"x_max":973,"o":"m 120 960 q 411 960 303 960 q 543 959 519 960 q 684 936 643 954 q 750 894 726 917 q 802 769 802 842 q 751 642 802 696 q 715 612 736 625 q 897 519 826 592 q 973 328 973 441 q 902 129 973 212 q 594 3 802 14 q 490 0 541 0 l 120 0 l 120 960 m 565 626 l 600 622 l 610 622 q 703 661 664 622 q 745 764 745 703 q 681 879 745 839 q 616 903 648 899 q 566 908 584 907 q 466 911 528 911 l 466 50 l 541 50 q 729 79 656 50 q 867 175 816 109 q 915 307 915 238 q 895 424 915 376 q 836 505 874 471 q 616 573 757 573 l 570 569 q 538 578 548 569 q 528 598 528 587 q 565 626 528 626 z "},"C":{"ha":974,"x_min":60,"x_max":926,"o":"m 898 161 q 926 130 926 161 q 886 78 926 104 q 763 15 813 30 q 565 -13 669 -13 q 365 24 461 -13 q 201 127 269 61 q 60 488 60 267 q 100 684 60 595 q 210 837 140 773 q 585 972 359 972 q 808 928 712 972 q 911 851 911 883 q 902 829 911 838 q 883 819 894 819 q 844 839 861 819 q 796 873 826 858 q 730 901 766 889 q 596 923 656 923 q 497 915 536 923 l 497 45 q 581 37 545 37 q 656 42 618 37 q 730 58 694 47 q 854 130 812 82 q 878 154 869 147 q 898 161 886 161 z "},"D":{"ha":1070,"x_min":120,"x_max":1010,"o":"m 120 960 l 402 960 q 692 932 600 960 q 854 848 797 899 q 944 743 911 798 q 1010 492 1010 633 q 852 134 1010 271 q 587 13 739 36 q 349 0 502 0 l 120 0 l 120 960 m 466 56 q 486 56 477 56 l 501 56 q 815 170 685 56 q 953 491 953 291 q 892 718 953 617 q 616 897 805 865 q 466 908 554 907 l 466 56 z "},"E":{"ha":811,"x_min":109,"x_max":749,"o":"m 715 58 q 749 31 749 58 q 734 9 749 19 q 683 0 720 0 l 109 0 l 109 960 q 643 960 376 960 l 699 962 q 749 932 749 962 q 741 910 749 920 q 722 901 732 901 q 684 905 704 901 q 604 911 655 911 l 454 911 l 454 704 l 578 704 q 661 707 578 704 q 687 700 676 707 q 697 680 697 693 q 659 652 697 652 l 630 652 q 593 654 608 654 l 454 654 l 454 50 l 604 50 q 675 54 654 50 q 715 58 701 58 z "},"F":{"ha":785,"x_min":120,"x_max":789,"o":"m 684 616 l 656 616 q 618 618 641 618 l 466 618 l 466 0 l 120 0 l 120 960 l 659 960 l 726 962 l 738 962 q 789 932 789 962 q 780 910 789 920 q 760 901 770 901 q 726 904 742 901 q 644 911 694 911 l 466 911 l 466 667 l 602 667 q 686 670 602 667 q 723 643 723 670 q 684 616 723 616 z "},"G":{"ha":1098,"x_min":60,"x_max":983,"o":"m 925 50 l 926 96 l 926 203 q 644 1 831 44 q 507 -13 585 -13 q 345 20 429 -13 q 198 114 261 52 q 60 467 60 248 q 206 822 60 677 q 589 972 359 972 q 800 928 706 972 q 882 881 858 903 q 905 845 905 859 q 897 823 905 832 q 874 813 889 813 q 842 829 860 813 q 750 889 790 875 q 687 909 711 903 q 644 918 663 916 q 575 922 615 922 q 501 916 535 922 l 501 38 q 516 37 509 37 l 530 37 q 856 190 731 37 q 926 313 899 242 l 926 378 q 923 439 926 378 q 951 475 923 475 q 975 466 966 475 q 983 441 983 456 l 979 385 l 979 133 l 983 28 q 974 2 983 12 q 952 -7 964 -7 q 922 24 922 -7 q 925 50 922 32 z "},"H":{"ha":991,"x_min":120,"x_max":931,"o":"m 860 98 l 862 29 q 852 2 862 12 q 828 -7 842 -7 q 807 1 815 -7 q 800 24 800 10 q 803 54 800 37 q 808 159 808 75 l 808 654 l 467 654 l 467 0 l 120 0 l 120 960 l 467 960 l 467 704 q 700 704 613 704 q 808 705 787 704 l 808 823 q 806 899 808 882 l 803 920 q 802 936 802 929 q 831 967 802 967 q 852 959 841 967 q 863 932 863 951 l 860 845 l 860 707 l 903 713 q 923 706 915 713 q 931 688 931 699 q 889 658 931 661 q 874 656 882 656 q 860 655 867 656 l 860 98 z "},"I":{"ha":562,"x_min":109,"x_max":454,"o":"m 109 960 l 454 960 l 454 0 l 109 0 l 109 960 z "},"J":{"ha":773,"x_min":-2,"x_max":654,"o":"m 143 51 q 156 46 143 51 q 197 37 168 41 q 253 33 225 33 q 307 39 281 33 l 307 960 l 654 960 l 654 362 q 564 91 654 184 q 248 -13 463 -13 q 34 52 107 -13 l 22 63 q 0 108 -2 89 q 28 137 5 140 q 65 111 52 133 q 98 74 78 88 q 143 51 118 60 z "},"K":{"ha":985,"x_min":120,"x_max":958,"o":"m 120 960 l 466 960 l 466 679 l 707 861 q 781 924 758 900 q 810 954 804 949 q 821 962 816 959 q 841 967 829 967 q 861 960 854 967 q 869 944 869 953 q 867 930 869 936 q 859 917 865 924 q 807 871 845 901 l 655 756 l 909 134 q 924 103 917 117 l 935 79 l 947 56 q 955 37 951 46 q 958 20 958 28 q 953 5 957 12 q 930 -9 943 -9 q 901 1 911 -9 q 883 35 889 16 l 871 73 q 854 118 865 92 l 608 721 l 466 613 l 466 0 l 120 0 l 120 960 z "},"L":{"ha":747,"x_min":120,"x_max":737,"o":"m 701 62 q 737 31 737 62 q 723 9 737 19 q 671 0 708 0 l 120 0 l 120 960 l 466 960 l 466 45 l 593 45 q 666 53 635 45 q 701 62 697 62 z "},"M":{"ha":1304,"x_min":7,"x_max":1287,"o":"m 33 -10 q 14 1 20 -9 q 8 24 7 12 q 21 62 12 45 q 35 89 31 80 q 44 109 39 98 l 70 168 l 349 1003 l 648 424 l 939 1003 l 1287 0 l 923 0 l 755 518 l 494 -24 l 220 464 l 125 168 q 94 83 103 118 q 78 30 84 49 q 33 -10 64 -13 z "},"N":{"ha":1041,"x_min":120,"x_max":921,"o":"m 181 97 l 183 29 q 174 2 183 12 q 151 -7 164 -7 q 129 1 138 -7 q 120 21 120 10 q 122 40 120 31 q 125 61 123 50 q 128 159 128 81 l 128 1003 l 865 418 l 865 823 q 863 888 865 869 q 859 933 859 920 q 888 967 859 967 q 910 959 900 967 q 921 935 921 951 l 921 911 l 918 813 l 918 -37 l 181 541 l 181 97 z "},"O":{"ha":1135,"x_min":74,"x_max":1061,"o":"m 220 122 q 187 155 220 122 q 114 281 153 188 q 74 485 74 374 q 112 683 74 595 q 216 835 149 770 q 573 972 358 972 q 923 837 787 972 q 1061 481 1061 700 q 920 123 1061 264 q 701 3 831 37 q 552 -13 637 -13 q 377 22 467 -13 q 220 122 288 57 m 572 922 q 503 917 535 922 l 503 42 q 572 37 534 37 q 878 157 753 37 q 1007 481 1007 283 q 886 796 1007 671 q 572 922 763 922 z "},"P":{"ha":1029,"x_min":120,"x_max":995,"o":"m 569 281 l 629 279 q 846 366 761 279 q 937 592 933 453 q 731 882 945 806 q 523 910 651 910 l 466 910 l 466 0 l 120 0 l 120 960 l 380 960 q 633 954 590 960 q 724 938 677 947 q 826 897 771 928 q 918 821 880 865 q 992 610 995 731 q 902 354 988 456 q 661 227 814 251 q 590 220 616 220 q 529 254 529 220 q 540 274 529 266 q 569 281 551 281 z "},"Q":{"ha":1107,"x_min":60,"x_max":1060,"o":"m 837 68 q 552 -13 712 -13 q 363 22 452 -13 q 206 122 273 57 q 60 491 60 265 q 202 835 60 698 q 559 972 344 972 q 909 837 772 972 q 1047 481 1047 700 q 1002 261 1047 359 q 876 98 956 164 l 940 48 q 1000 10 986 14 q 1029 5 1015 7 q 1060 -19 1060 3 q 1023 -47 1060 -47 q 969 -31 995 -47 q 913 8 943 -15 l 837 68 m 558 922 q 488 917 521 922 l 488 42 q 571 37 519 37 q 794 103 688 37 q 662 156 722 156 q 632 164 642 156 q 622 183 622 172 q 659 210 622 210 q 835 132 730 210 q 950 278 907 190 q 993 471 993 367 q 961 656 993 575 q 871 796 929 736 q 558 922 749 922 z "},"R":{"ha":1018,"x_min":120,"x_max":981,"o":"m 577 329 l 633 325 q 836 408 752 325 q 919 616 919 492 q 776 857 919 779 q 608 907 697 901 q 537 911 570 911 l 491 911 q 466 910 477 911 l 466 0 l 120 0 l 120 960 q 377 960 279 960 q 505 959 475 960 q 558 957 535 958 q 602 955 582 956 q 687 942 632 952 q 795 903 741 932 q 887 833 848 875 q 970 620 970 743 q 893 404 970 498 q 682 281 814 309 q 842 47 745 85 q 902 36 872 36 l 956 49 q 981 23 981 49 q 897 -13 981 -13 q 785 21 836 -13 q 650 205 705 68 l 630 254 q 622 268 625 265 q 609 271 618 271 q 593 269 600 271 l 576 269 q 539 279 549 269 q 530 300 530 289 q 577 329 530 329 z "},"S":{"ha":807,"x_min":62,"x_max":745,"o":"m 120 49 q 79 77 96 62 q 62 109 62 92 q 90 142 62 142 q 130 121 108 142 q 180 86 153 101 q 241 60 208 71 q 365 37 308 37 q 453 45 422 37 q 505 65 484 52 q 549 136 549 93 q 511 217 549 176 q 418 300 478 252 l 302 391 q 97 636 128 525 q 86 722 86 675 q 107 816 86 770 q 171 897 129 862 q 416 972 261 972 q 559 948 496 972 q 645 907 622 925 q 668 873 668 888 q 642 842 668 842 q 610 857 627 842 q 573 883 593 872 q 526 903 552 895 q 414 922 469 922 q 313 856 313 922 q 331 804 313 828 q 458 686 363 763 q 610 551 553 609 q 697 448 667 494 q 745 297 745 375 q 717 164 745 218 q 640 70 690 109 q 381 -13 536 -13 q 120 49 227 -13 z "},"T":{"ha":840,"x_min":1,"x_max":817,"o":"m 817 942 q 751 911 817 911 l 593 911 l 593 0 l 246 0 l 246 911 l 144 911 q 73 906 92 911 q 35 901 47 901 q 1 928 1 901 q 68 960 1 960 l 673 960 q 742 964 720 960 q 783 968 769 968 q 817 942 817 968 z "},"U":{"ha":1065,"x_min":99,"x_max":966,"o":"m 966 931 l 962 847 l 962 441 q 846 115 962 241 q 533 -13 728 -13 q 208 118 324 -13 q 99 426 99 238 l 99 960 l 446 960 l 446 45 q 561 37 498 37 q 688 62 623 37 q 802 141 753 87 q 909 478 907 256 l 909 846 q 906 894 909 866 q 903 932 903 922 q 936 967 903 967 q 966 931 966 967 z "},"V":{"ha":854,"x_min":-6,"x_max":832,"o":"m 804 967 q 832 938 832 967 q 823 904 832 923 q 808 872 814 884 l 440 -37 l -6 960 l 364 960 l 580 452 l 731 831 q 763 919 755 892 q 779 957 770 946 q 804 967 788 967 z "},"W":{"ha":1331,"x_min":-6,"x_max":1310,"o":"m 1310 937 q 1305 912 1310 927 q 1276 836 1289 868 l 916 -37 l 661 534 l 395 -37 l -6 960 l 366 960 l 556 452 l 814 1003 l 1055 453 l 1225 851 q 1240 895 1234 873 l 1251 937 q 1284 967 1259 967 q 1310 937 1310 967 z "},"X":{"ha":895,"x_min":36,"x_max":857,"o":"m 77 -7 q 50 19 50 -7 q 79 65 50 39 q 123 114 106 90 q 311 388 123 114 l 36 960 l 395 960 l 558 621 l 700 824 q 758 933 739 882 q 799 967 773 967 q 825 938 825 967 q 789 869 825 922 l 586 563 l 857 0 l 499 0 l 340 330 l 166 80 q 94 -3 115 8 q 77 -7 85 -7 z "},"Y":{"ha":895,"x_min":14,"x_max":873,"o":"m 374 28 q 327 -7 356 -7 q 298 22 298 -7 q 315 62 298 41 q 382 159 351 104 l 417 221 l 14 960 l 410 960 l 604 551 l 777 859 q 810 931 796 895 q 846 967 823 967 q 873 939 873 967 q 861 902 873 923 l 397 75 q 385 52 390 61 l 374 28 z "},"Z":{"ha":802,"x_min":35,"x_max":768,"o":"m 732 58 q 768 31 768 58 q 753 9 768 19 q 700 0 738 0 l 35 0 l 389 911 l 216 911 q 143 906 164 911 q 106 901 117 901 q 71 928 71 901 q 137 960 71 960 l 743 960 l 397 50 l 623 50 q 694 54 674 50 q 732 58 718 58 z "},"[":{"ha":628,"x_min":86,"x_max":536,"o":"m 536 -103 q 477 -136 536 -136 l 86 -136 l 86 1040 l 477 1040 q 536 1013 536 1040 q 494 985 536 985 l 380 992 l 366 992 l 366 -85 l 391 -85 q 453 -82 425 -85 q 498 -78 482 -78 q 525 -86 513 -78 q 536 -103 536 -94 z "},"\\":{"ha":456,"x_min":56,"x_max":400,"o":"m 400 24 q 374 -7 400 -7 q 345 8 354 -7 q 309 105 328 37 l 95 835 q 74 890 83 874 q 62 913 65 907 q 58 925 59 920 q 56 941 56 932 q 62 959 56 950 q 79 967 68 967 q 98 963 90 967 q 113 948 105 960 q 146 862 127 926 l 351 159 q 380 76 369 95 q 400 24 400 41 z "},"]":{"ha":628,"x_min":62,"x_max":511,"o":"m 120 -136 q 62 -103 62 -136 q 73 -86 62 -94 q 100 -78 84 -78 q 126 -79 115 -78 l 148 -82 q 207 -85 178 -85 l 232 -85 l 232 992 l 218 992 q 104 985 218 992 q 62 1013 62 985 q 120 1040 62 1040 l 511 1040 l 511 -136 l 120 -136 z "},"^":{"ha":635,"x_min":73,"x_max":585,"o":"m 137 639 q 98 610 119 610 q 81 617 90 610 q 73 635 73 625 q 91 673 73 651 l 117 707 q 141 739 127 719 l 281 941 q 327 972 302 972 q 374 941 351 972 q 547 700 538 711 l 563 680 q 585 640 585 654 q 576 617 585 625 q 555 610 568 610 q 532 621 542 610 q 514 646 523 632 l 439 758 l 327 912 q 169 688 174 696 l 145 652 q 137 639 140 644 z "},"_":{"ha":594,"x_min":-43,"x_max":630,"o":"m 527 -73 q 606 -76 583 -73 q 630 -98 630 -80 q 608 -120 630 -116 q 536 -123 586 -123 l 58 -123 q -18 -120 6 -123 q -43 -98 -43 -116 q -16 -76 -43 -80 q 67 -73 10 -73 l 527 -73 z "},"`":{"ha":394,"x_min":62,"x_max":332,"o":"m 62 1003 l 252 1003 l 332 810 l 227 810 l 62 1003 z "},"a":{"ha":956,"x_min":65,"x_max":861,"o":"m 571 45 q 378 -13 484 -13 q 153 58 238 -13 q 65 259 65 130 q 153 446 65 373 q 388 520 242 520 q 571 483 486 520 l 571 669 q 462 687 509 687 q 382 683 415 687 q 321 671 350 679 q 225 623 258 653 q 191 606 206 606 q 167 613 175 606 q 159 631 159 621 q 162 648 159 640 q 175 664 165 656 q 243 699 195 682 q 440 736 341 736 q 825 593 741 736 q 861 425 861 529 l 861 0 l 571 0 l 571 45 m 571 430 q 401 471 486 471 q 375 469 387 471 l 375 38 q 382 37 378 37 q 391 37 387 37 q 571 103 484 37 l 571 430 z "},"b":{"ha":1026,"x_min":117,"x_max":969,"o":"m 578 -13 q 396 30 484 -13 l 396 0 l 117 0 l 117 960 l 396 960 l 396 690 q 576 736 482 736 q 742 709 671 736 q 864 632 813 681 q 969 368 969 529 q 865 99 969 206 q 578 -13 758 -13 m 576 687 q 396 631 476 687 l 396 87 q 595 37 485 37 l 613 37 q 629 39 621 37 l 629 683 q 576 687 603 687 z "},"c":{"ha":765,"x_min":55,"x_max":728,"o":"m 389 43 q 453 37 420 37 q 515 42 485 37 q 572 57 545 47 q 665 109 630 77 q 702 130 690 130 q 728 107 728 130 q 686 52 728 84 q 451 -13 588 -13 q 163 94 273 -13 q 55 369 55 200 q 170 633 55 529 q 456 736 283 736 q 645 696 554 736 q 714 634 714 666 q 706 613 714 621 q 689 606 699 606 q 652 622 675 606 q 522 681 608 664 q 453 687 490 687 q 389 682 416 687 l 389 43 z "},"d":{"ha":1015,"x_min":57,"x_max":910,"o":"m 631 37 q 451 -13 546 -13 q 285 15 357 -13 q 163 94 214 43 q 57 367 57 199 q 161 627 57 523 q 452 736 273 736 q 631 695 547 736 l 631 960 l 910 960 l 910 0 l 631 0 l 631 37 m 438 687 q 398 684 417 687 l 398 41 q 451 37 422 37 q 631 97 545 37 l 631 635 q 438 687 539 687 z "},"e":{"ha":882,"x_min":55,"x_max":827,"o":"m 747 165 q 773 140 773 165 q 749 97 773 122 q 456 -13 642 -13 q 174 88 288 -13 q 55 354 55 193 q 162 624 55 518 q 463 736 275 736 q 716 645 614 736 q 827 387 827 547 q 825 338 827 363 l 378 338 l 378 47 q 481 37 424 37 q 690 118 604 37 q 715 146 707 136 q 747 165 730 165 m 566 674 q 466 687 522 687 q 378 680 410 687 l 378 387 l 566 387 l 566 674 z "},"f":{"ha":566,"x_min":3,"x_max":651,"o":"m 557 672 l 484 675 l 409 675 l 409 0 l 117 0 l 118 675 l 107 675 l 43 672 q 3 700 3 672 q 39 727 3 727 l 120 724 q 229 912 134 847 q 456 972 316 972 q 637 920 588 972 q 651 892 651 905 q 621 863 651 863 q 591 873 606 863 l 567 890 q 482 922 528 919 q 457 922 470 922 q 432 921 444 922 q 409 918 420 920 l 409 724 l 468 724 l 559 727 q 595 700 595 727 q 557 672 595 672 z "},"g":{"ha":810,"x_min":64,"x_max":782,"o":"m 265 221 q 205 181 205 203 q 240 152 205 160 q 429 133 309 136 q 609 114 549 130 q 706 76 670 99 q 771 -37 771 33 q 684 -180 771 -125 q 410 -241 587 -241 q 109 -186 228 -241 q 66 -139 66 -165 q 75 -121 66 -127 q 93 -114 83 -114 q 119 -123 104 -114 q 183 -156 154 -142 q 276 -181 213 -169 q 398 -193 339 -193 q 493 -188 456 -193 q 555 -176 530 -183 q 603 -144 603 -162 q 593 -121 603 -128 q 569 -107 584 -113 q 526 -97 553 -102 q 375 -83 471 -87 q 224 -64 279 -78 q 133 -28 168 -50 q 64 83 64 13 q 202 248 64 185 q 102 339 139 283 q 64 462 64 396 q 89 577 64 528 q 159 661 114 625 q 402 736 253 736 q 536 716 469 736 q 714 809 632 809 q 765 798 749 809 q 782 768 782 786 q 770 743 782 751 q 749 735 759 735 q 718 739 730 735 q 679 746 699 746 q 587 695 642 746 q 731 539 697 641 q 742 456 742 505 q 713 358 742 407 q 637 274 685 309 q 405 201 538 201 q 265 221 334 199 m 408 250 q 597 304 517 252 q 688 465 688 363 q 598 629 688 567 q 408 688 515 686 l 408 250 z "},"h":{"ha":1015,"x_min":117,"x_max":910,"o":"m 671 736 q 910 505 910 736 l 910 0 l 618 0 l 618 660 q 586 668 606 668 q 545 659 566 668 q 499 632 523 649 q 409 538 448 595 l 409 0 l 117 0 l 117 960 l 409 960 l 409 610 q 671 736 525 736 z "},"i":{"ha":513,"x_min":111,"x_max":419,"o":"m 260 843 q 225 843 260 843 q 151 874 190 843 q 111 956 111 905 q 155 1029 111 999 q 252 1062 201 1062 q 332 1052 304 1062 q 380 1025 360 1042 q 419 948 419 992 q 374 873 419 904 q 260 843 330 843 m 117 724 l 409 724 l 409 0 l 117 0 l 117 724 z "},"j":{"ha":543,"x_min":-64,"x_max":449,"o":"m 290 843 q 255 843 290 843 q 180 874 220 843 q 141 956 141 905 q 184 1029 141 999 q 282 1062 231 1062 q 362 1052 334 1062 q 410 1025 390 1042 q 449 948 449 992 q 404 873 449 904 q 290 843 359 843 m -35 -138 q 0 -154 -19 -138 q 30 -176 18 -170 q 91 -190 56 -190 q 149 -186 125 -190 l 149 724 l 439 724 l 439 72 q 342 -167 439 -86 q 102 -239 254 -239 q -9 -223 24 -239 q -64 -167 -64 -197 q -35 -138 -64 -138 z "},"k":{"ha":891,"x_min":117,"x_max":885,"o":"m 117 960 l 409 960 l 409 442 l 694 649 q 760 708 735 680 q 801 736 784 736 q 831 711 831 736 q 808 673 831 692 l 635 540 l 885 0 l 582 0 l 409 382 l 409 0 l 117 0 l 117 960 z "},"l":{"ha":513,"x_min":117,"x_max":409,"o":"m 117 960 l 409 960 l 409 0 l 117 0 l 117 960 z "},"m":{"ha":1503,"x_min":117,"x_max":1399,"o":"m 903 537 q 904 505 904 521 l 904 0 l 613 0 l 613 658 q 595 661 606 661 l 574 661 q 450 589 521 661 q 409 539 429 566 l 409 0 l 117 0 l 117 724 l 409 724 l 409 615 q 665 736 524 736 q 891 601 848 736 q 1020 702 949 668 q 1161 736 1090 736 q 1341 679 1282 736 q 1399 505 1399 621 l 1399 0 l 1108 0 l 1108 659 q 1078 661 1102 661 q 1033 652 1053 661 q 990 627 1012 643 q 903 537 943 592 z "},"n":{"ha":1015,"x_min":117,"x_max":911,"o":"m 619 650 q 583 661 602 661 q 542 652 563 661 q 498 627 521 643 q 409 534 450 592 l 409 0 l 117 0 l 117 724 l 409 724 l 409 608 q 671 736 525 736 q 911 505 911 736 l 911 0 l 619 0 l 619 650 z "},"o":{"ha":884,"x_min":55,"x_max":827,"o":"m 55 366 q 84 514 55 448 q 165 631 114 581 q 445 736 277 736 q 724 627 616 736 q 827 364 827 523 q 722 98 827 205 q 442 -13 612 -13 q 167 92 276 -13 q 55 366 55 201 m 423 38 q 434 37 429 37 l 444 37 q 673 122 581 37 q 772 362 772 214 q 680 597 772 507 q 443 687 588 687 l 433 687 q 423 686 428 687 l 423 38 z "},"p":{"ha":1025,"x_min":117,"x_max":969,"o":"m 578 -13 q 396 30 484 -13 l 396 -217 l 117 -217 l 117 724 l 396 724 l 396 687 q 578 736 485 736 q 742 709 671 736 q 864 632 813 681 q 969 368 969 529 q 865 99 969 206 q 578 -13 758 -13 m 576 687 q 396 631 476 687 l 396 90 q 595 37 488 37 l 613 37 q 629 39 621 37 l 629 683 q 576 687 603 687 z "},"q":{"ha":1014,"x_min":56,"x_max":909,"o":"m 630 34 q 451 -13 545 -13 q 284 15 356 -13 q 163 94 213 43 q 56 367 56 199 q 161 627 56 523 q 451 736 272 736 q 630 695 546 736 l 630 724 l 909 724 l 909 -217 l 630 -217 l 630 34 m 437 687 q 397 684 416 687 l 397 41 q 450 37 422 37 q 630 94 551 37 l 630 635 q 437 687 540 687 z "},"r":{"ha":654,"x_min":117,"x_max":684,"o":"m 117 724 l 409 724 l 409 511 q 510 682 456 627 q 618 736 564 736 q 666 721 648 736 q 684 685 684 705 q 679 654 684 665 q 665 634 673 642 q 630 617 646 617 q 592 623 604 617 q 555 632 571 632 q 513 606 538 632 q 465 534 488 580 q 409 290 409 421 l 409 0 l 117 0 l 117 724 z "},"s":{"ha":694,"x_min":64,"x_max":648,"o":"m 64 91 q 72 110 64 101 q 90 118 79 118 q 109 111 102 118 q 126 96 109 111 q 323 34 197 34 q 433 69 409 34 q 440 89 440 79 q 436 107 440 98 q 420 130 433 117 q 386 161 408 143 l 326 210 q 123 397 178 325 q 73 531 73 463 q 153 675 73 617 q 365 736 235 736 q 509 715 456 736 q 584 677 562 694 q 606 646 606 660 q 583 616 606 616 q 563 624 572 616 q 526 651 553 632 q 454 680 499 669 q 371 691 410 691 q 316 679 332 691 q 300 655 300 667 q 305 632 300 643 q 323 608 310 622 q 418 524 353 572 q 530 436 484 476 q 601 362 575 396 q 648 239 648 301 q 625 132 648 176 q 559 56 602 87 q 318 -13 469 -13 q 117 33 197 -13 q 64 91 64 62 z "},"t":{"ha":653,"x_min":15,"x_max":655,"o":"m 396 -13 q 130 230 130 -13 l 130 675 l 52 671 q 15 699 15 671 q 54 727 15 727 l 119 724 l 130 724 l 130 829 l 420 960 l 420 724 l 511 724 l 576 727 q 616 699 616 727 q 605 679 616 686 q 579 671 593 671 l 495 675 l 420 675 l 420 37 q 553 83 500 39 q 588 132 578 102 q 607 170 599 161 q 627 178 616 178 q 647 169 639 178 q 655 148 655 160 q 648 120 655 135 q 628 87 642 104 q 557 27 597 50 q 396 -13 485 -13 z "},"u":{"ha":1013,"x_min":117,"x_max":909,"o":"m 355 -13 q 117 220 117 -13 l 117 724 l 407 724 l 407 60 q 424 57 414 57 l 446 57 q 575 130 500 57 q 617 179 597 153 l 617 724 l 909 724 l 909 0 l 617 0 l 617 104 q 355 -13 507 -13 z "},"v":{"ha":725,"x_min":3,"x_max":724,"o":"m 3 724 l 310 724 l 494 344 l 610 574 q 655 684 646 648 q 674 728 665 720 q 696 736 683 736 q 717 728 709 736 q 724 710 724 719 q 723 692 724 701 q 716 669 721 684 q 673 572 706 641 l 375 -31 l 3 724 z "},"w":{"ha":1109,"x_min":3,"x_max":1109,"o":"m 3 724 l 310 724 l 484 359 l 688 755 l 902 355 l 999 574 q 1041 687 1034 655 q 1058 727 1048 718 q 1080 736 1067 736 q 1101 727 1093 736 q 1109 710 1109 718 q 1108 697 1109 703 q 1102 676 1107 690 q 1086 639 1097 663 l 794 -31 l 568 403 l 349 -31 l 3 724 z "},"x":{"ha":737,"x_min":7,"x_max":751,"o":"m 43 -13 q 38 -13 43 -13 q 25 -5 33 -13 q 17 14 17 3 q 41 54 17 35 q 77 87 66 72 q 256 307 77 87 l 7 724 l 315 724 l 459 485 q 594 661 585 646 q 618 705 612 690 q 654 736 631 736 q 674 729 665 736 q 682 712 682 722 q 679 692 682 702 q 666 666 675 682 q 604 580 648 636 l 490 434 l 751 0 l 441 0 l 286 258 l 121 50 q 60 -11 78 -4 q 43 -13 53 -13 z "},"y":{"ha":725,"x_min":3,"x_max":724,"o":"m 243 -160 q 301 -127 285 -147 q 357 -29 324 -100 l 372 7 l 3 724 l 311 724 l 504 315 l 615 574 q 655 683 646 646 q 674 728 665 720 q 696 736 683 736 q 717 728 709 736 q 724 712 724 720 q 723 695 724 704 q 716 670 721 686 q 701 632 711 655 l 420 -20 q 323 -186 370 -138 q 244 -229 284 -229 q 203 -201 203 -229 q 243 -160 203 -173 z "},"z":{"ha":762,"x_min":28,"x_max":734,"o":"m 691 58 q 728 31 728 58 q 712 9 728 19 q 659 0 696 0 l 28 0 l 429 675 l 225 675 q 157 671 180 675 q 111 665 125 665 q 89 673 98 665 q 79 692 79 681 q 146 724 79 724 l 734 724 l 358 50 l 581 50 q 652 54 631 50 q 691 58 677 58 z "},"{":{"ha":633,"x_min":35,"x_max":556,"o":"m 556 1042 q 501 1014 556 1011 q 412 996 459 1017 l 412 693 q 358 542 412 591 q 188 481 305 492 q 359 406 300 471 q 412 257 412 349 l 412 -59 q 497 -82 458 -81 q 546 -91 535 -84 q 556 -109 556 -97 q 513 -134 556 -134 q 380 -98 446 -134 q 260 6 314 -62 q 127 385 142 155 q 112 438 124 422 q 76 458 100 455 q 35 484 35 463 q 68 509 35 506 q 109 522 100 511 q 126 577 123 538 q 241 926 138 791 q 513 1067 347 1067 q 545 1059 534 1067 q 556 1042 556 1051 z "},"|":{"ha":311,"x_min":123,"x_max":186,"o":"m 184 -123 l 186 -191 q 176 -219 186 -210 q 153 -229 166 -229 q 131 -220 139 -229 q 123 -200 123 -211 q 125 -180 123 -189 l 129 -161 q 132 -62 132 -139 l 132 823 q 130 892 132 874 l 127 917 q 127 933 127 924 q 154 967 127 967 q 176 959 165 967 q 186 931 186 951 l 184 845 l 184 -123 z "},"}":{"ha":633,"x_min":62,"x_max":583,"o":"m 62 -110 q 62 -98 62 -110 q 110 -83 62 -85 q 206 -59 159 -81 l 206 257 q 328 456 206 399 q 430 481 370 476 q 219 604 256 498 q 206 693 206 642 l 206 996 q 124 1015 159 1017 q 62 1042 62 1011 q 73 1059 62 1051 q 105 1067 83 1067 q 377 926 271 1067 q 492 577 479 791 q 503 529 493 540 q 543 509 518 511 q 583 484 583 506 q 550 459 583 463 q 506 438 517 455 q 491 385 494 422 q 357 6 475 155 q 238 -98 304 -62 q 105 -134 172 -134 q 62 -110 62 -134 z "},"~":{"ha":815,"x_min":45,"x_max":751,"o":"m 377 446 q 113 437 178 599 q 69 394 94 391 q 47 428 45 397 q 96 515 50 467 q 410 487 222 635 l 473 441 q 540 402 521 408 q 585 395 559 397 q 682 476 644 389 q 702 513 692 504 q 724 520 711 522 q 749 492 751 517 q 723 431 745 460 q 526 354 650 321 q 377 446 478 366 z "}," ":{"ha":309,"x_min":0,"x_max":0,"o":""},"¡":{"ha":564,"x_min":66,"x_max":481,"o":"m 273 733 q 170 766 208 733 q 133 856 133 798 q 168 939 133 907 q 269 972 205 972 q 372 937 332 972 q 410 857 410 905 q 332 743 410 772 q 273 733 307 733 m 123 37 q 81 91 96 60 q 66 149 66 122 q 68 192 66 176 q 79 229 71 208 q 126 325 94 267 q 174 416 159 383 q 201 480 189 448 q 233 582 219 528 q 254 644 247 636 q 271 652 261 652 q 291 644 280 652 q 309 603 301 636 q 326 538 317 570 q 346 476 335 505 q 401 360 367 420 l 449 273 q 478 199 475 222 q 481 147 481 176 q 468 87 481 119 q 427 34 454 56 q 273 -13 371 -13 q 123 37 182 -13 z "},"¢":{"ha":778,"x_min":55,"x_max":728,"o":"m 686 52 q 458 -13 588 -13 q 349 -2 396 -13 l 331 -48 q 310 -126 313 -96 q 300 -167 307 -157 q 284 -180 294 -177 q 264 -180 275 -184 q 250 -166 253 -176 q 247 -145 247 -156 q 251 -117 248 -134 q 283 -16 259 -79 l 296 12 q 119 146 184 53 q 55 369 55 241 q 170 633 55 529 q 456 736 283 736 q 484 735 469 736 l 498 773 q 519 851 516 821 q 529 892 523 882 q 545 905 535 902 q 566 905 555 909 q 579 891 576 901 q 582 870 583 881 q 578 841 582 859 q 541 728 566 787 q 694 669 637 710 q 714 637 714 654 q 706 613 714 621 q 689 606 699 606 q 652 622 675 606 q 522 681 608 664 q 453 687 490 687 q 389 682 416 687 l 389 43 q 453 37 420 37 q 515 42 485 37 q 572 57 545 47 q 665 109 630 77 q 702 130 690 130 q 728 107 728 130 q 686 52 728 84 z "},"£":{"ha":932,"x_min":10,"x_max":889,"o":"m 421 80 q 178 -13 314 -13 q 20 68 56 -13 q 10 121 10 92 q 51 215 10 177 q 142 252 91 252 q 243 233 194 252 l 243 467 l 149 461 q 122 470 133 461 q 111 492 111 479 q 149 522 111 522 l 243 517 l 243 718 q 328 898 243 827 q 573 972 417 972 q 743 938 663 972 q 823 869 823 905 q 817 851 823 860 q 802 843 811 843 q 762 862 784 843 q 694 899 741 882 q 589 921 648 917 l 589 517 l 657 517 q 723 519 709 517 q 766 522 747 522 q 804 492 804 522 q 794 471 804 479 q 763 462 783 462 l 666 467 l 589 467 q 459 117 587 258 q 690 37 598 37 q 804 81 758 37 q 828 114 819 95 q 845 139 838 133 q 862 145 852 145 q 881 138 873 145 q 889 114 889 131 q 871 70 889 96 q 825 24 853 43 q 687 -13 767 -13 q 583 2 625 -13 q 421 80 510 28 m 243 180 q 149 203 191 203 q 85 181 108 203 q 63 131 63 159 q 71 87 63 103 q 91 61 79 72 q 159 37 117 37 q 243 167 243 37 l 243 180 z "},"¤":{"ha":945,"x_min":79,"x_max":869,"o":"m 645 124 q 472 81 570 81 q 288 149 375 81 l 245 102 q 196 35 209 62 q 174 1 184 8 q 154 -5 164 -6 q 135 3 143 -5 q 127 20 126 10 q 132 41 127 31 q 146 66 136 51 q 212 149 171 103 l 248 186 q 166 394 166 277 q 234 595 166 511 l 186 638 q 168 654 178 646 l 148 669 q 110 692 125 684 q 81 729 79 707 q 89 748 81 740 q 106 756 96 757 q 126 751 116 755 q 151 737 136 747 q 186 711 165 728 l 235 671 l 272 635 q 490 718 363 718 q 711 623 618 718 l 751 668 q 766 687 758 677 l 781 707 q 804 745 796 728 q 842 775 820 777 q 861 767 852 774 q 869 749 869 760 q 864 729 868 739 q 850 704 859 719 q 784 621 831 673 l 746 581 q 804 412 804 498 q 690 157 804 252 q 804 67 779 79 q 834 7 861 39 q 804 0 822 -7 q 771 18 786 8 q 688 84 734 43 l 645 124 m 216 399 q 294 209 216 288 q 485 130 372 130 q 675 209 597 130 q 754 399 754 288 q 675 589 754 511 q 485 669 596 669 q 294 589 373 669 q 216 399 216 510 z "},"¥":{"ha":897,"x_min":21,"x_max":875,"o":"m 231 258 l 155 254 q 128 262 139 254 q 117 284 117 271 q 127 305 117 297 q 156 313 138 313 q 191 312 174 313 l 223 309 q 252 307 237 307 l 429 307 l 347 437 q 231 437 289 437 l 155 433 q 128 442 139 433 q 117 463 117 450 q 155 492 117 492 l 252 487 l 316 487 l 21 960 l 393 960 l 621 585 l 769 848 l 784 878 q 808 928 799 906 q 825 959 817 950 q 846 967 833 967 q 875 942 875 967 q 863 903 875 924 l 629 487 l 671 487 l 780 492 q 818 463 818 492 q 807 442 818 450 q 777 433 797 433 l 680 437 l 601 437 l 528 307 l 671 307 l 780 313 q 818 283 818 313 q 807 262 818 271 q 777 254 797 254 l 680 258 l 500 258 q 404 87 411 100 l 376 30 q 329 -7 359 -7 q 308 1 317 -7 q 298 20 298 9 q 315 61 298 41 q 382 159 349 100 l 437 258 q 231 258 334 258 z "},"¦":{"ha":311,"x_min":123,"x_max":186,"o":"m 184 557 l 186 490 q 176 461 186 471 q 153 452 166 452 q 131 461 139 452 q 123 481 123 470 q 127 513 123 494 q 132 619 132 538 l 132 823 q 130 892 132 874 l 127 917 q 127 933 127 924 q 154 967 127 967 q 176 959 165 967 q 186 931 186 951 l 184 845 l 184 557 m 184 -123 l 186 -191 q 176 -219 186 -210 q 153 -229 166 -229 q 131 -220 139 -229 q 123 -200 123 -211 q 125 -180 123 -189 l 129 -161 q 132 -62 132 -139 l 132 142 q 130 211 132 193 l 127 235 q 127 252 127 242 q 154 286 127 286 q 176 278 165 286 q 186 250 186 270 q 184 164 186 250 l 184 -123 z "},"§":{"ha":820,"x_min":127,"x_max":713,"o":"m 250 -68 q 198 -36 218 -54 q 178 -6 178 -19 q 205 24 178 24 q 244 1 218 24 q 401 -51 303 -51 q 485 -35 459 -51 q 526 19 526 -9 q 500 77 526 52 q 361 172 450 123 q 234 248 273 220 q 172 305 196 277 q 127 422 127 359 q 173 538 127 486 q 304 626 218 591 q 146 795 165 714 q 140 855 140 822 q 163 924 140 888 q 227 986 186 959 q 444 1046 317 1046 q 591 1013 523 1046 q 657 949 657 981 q 650 931 657 940 q 631 922 642 922 q 590 945 616 922 q 440 997 531 997 q 321 958 344 997 q 314 931 314 946 q 322 898 314 916 q 347 863 330 881 q 458 785 380 828 q 587 708 536 743 q 665 644 637 674 q 713 526 713 593 q 538 321 713 392 q 691 166 666 241 q 700 105 700 140 q 677 32 700 70 q 614 -35 654 -6 q 397 -100 526 -100 q 250 -68 321 -100 m 484 353 q 550 425 550 379 q 528 482 550 460 q 387 577 490 519 l 359 592 q 307 559 322 577 q 291 527 291 542 q 297 497 291 512 q 324 461 304 481 q 484 353 369 416 z "},"¨":{"ha":703,"x_min":62,"x_max":642,"o":"m 642 899 q 642 880 642 899 q 609 839 642 862 q 536 815 577 815 q 473 822 494 815 q 435 840 451 829 q 403 901 403 864 q 469 980 403 960 q 522 987 492 987 q 574 980 552 987 q 611 960 596 972 q 642 899 642 935 m 300 899 q 300 880 300 899 q 269 839 300 862 q 195 815 237 815 q 132 822 154 815 q 95 840 111 829 q 62 901 62 864 q 129 980 62 960 q 181 987 151 987 q 233 980 212 987 q 270 960 255 972 q 300 899 300 935 z "},"©":{"ha":884,"x_min":58,"x_max":825,"o":"m 439 299 q 281 329 351 299 q 160 408 210 358 q 58 671 58 513 q 163 937 58 831 q 443 1048 273 1048 q 723 939 614 1048 q 825 676 825 835 q 720 410 825 517 q 439 299 610 299 m 438 349 q 566 371 507 349 q 671 434 626 393 q 770 674 770 526 q 678 909 770 819 q 441 999 586 999 l 441 998 q 212 913 304 998 q 113 673 113 822 q 205 438 113 529 q 438 349 295 349 m 593 568 q 616 547 616 568 q 587 504 616 524 q 473 469 534 469 q 371 484 412 469 q 300 527 330 499 q 234 683 234 587 q 301 831 234 773 q 465 889 368 889 q 549 873 514 889 q 606 823 606 848 q 584 799 606 799 q 548 814 570 799 q 460 840 512 840 q 427 836 446 840 l 427 522 q 475 518 453 518 q 563 552 526 518 q 593 568 579 568 z "},"ª":{"ha":548,"x_min":50,"x_max":486,"o":"m 324 522 q 228 492 274 492 q 150 504 182 492 q 95 535 117 515 q 50 646 50 577 q 155 788 50 755 q 234 799 188 799 q 324 781 279 799 l 324 918 q 257 925 293 925 q 142 888 176 925 q 116 877 132 877 q 90 901 90 877 q 150 951 90 928 q 254 972 201 972 q 408 945 355 972 q 463 890 448 921 q 486 762 486 839 l 486 499 l 324 499 l 324 522 m 237 751 q 216 749 233 751 l 216 543 q 224 542 220 542 q 231 542 227 542 q 324 570 282 542 l 324 732 q 237 751 286 751 z "},"«":{"ha":695,"x_min":68,"x_max":627,"o":"m 359 474 q 502 604 452 551 q 562 666 552 656 q 578 680 571 675 q 598 688 587 688 q 618 681 610 688 q 627 662 627 673 q 619 640 627 650 q 589 614 610 630 q 541 574 568 597 l 489 529 l 456 497 q 427 471 440 482 l 608 335 l 608 36 l 359 258 l 359 474 m 68 474 q 211 604 161 551 q 271 666 261 656 q 286 680 280 675 q 308 688 296 688 q 328 681 319 688 q 336 662 336 673 q 328 640 336 650 q 298 614 319 630 q 250 574 277 597 l 198 529 l 165 497 q 136 471 149 482 l 317 335 l 317 36 l 68 258 l 68 474 z "},"¬":{"ha":731,"x_min":48,"x_max":658,"o":"m 123 356 l 88 353 q 58 363 68 353 q 48 385 48 373 q 57 405 48 396 q 81 413 65 413 q 163 408 81 413 l 604 408 q 644 395 637 408 q 652 368 652 382 l 652 286 q 655 181 652 199 q 658 153 658 163 q 650 135 658 143 q 628 126 642 126 q 606 136 615 126 q 597 157 597 146 q 599 181 598 168 q 601 206 600 194 q 602 264 602 232 l 602 357 q 194 357 398 357 l 123 356 z "},"­":{"ha":833,"x_min":0,"x_max":0,"o":""},"®":{"ha":884,"x_min":58,"x_max":825,"o":"m 439 299 q 281 329 351 299 q 160 408 210 358 q 58 671 58 513 q 163 937 58 831 q 443 1048 273 1048 q 723 939 614 1048 q 825 676 825 835 q 720 410 825 517 q 439 299 610 299 m 438 349 q 566 371 507 349 q 671 434 626 393 q 770 674 770 526 q 678 909 770 819 q 441 999 586 999 l 441 998 q 212 913 304 998 q 113 673 113 822 q 205 438 113 529 q 438 349 295 349 m 430 892 q 637 753 637 892 q 570 631 637 675 q 522 612 549 618 q 606 532 556 567 q 632 503 632 513 q 610 481 632 481 q 547 517 585 481 q 479 587 496 560 q 463 623 463 613 q 502 653 463 646 q 563 686 541 660 q 584 756 584 712 q 547 826 584 800 q 444 849 510 851 q 433 848 439 848 l 423 848 l 423 488 l 278 488 l 278 892 l 430 892 z "},"¯":{"ha":613,"x_min":62,"x_max":551,"o":"m 202 853 l 100 847 q 73 856 84 847 q 62 878 62 865 q 72 899 62 891 q 100 907 83 907 q 197 902 100 907 l 405 902 l 513 907 q 551 878 551 907 q 540 857 551 865 q 510 848 530 848 l 413 853 l 202 853 z "},"°":{"ha":411,"x_min":62,"x_max":349,"o":"m 205 698 q 149 708 175 698 q 103 735 123 718 q 62 836 62 774 q 103 932 62 894 q 207 972 144 972 q 308 935 269 972 q 349 836 349 897 q 307 736 349 775 q 205 698 264 698 m 270 770 q 283 781 270 770 q 296 822 296 793 q 290 868 296 852 q 271 897 283 885 q 204 923 245 923 q 149 905 168 923 q 115 835 115 873 q 142 772 115 798 q 197 747 169 747 q 270 770 243 747 z "},"±":{"ha":702,"x_min":66,"x_max":620,"o":"m 360 420 l 366 314 q 358 294 366 302 q 336 286 350 286 q 314 295 323 286 q 306 321 304 305 l 309 423 l 309 530 q 199 530 241 530 q 145 530 157 530 q 99 526 114 528 q 75 534 84 525 q 66 557 66 544 q 74 578 66 570 q 92 586 81 586 q 136 585 118 586 l 160 582 q 198 581 175 581 l 309 581 l 309 688 l 306 790 q 314 816 304 806 q 336 825 323 825 q 358 817 350 825 q 366 797 366 809 l 360 692 l 360 581 l 471 581 q 505 582 494 581 l 524 583 q 571 586 553 586 q 606 557 606 586 q 595 534 606 544 q 574 526 585 525 q 505 530 528 530 l 360 530 l 360 420 m 214 173 l 115 168 q 84 177 96 168 q 73 199 73 185 q 113 228 73 228 q 144 225 121 228 q 209 222 167 222 l 482 222 l 570 228 l 581 228 q 609 220 597 228 q 620 198 620 212 q 608 177 620 185 q 578 169 596 169 l 478 173 l 214 173 z "},"²":{"ha":546,"x_min":50,"x_max":484,"o":"m 454 494 q 484 470 484 494 q 418 442 484 442 l 50 442 q 77 532 54 487 q 170 689 115 608 l 244 800 q 288 888 288 865 q 216 927 288 927 q 123 899 162 927 q 101 875 111 890 q 78 861 90 861 q 60 868 66 861 q 55 883 55 875 q 101 935 55 908 q 232 972 164 972 q 339 961 299 972 q 408 932 380 950 q 467 838 467 894 q 456 768 467 797 q 402 662 438 723 l 355 580 q 312 488 325 528 l 384 488 q 426 491 414 488 q 454 494 444 494 z "},"³":{"ha":566,"x_min":37,"x_max":492,"o":"m 86 880 q 64 901 64 880 q 138 954 64 930 q 244 972 186 972 q 458 907 410 972 q 479 848 479 880 q 419 747 479 786 q 377 727 401 734 q 461 673 429 711 q 492 594 492 636 q 466 517 492 553 q 407 464 440 481 q 241 429 342 429 q 78 474 140 429 q 37 529 37 503 q 60 555 37 555 q 90 532 78 555 q 195 477 115 494 q 235 472 220 472 l 257 472 q 269 473 263 472 l 269 704 q 255 705 262 705 l 245 705 l 201 701 q 166 725 166 701 q 196 749 166 749 l 245 745 l 269 745 l 269 928 q 234 930 258 930 q 175 921 210 930 q 125 901 140 913 q 86 880 100 880 m 296 922 q 292 924 294 924 l 296 922 z "},"´":{"ha":394,"x_min":136,"x_max":407,"o":"m 216 1005 l 407 1005 l 242 812 l 136 812 l 216 1005 z "},"µ":{"ha":857,"x_min":150,"x_max":810,"o":"m 612 111 q 391 -7 532 -7 q 281 23 330 -7 q 205 104 233 53 l 205 -28 q 229 -145 205 -113 q 248 -165 237 -157 q 269 -201 269 -182 q 261 -221 269 -212 q 233 -229 252 -229 q 190 -206 213 -229 q 153 -17 153 -169 l 153 631 l 150 700 q 160 727 150 718 q 184 736 171 736 q 213 705 213 736 q 212 688 213 697 q 209 669 210 680 q 205 570 205 648 l 205 273 q 264 107 205 174 q 400 42 321 42 q 568 126 500 42 q 608 194 591 155 l 608 585 q 608 618 608 601 l 608 654 q 607 683 607 670 q 606 706 606 695 q 616 727 606 718 q 640 736 627 736 q 662 728 654 736 q 669 708 669 719 q 667 688 669 697 q 663 669 665 680 q 661 570 661 648 l 661 174 q 708 49 661 72 q 732 43 722 43 q 764 50 752 43 q 804 51 789 66 q 810 30 810 44 q 790 4 810 16 q 738 -7 770 -7 q 612 111 631 -7 z "},"¶":{"ha":738,"x_min":61,"x_max":686,"o":"m 450 217 q 255 -62 450 -62 q 188 -48 212 -62 q 163 -22 163 -35 q 186 4 163 4 q 212 -3 197 4 q 263 -13 237 -13 q 397 223 397 -13 l 397 471 q 154 542 248 472 q 61 720 61 612 q 404 972 61 972 l 566 972 l 650 975 q 686 948 686 975 q 648 920 686 920 l 582 922 l 568 922 l 568 155 q 572 48 568 71 q 576 19 576 26 q 547 -13 576 -13 q 524 -3 534 -13 q 513 24 513 7 l 515 94 l 515 922 l 450 922 l 450 217 z "},"·":{"ha":464,"x_min":66,"x_max":382,"o":"m 220 351 q 154 361 183 351 q 106 391 125 372 q 66 496 66 430 q 111 591 66 551 q 225 633 157 633 q 342 587 297 633 q 382 486 382 544 q 336 390 382 429 q 220 351 289 351 z "},"¸":{"ha":440,"x_min":62,"x_max":378,"o":"m 232 -47 q 378 -132 378 -50 q 290 -221 378 -196 q 231 -229 261 -229 q 81 -192 128 -229 q 62 -163 62 -176 q 89 -134 62 -134 q 118 -146 103 -134 q 144 -164 132 -159 q 170 -172 155 -169 q 237 -180 196 -180 q 302 -165 278 -180 q 327 -135 327 -151 q 301 -109 327 -120 q 237 -96 276 -97 q 189 -88 198 -96 q 179 -59 179 -81 l 179 14 l 232 14 l 232 -47 z "},"¹":{"ha":435,"x_min":13,"x_max":354,"o":"m 39 840 q 13 862 13 840 q 19 878 13 871 q 36 889 24 885 q 56 897 47 894 q 96 907 83 904 l 354 972 l 354 442 l 125 442 l 125 867 l 110 863 q 84 854 92 857 q 66 847 75 850 q 39 840 48 840 z "},"º":{"ha":542,"x_min":41,"x_max":499,"o":"m 270 486 q 187 501 228 486 q 114 548 146 517 q 41 734 41 618 q 113 910 41 842 q 273 972 178 972 q 431 909 367 972 q 499 730 499 842 q 427 547 499 616 q 270 486 362 486 m 272 535 q 391 585 343 535 q 444 729 444 638 q 389 876 444 822 q 271 924 342 924 l 266 924 q 260 923 264 924 l 260 535 l 272 535 z "},"»":{"ha":695,"x_min":68,"x_max":627,"o":"m 385 36 q 380 36 385 36 q 368 43 376 36 q 359 62 359 50 q 367 84 359 74 q 397 110 376 94 q 445 149 418 126 l 497 195 q 530 227 497 195 q 559 253 546 241 l 378 389 l 378 688 l 627 466 l 627 250 q 539 173 563 195 l 449 83 q 401 38 410 41 q 385 36 393 36 m 94 36 q 90 36 94 36 q 77 43 85 36 q 68 62 68 50 q 76 84 68 74 q 106 110 85 94 q 154 149 127 126 l 206 195 l 239 227 q 269 253 255 241 l 87 389 l 87 688 l 336 466 l 336 250 q 248 173 272 195 l 158 83 q 111 38 119 41 q 94 36 102 36 z "},"¼":{"ha":1189,"x_min":37,"x_max":1133,"o":"m 242 -13 q 237 -13 242 -13 q 223 -5 231 -13 q 216 16 216 3 q 240 61 216 34 q 315 162 277 104 l 766 865 q 789 905 780 886 q 806 939 798 924 q 840 972 823 972 q 873 947 873 972 q 859 909 873 928 q 825 861 835 876 l 307 46 q 264 -7 276 -1 q 242 -13 253 -13 m 64 840 q 37 862 37 840 q 43 878 37 871 q 60 889 49 885 q 80 897 72 894 q 120 907 108 904 l 378 972 l 378 442 l 149 442 l 149 867 l 134 863 q 108 854 117 857 q 91 847 100 850 q 64 840 73 840 m 600 106 q 574 113 583 106 q 566 127 566 120 q 567 139 566 134 q 571 151 568 144 q 595 193 578 165 l 808 530 l 1031 530 l 1031 149 q 1078 151 1070 149 q 1106 154 1094 154 q 1133 134 1133 154 q 1072 106 1133 107 q 1036 106 1055 106 l 1031 106 l 1031 0 l 800 0 l 800 106 l 600 106 m 633 164 q 628 153 628 157 q 636 149 628 149 l 800 149 l 800 426 l 633 164 z "},"½":{"ha":1150,"x_min":37,"x_max":1088,"o":"m 239 -13 q 234 -13 239 -13 q 221 -5 229 -13 q 213 13 213 3 q 215 28 213 22 q 220 39 216 33 q 245 70 228 52 q 311 162 272 100 l 763 865 q 786 905 777 886 q 802 939 795 924 q 818 962 810 953 q 840 972 827 972 q 869 947 869 972 q 856 909 869 929 l 770 780 l 303 46 q 261 -7 273 -1 q 239 -13 250 -13 m 64 840 q 37 862 37 840 q 43 878 37 871 q 60 889 49 885 q 80 897 72 894 q 120 907 108 904 l 378 972 l 378 442 l 149 442 l 149 867 l 134 863 q 108 854 117 857 q 91 847 100 850 q 64 840 73 840 m 1058 52 q 1088 28 1088 52 q 1021 0 1088 0 l 653 0 q 680 90 657 45 q 773 247 718 166 l 848 357 q 891 446 891 423 q 820 485 891 485 q 727 457 766 485 q 704 433 715 448 q 682 418 694 418 q 664 426 669 418 q 659 441 659 433 q 705 492 659 466 q 835 530 768 530 q 943 519 903 530 q 1012 490 983 508 q 1071 396 1071 452 q 1059 326 1071 355 q 1006 220 1042 281 l 958 138 q 916 46 928 85 l 987 46 q 1029 49 1018 46 q 1058 52 1048 52 z "},"¾":{"ha":1227,"x_min":37,"x_max":1172,"o":"m 292 -13 q 287 -13 292 -13 q 274 -5 281 -13 q 267 13 267 3 q 268 28 267 22 q 274 39 270 33 q 298 70 281 52 q 366 162 330 106 l 817 865 q 840 905 830 886 l 856 938 q 872 962 863 953 q 894 972 880 972 q 924 947 924 972 q 910 909 924 928 l 890 881 q 875 859 884 872 l 357 46 q 314 -7 326 -1 q 292 -13 302 -13 m 86 880 q 64 901 64 880 q 138 954 64 930 q 244 972 186 972 q 458 907 410 972 q 479 848 479 880 q 419 747 479 786 q 377 727 401 734 q 461 673 429 711 q 492 594 492 636 q 466 517 492 553 q 407 464 440 481 q 241 429 342 429 q 78 474 140 429 q 37 529 37 503 q 60 555 37 555 q 90 532 78 555 q 195 477 115 494 q 235 472 220 472 l 257 472 q 269 473 263 472 l 269 704 q 255 705 262 705 l 245 705 l 201 701 q 166 725 166 701 q 196 749 166 749 l 245 745 l 269 745 l 269 928 q 234 930 258 930 q 175 921 210 930 q 125 901 140 913 q 86 880 100 880 m 296 922 q 292 924 294 924 l 296 922 m 640 106 q 613 113 622 106 q 604 127 604 120 q 605 139 604 134 q 609 151 606 144 q 618 168 612 158 l 847 530 l 1070 530 l 1070 149 q 1116 151 1107 149 q 1144 154 1133 154 q 1172 134 1172 154 q 1109 106 1172 107 q 1074 106 1093 106 l 1070 106 l 1070 0 l 838 0 l 838 106 l 640 106 m 671 164 q 666 153 666 157 q 675 149 666 149 l 838 149 l 838 428 l 671 164 z "},"¿":{"ha":628,"x_min":103,"x_max":546,"o":"m 317 602 q 215 634 253 602 q 176 724 176 667 q 213 808 176 775 q 313 840 250 840 q 416 806 376 840 q 453 725 453 774 q 377 612 453 641 q 317 602 351 602 m 354 438 q 354 427 354 438 q 409 347 354 416 q 505 198 465 278 q 546 63 546 119 q 529 -29 546 7 q 479 -91 511 -65 q 303 -144 412 -144 q 193 -131 235 -144 q 127 -97 151 -117 q 103 -62 103 -77 q 127 -34 103 -34 q 167 -55 144 -34 q 269 -95 210 -95 q 298 -86 288 -95 q 309 -66 309 -78 q 304 -41 309 -55 q 289 -8 300 -27 q 228 78 267 31 q 170 155 190 125 q 138 211 151 184 q 115 311 115 261 q 136 400 115 361 q 191 464 157 438 q 356 513 260 516 q 446 494 412 512 q 506 439 506 461 q 485 416 506 416 q 446 433 468 416 q 383 459 412 459 q 354 438 354 459 z "},"À":{"ha":919,"x_min":6,"x_max":889,"o":"m 290 121 q 120 123 165 121 l 100 76 q 84 35 92 56 q 41 -7 68 -7 q 20 1 28 -7 q 12 18 12 9 q 24 51 12 33 q 64 125 45 79 q 6 159 6 131 q 39 188 6 188 q 87 181 60 188 l 425 1003 l 889 0 l 536 0 l 479 121 l 290 121 m 142 176 q 258 170 207 170 l 457 170 l 288 536 l 142 176 m 188 1153 l 378 1153 l 458 960 l 353 960 l 188 1153 z "},"Á":{"ha":919,"x_min":6,"x_max":889,"o":"m 290 121 q 120 123 165 121 l 100 76 q 84 35 92 56 q 41 -7 68 -7 q 20 1 28 -7 q 12 18 12 9 q 24 51 12 33 q 64 125 45 79 q 6 159 6 131 q 39 188 6 188 q 87 181 60 188 l 425 1003 l 889 0 l 536 0 l 479 121 l 290 121 m 142 176 q 258 170 207 170 l 457 170 l 288 536 l 142 176 m 520 1229 l 710 1229 l 545 1036 l 440 1036 l 520 1229 z "},"Â":{"ha":919,"x_min":6,"x_max":889,"o":"m 290 121 q 120 123 165 121 l 100 76 q 84 35 92 56 q 41 -7 68 -7 q 20 1 28 -7 q 12 18 12 9 q 24 51 12 33 q 64 125 45 79 q 6 159 6 131 q 39 188 6 188 q 87 181 60 188 l 425 1003 l 889 0 l 536 0 l 479 121 l 290 121 m 142 176 q 258 170 207 170 l 457 170 l 288 536 l 142 176 m 284 1067 l 264 1047 q 237 1032 249 1032 q 219 1039 226 1032 q 212 1056 212 1046 q 239 1097 212 1074 q 262 1118 248 1106 q 301 1156 275 1130 l 376 1230 l 549 1230 l 727 1038 l 518 1038 l 396 1183 q 300 1085 311 1097 q 284 1067 290 1073 z "},"Ã":{"ha":919,"x_min":6,"x_max":889,"o":"m 290 121 q 120 123 165 121 l 100 76 q 84 35 92 56 q 41 -7 68 -7 q 20 1 28 -7 q 12 18 12 9 q 24 51 12 33 q 64 125 45 79 q 6 159 6 131 q 39 188 6 188 q 87 181 60 188 l 425 1003 l 889 0 l 536 0 l 479 121 l 290 121 m 142 176 q 258 170 207 170 l 457 170 l 288 536 l 142 176 m 247 1047 q 245 1046 247 1047 q 234 1044 242 1044 q 217 1054 225 1044 q 210 1085 210 1063 q 223 1136 210 1107 q 260 1190 237 1166 q 382 1242 313 1242 q 511 1186 439 1242 l 546 1159 q 597 1130 585 1130 q 620 1147 609 1130 q 636 1191 631 1164 q 645 1227 640 1218 q 661 1236 650 1236 q 681 1226 673 1236 q 688 1195 688 1216 q 675 1144 688 1173 q 637 1090 661 1114 q 516 1038 585 1038 q 389 1090 463 1038 l 340 1127 q 309 1144 319 1144 q 291 1140 298 1144 q 277 1127 284 1135 q 259 1092 262 1110 l 255 1066 q 247 1047 252 1050 z "},"Ä":{"ha":919,"x_min":6,"x_max":889,"o":"m 290 121 q 120 123 165 121 l 100 76 q 84 35 92 56 q 41 -7 68 -7 q 20 1 28 -7 q 12 18 12 9 q 24 51 12 33 q 64 125 45 79 q 6 159 6 131 q 39 188 6 188 q 87 181 60 188 l 425 1003 l 889 0 l 536 0 l 479 121 l 290 121 m 142 176 q 258 170 207 170 l 457 170 l 288 536 l 142 176 m 730 1121 q 730 1103 730 1121 q 698 1061 730 1084 q 625 1038 666 1038 q 562 1044 583 1038 q 524 1063 540 1051 q 492 1124 492 1086 q 558 1202 492 1183 q 611 1209 581 1209 q 663 1202 641 1209 q 700 1183 685 1195 q 730 1121 730 1158 m 389 1121 q 389 1103 389 1121 q 357 1061 389 1084 q 284 1038 326 1038 q 221 1044 243 1038 q 184 1063 199 1051 q 151 1124 151 1086 q 218 1202 151 1183 q 270 1209 240 1209 q 322 1202 300 1209 q 359 1183 344 1195 q 389 1121 389 1158 z "},"Å":{"ha":919,"x_min":6,"x_max":889,"o":"m 290 121 q 120 123 165 121 l 100 76 q 84 35 92 56 q 41 -7 68 -7 q 20 1 28 -7 q 12 18 12 9 q 24 51 12 33 q 64 125 45 79 q 6 159 6 131 q 39 188 6 188 q 87 181 60 188 l 425 1003 l 889 0 l 536 0 l 479 121 l 290 121 m 142 176 q 258 170 207 170 l 457 170 l 288 536 l 142 176 m 443 1038 q 368 1066 398 1038 q 337 1141 337 1094 q 401 1235 337 1208 q 444 1243 421 1243 q 486 1236 467 1243 q 519 1215 505 1228 q 549 1141 549 1186 q 518 1066 549 1095 q 443 1038 488 1038 m 405 1102 q 409 1098 405 1102 q 422 1090 412 1095 q 449 1086 432 1086 q 482 1101 466 1086 q 498 1139 498 1116 q 483 1178 498 1163 q 443 1193 467 1193 q 404 1178 419 1193 q 389 1146 389 1163 q 393 1119 389 1129 q 405 1102 397 1109 z "},"Æ":{"ha":1117,"x_min":1,"x_max":1055,"o":"m 284 121 q 114 123 160 121 l 94 76 q 77 35 85 56 q 35 -7 62 -7 q 14 1 22 -7 q 5 18 5 9 q 19 51 5 33 q 58 125 41 83 q 1 159 1 131 q 34 188 1 188 q 81 181 54 188 l 414 960 l 414 959 l 414 960 q 949 960 682 960 q 1004 962 949 960 q 1055 932 1055 962 q 1047 910 1055 920 q 1027 901 1038 901 q 990 905 1009 901 q 910 911 961 911 l 760 911 l 760 704 l 884 704 l 967 707 q 992 700 982 707 q 1003 680 1003 693 q 965 652 1003 652 l 936 652 q 899 654 913 654 l 760 654 l 760 50 l 910 50 q 981 54 960 50 q 1021 58 1006 58 q 1055 31 1055 58 q 1040 9 1055 19 q 989 0 1025 0 l 414 0 l 414 121 l 284 121 m 136 176 q 253 170 201 170 l 414 170 l 414 825 l 414 825 l 136 176 z "},"Ç":{"ha":974,"x_min":60,"x_max":926,"o":"m 615 -47 q 762 -132 762 -50 q 673 -221 762 -196 q 614 -229 644 -229 q 465 -192 511 -229 q 445 -163 445 -176 q 472 -134 445 -134 q 500 -146 486 -134 q 527 -164 515 -159 q 552 -172 538 -169 q 620 -180 579 -180 q 686 -165 661 -180 q 710 -135 710 -151 q 685 -109 710 -120 q 620 -96 659 -97 q 572 -88 581 -96 q 562 -59 562 -81 l 562 -12 q 197 133 335 -7 q 60 488 60 271 q 100 684 60 595 q 210 837 140 773 q 585 972 359 972 q 808 928 712 972 q 911 851 911 883 q 902 829 911 838 q 883 819 894 819 q 844 839 861 819 q 796 873 826 858 q 730 901 766 889 q 596 923 656 923 q 497 915 536 923 l 497 45 q 581 37 545 37 q 656 42 618 37 q 730 58 694 47 q 854 130 812 82 q 878 154 869 147 q 898 161 886 161 q 926 130 926 161 q 886 78 926 104 q 767 16 813 30 q 615 -12 686 -7 l 615 -47 z "},"È":{"ha":811,"x_min":109,"x_max":749,"o":"m 715 58 q 749 31 749 58 q 734 9 749 19 q 683 0 720 0 l 109 0 l 109 960 q 643 960 376 960 l 699 962 q 749 932 749 962 q 741 910 749 920 q 722 901 732 901 q 684 905 704 901 q 604 911 655 911 l 454 911 l 454 704 l 578 704 q 661 707 578 704 q 687 700 676 707 q 697 680 697 693 q 659 652 697 652 l 630 652 q 593 654 608 654 l 454 654 l 454 50 l 604 50 q 675 54 654 50 q 715 58 701 58 m 193 1153 l 384 1153 l 463 960 l 359 960 l 193 1153 z "},"É":{"ha":811,"x_min":109,"x_max":749,"o":"m 715 58 q 749 31 749 58 q 734 9 749 19 q 683 0 720 0 l 109 0 l 109 960 q 643 960 376 960 l 699 962 q 749 932 749 962 q 741 910 749 920 q 722 901 732 901 q 684 905 704 901 q 604 911 655 911 l 454 911 l 454 704 l 578 704 q 661 707 578 704 q 687 700 676 707 q 697 680 697 693 q 659 652 697 652 l 630 652 q 593 654 608 654 l 454 654 l 454 50 l 604 50 q 675 54 654 50 q 715 58 701 58 m 526 1229 l 715 1229 l 551 1036 l 446 1036 l 526 1229 z "},"Ê":{"ha":811,"x_min":109,"x_max":749,"o":"m 715 58 q 749 31 749 58 q 734 9 749 19 q 683 0 720 0 l 109 0 l 109 960 q 643 960 376 960 l 699 962 q 749 932 749 962 q 741 910 749 920 q 722 901 732 901 q 684 905 704 901 q 604 911 655 911 l 454 911 l 454 704 l 578 704 q 661 707 578 704 q 687 700 676 707 q 697 680 697 693 q 659 652 697 652 l 630 652 q 593 654 608 654 l 454 654 l 454 50 l 604 50 q 675 54 654 50 q 715 58 701 58 m 290 1067 l 269 1047 q 243 1032 254 1032 q 224 1039 231 1032 q 217 1056 217 1046 q 245 1097 217 1074 q 267 1118 254 1106 q 307 1156 281 1130 l 381 1230 l 554 1230 l 732 1038 l 524 1038 l 401 1183 q 306 1085 317 1097 q 290 1067 295 1073 z "},"Ë":{"ha":811,"x_min":109,"x_max":749,"o":"m 715 58 q 749 31 749 58 q 734 9 749 19 q 683 0 720 0 l 109 0 l 109 960 q 643 960 376 960 l 699 962 q 749 932 749 962 q 741 910 749 920 q 722 901 732 901 q 684 905 704 901 q 604 911 655 911 l 454 911 l 454 704 l 578 704 q 661 707 578 704 q 687 700 676 707 q 697 680 697 693 q 659 652 697 652 l 630 652 q 593 654 608 654 l 454 654 l 454 50 l 604 50 q 675 54 654 50 q 715 58 701 58 m 736 1121 q 736 1103 736 1121 q 704 1061 736 1084 q 630 1038 671 1038 q 567 1044 589 1038 q 530 1063 545 1051 q 497 1124 497 1086 q 564 1202 497 1183 q 616 1209 587 1209 q 668 1202 646 1209 q 705 1183 690 1195 q 736 1121 736 1158 m 395 1121 q 395 1103 395 1121 q 363 1061 395 1084 q 290 1038 331 1038 q 227 1044 248 1038 q 189 1063 205 1051 q 156 1124 156 1086 q 223 1202 156 1183 q 276 1209 245 1209 q 328 1202 306 1209 q 364 1183 349 1195 q 395 1121 395 1158 z "},"Ì":{"ha":562,"x_min":31,"x_max":454,"o":"m 109 960 l 454 960 l 454 0 l 109 0 l 109 960 m 31 1153 l 222 1153 l 301 960 l 197 960 l 31 1153 z "},"Í":{"ha":562,"x_min":109,"x_max":553,"o":"m 109 960 l 454 960 l 454 0 l 109 0 l 109 960 m 363 1229 l 553 1229 l 389 1036 l 283 1036 l 363 1229 z "},"Î":{"ha":562,"x_min":56,"x_max":571,"o":"m 109 960 l 454 960 l 454 0 l 109 0 l 109 960 m 128 1067 l 108 1047 q 81 1032 93 1032 q 63 1039 70 1032 q 56 1056 56 1046 q 83 1097 56 1074 q 106 1118 92 1106 q 145 1156 119 1130 l 220 1230 l 393 1230 l 571 1038 l 362 1038 l 240 1183 q 144 1085 155 1097 q 128 1067 134 1073 z "},"Ï":{"ha":562,"x_min":-5,"x_max":574,"o":"m 109 960 l 454 960 l 454 0 l 109 0 l 109 960 m 574 1121 q 574 1103 574 1121 q 542 1061 574 1084 q 469 1038 510 1038 q 406 1044 427 1038 q 368 1063 384 1051 q 336 1124 336 1086 q 402 1202 336 1183 q 455 1209 425 1209 q 507 1202 485 1209 q 544 1183 529 1195 q 574 1121 574 1158 m 233 1121 q 233 1103 233 1121 q 201 1061 233 1084 q 128 1038 170 1038 q 65 1044 87 1038 q 28 1063 43 1051 q -5 1124 -5 1086 q 62 1202 -5 1183 q 114 1209 84 1209 q 166 1202 144 1209 q 203 1183 188 1195 q 233 1121 233 1158 z "},"Ð":{"ha":1070,"x_min":-1,"x_max":1010,"o":"m 30 525 l 120 519 l 120 960 l 402 960 q 692 932 600 960 q 854 848 797 899 q 944 743 911 798 q 1010 492 1010 633 q 852 134 1010 271 q 587 13 739 36 q 349 0 502 0 l 120 0 l 120 469 q 79 468 100 468 l 37 465 q 10 474 21 464 q -1 496 -1 484 q 8 517 -1 509 q 30 525 18 525 m 466 56 q 486 56 477 56 l 501 56 q 815 170 685 56 q 953 491 953 291 q 892 718 953 617 q 616 897 805 865 q 466 908 554 907 l 466 519 l 534 519 q 596 522 581 519 q 636 525 622 525 q 661 517 651 525 q 671 496 671 509 q 661 473 671 482 q 632 466 651 465 l 590 468 q 530 469 560 469 l 466 469 l 466 56 z "},"Ñ":{"ha":1041,"x_min":120,"x_max":921,"o":"m 181 97 l 183 29 q 174 2 183 12 q 151 -7 164 -7 q 129 1 138 -7 q 120 21 120 10 q 122 40 120 31 q 125 61 123 50 q 128 159 128 81 l 128 1003 l 865 418 l 865 823 q 863 888 865 869 q 859 933 859 920 q 888 967 859 967 q 910 959 900 967 q 921 935 921 951 l 921 911 l 918 813 l 918 -37 l 181 541 l 181 97 m 354 1047 q 352 1046 354 1047 q 341 1044 349 1044 q 325 1054 332 1044 q 317 1085 317 1063 q 330 1136 317 1107 q 368 1190 344 1166 q 489 1242 420 1242 q 618 1186 546 1242 l 653 1159 q 704 1130 692 1130 q 727 1147 716 1130 q 743 1191 739 1164 q 752 1227 747 1218 q 768 1236 757 1236 q 788 1226 780 1236 q 795 1195 795 1216 q 782 1144 795 1173 q 745 1090 768 1114 q 623 1038 692 1038 q 496 1090 570 1038 l 448 1127 q 416 1144 426 1144 q 398 1140 406 1144 q 385 1127 391 1135 q 366 1092 370 1110 l 362 1066 q 354 1047 359 1050 z "},"Ò":{"ha":1135,"x_min":74,"x_max":1061,"o":"m 220 122 q 187 155 220 122 q 114 281 153 188 q 74 485 74 374 q 112 683 74 595 q 216 835 149 770 q 573 972 358 972 q 923 837 787 972 q 1061 481 1061 700 q 920 123 1061 264 q 701 3 831 37 q 552 -13 637 -13 q 377 22 467 -13 q 220 122 288 57 m 572 922 q 503 917 535 922 l 503 42 q 572 37 534 37 q 878 157 753 37 q 1007 481 1007 283 q 886 796 1007 671 q 572 922 763 922 m 315 1153 l 505 1153 l 585 960 l 480 960 l 315 1153 z "},"Ó":{"ha":1135,"x_min":74,"x_max":1061,"o":"m 220 122 q 187 155 220 122 q 114 281 153 188 q 74 485 74 374 q 112 683 74 595 q 216 835 149 770 q 573 972 358 972 q 923 837 787 972 q 1061 481 1061 700 q 920 123 1061 264 q 701 3 831 37 q 552 -13 637 -13 q 377 22 467 -13 q 220 122 288 57 m 572 922 q 503 917 535 922 l 503 42 q 572 37 534 37 q 878 157 753 37 q 1007 481 1007 283 q 886 796 1007 671 q 572 922 763 922 m 647 1229 l 837 1229 l 672 1036 l 567 1036 l 647 1229 z "},"Ô":{"ha":1135,"x_min":74,"x_max":1061,"o":"m 220 122 q 187 155 220 122 q 114 281 153 188 q 74 485 74 374 q 112 683 74 595 q 216 835 149 770 q 573 972 358 972 q 923 837 787 972 q 1061 481 1061 700 q 920 123 1061 264 q 701 3 831 37 q 552 -13 637 -13 q 377 22 467 -13 q 220 122 288 57 m 572 922 q 503 917 535 922 l 503 42 q 572 37 534 37 q 878 157 753 37 q 1007 481 1007 283 q 886 796 1007 671 q 572 922 763 922 m 411 1067 l 391 1047 q 364 1032 376 1032 q 346 1039 353 1032 q 338 1056 338 1046 q 366 1097 338 1074 q 389 1118 375 1106 q 428 1156 402 1130 l 503 1230 l 675 1230 l 854 1038 l 645 1038 l 523 1183 q 427 1085 438 1097 q 411 1067 416 1073 z "},"Õ":{"ha":1135,"x_min":74,"x_max":1061,"o":"m 220 122 q 187 155 220 122 q 114 281 153 188 q 74 485 74 374 q 112 683 74 595 q 216 835 149 770 q 573 972 358 972 q 923 837 787 972 q 1061 481 1061 700 q 920 123 1061 264 q 701 3 831 37 q 552 -13 637 -13 q 377 22 467 -13 q 220 122 288 57 m 572 922 q 503 917 535 922 l 503 42 q 572 37 534 37 q 878 157 753 37 q 1007 481 1007 283 q 886 796 1007 671 q 572 922 763 922 m 374 1047 q 371 1046 374 1047 q 360 1044 369 1044 q 344 1054 352 1044 q 336 1085 336 1063 q 350 1136 336 1107 q 387 1190 363 1166 q 509 1242 440 1242 q 637 1186 566 1242 l 673 1159 q 724 1130 711 1130 q 747 1147 736 1130 q 763 1191 758 1164 q 772 1227 767 1218 q 788 1236 777 1236 q 807 1226 800 1236 q 815 1195 815 1216 q 802 1144 815 1173 q 764 1090 788 1114 q 643 1038 711 1038 q 516 1090 589 1038 l 467 1127 q 435 1144 446 1144 q 418 1140 425 1144 q 404 1127 411 1135 q 386 1092 389 1110 l 382 1066 q 374 1047 379 1050 z "},"Ö":{"ha":1135,"x_min":74,"x_max":1061,"o":"m 220 122 q 187 155 220 122 q 114 281 153 188 q 74 485 74 374 q 112 683 74 595 q 216 835 149 770 q 573 972 358 972 q 923 837 787 972 q 1061 481 1061 700 q 920 123 1061 264 q 701 3 831 37 q 552 -13 637 -13 q 377 22 467 -13 q 220 122 288 57 m 572 922 q 503 917 535 922 l 503 42 q 572 37 534 37 q 878 157 753 37 q 1007 481 1007 283 q 886 796 1007 671 q 572 922 763 922 m 857 1121 q 857 1103 857 1121 q 825 1061 857 1084 q 751 1038 793 1038 q 688 1044 710 1038 q 651 1063 667 1051 q 618 1124 618 1086 q 685 1202 618 1183 q 738 1209 708 1209 q 790 1202 768 1209 q 827 1183 812 1195 q 857 1121 857 1158 m 516 1121 q 516 1103 516 1121 q 484 1061 516 1084 q 411 1038 452 1038 q 348 1044 370 1038 q 311 1063 326 1051 q 277 1124 277 1086 q 345 1202 277 1183 q 397 1209 367 1209 q 449 1202 427 1209 q 486 1183 471 1195 q 516 1121 516 1158 z "},"×":{"ha":600,"x_min":72,"x_max":522,"o":"m 79 578 q 106 604 79 604 q 152 569 126 604 q 160 559 154 566 l 189 528 q 204 513 197 519 l 298 418 q 386 506 355 475 q 422 543 418 538 q 432 554 427 548 q 449 575 437 560 q 489 604 472 604 q 519 578 519 604 q 490 535 519 557 l 464 513 q 430 479 450 500 l 332 382 l 435 280 q 458 257 450 264 l 485 235 q 519 199 517 209 q 522 181 522 189 q 515 165 522 172 q 496 159 507 159 q 463 178 479 159 q 433 212 448 197 l 297 348 l 163 213 q 131 177 146 195 q 96 159 115 159 q 72 186 72 159 q 108 233 72 208 q 120 244 115 239 q 132 253 126 248 q 143 264 137 258 l 262 382 l 132 513 q 104 537 115 530 q 79 578 79 559 z "},"Ø":{"ha":1135,"x_min":74,"x_max":1061,"o":"m 848 880 q 888 948 871 917 l 918 1002 q 955 1054 945 1052 q 975 1052 964 1056 q 988 1036 985 1047 q 976 996 992 1019 q 951 958 959 972 q 933 926 943 944 l 893 849 l 848 880 m 276 -146 q 283 -80 245 -128 q 298 -58 289 -74 l 370 69 l 408 25 l 342 -96 q 299 -149 313 -146 q 276 -146 286 -153 m 220 122 q 187 155 220 122 q 114 281 153 188 q 74 485 74 374 q 112 683 74 595 q 216 835 149 770 q 573 972 358 972 q 923 837 787 972 q 1061 481 1061 700 q 920 123 1061 264 q 701 3 831 37 q 552 -13 637 -13 q 377 22 467 -13 q 220 122 288 57 m 572 922 q 503 917 535 922 l 503 42 q 572 37 534 37 q 878 157 753 37 q 1007 481 1007 283 q 886 796 1007 671 q 572 922 763 922 z "},"Ù":{"ha":1065,"x_min":99,"x_max":966,"o":"m 966 931 l 962 847 l 962 441 q 846 115 962 241 q 533 -13 728 -13 q 208 118 324 -13 q 99 426 99 238 l 99 960 l 446 960 l 446 45 q 561 37 498 37 q 688 62 623 37 q 802 141 753 87 q 909 478 907 256 l 909 846 q 906 894 909 866 q 903 932 903 922 q 936 967 903 967 q 966 931 966 967 m 321 1153 l 511 1153 l 591 960 l 486 960 l 321 1153 z "},"Ú":{"ha":1065,"x_min":99,"x_max":966,"o":"m 966 931 l 962 847 l 962 441 q 846 115 962 241 q 533 -13 728 -13 q 208 118 324 -13 q 99 426 99 238 l 99 960 l 446 960 l 446 45 q 561 37 498 37 q 688 62 623 37 q 802 141 753 87 q 909 478 907 256 l 909 846 q 906 894 909 866 q 903 932 903 922 q 936 967 903 967 q 966 931 966 967 m 653 1229 l 843 1229 l 678 1036 l 573 1036 l 653 1229 z "},"Û":{"ha":1065,"x_min":99,"x_max":966,"o":"m 966 931 l 962 847 l 962 441 q 846 115 962 241 q 533 -13 728 -13 q 208 118 324 -13 q 99 426 99 238 l 99 960 l 446 960 l 446 45 q 561 37 498 37 q 688 62 623 37 q 802 141 753 87 q 909 478 907 256 l 909 846 q 906 894 909 866 q 903 932 903 922 q 936 967 903 967 q 966 931 966 967 m 417 1067 l 397 1047 q 370 1032 382 1032 q 352 1039 359 1032 q 345 1056 345 1046 q 372 1097 345 1074 q 395 1118 381 1106 q 434 1156 408 1130 l 509 1230 l 682 1230 l 860 1038 l 651 1038 l 529 1183 q 433 1085 444 1097 q 417 1067 422 1073 z "},"Ü":{"ha":1065,"x_min":99,"x_max":966,"o":"m 966 931 l 962 847 l 962 441 q 846 115 962 241 q 533 -13 728 -13 q 208 118 324 -13 q 99 426 99 238 l 99 960 l 446 960 l 446 45 q 561 37 498 37 q 688 62 623 37 q 802 141 753 87 q 909 478 907 256 l 909 846 q 906 894 909 866 q 903 932 903 922 q 936 967 903 967 q 966 931 966 967 m 863 1121 q 863 1103 863 1121 q 831 1061 863 1084 q 758 1038 799 1038 q 694 1044 716 1038 q 657 1063 673 1051 q 625 1124 625 1086 q 691 1202 625 1183 q 744 1209 714 1209 q 796 1202 774 1209 q 833 1183 818 1195 q 863 1121 863 1158 m 522 1121 q 522 1103 522 1121 q 490 1061 522 1084 q 417 1038 458 1038 q 354 1044 376 1038 q 317 1063 332 1051 q 283 1124 283 1086 q 351 1202 283 1183 q 403 1209 373 1209 q 455 1202 433 1209 q 492 1183 477 1195 q 522 1121 522 1158 z "},"Ý":{"ha":895,"x_min":14,"x_max":873,"o":"m 374 28 q 327 -7 356 -7 q 298 22 298 -7 q 315 62 298 41 q 382 159 351 104 l 417 221 l 14 960 l 410 960 l 604 551 l 777 859 q 810 931 796 895 q 846 967 823 967 q 873 939 873 967 q 861 902 873 923 l 397 75 q 385 52 390 61 l 374 28 m 625 1229 l 814 1229 l 650 1036 l 545 1036 l 625 1229 z "},"Þ":{"ha":1034,"x_min":109,"x_max":996,"o":"m 574 194 l 634 191 q 853 270 766 191 q 943 475 943 350 q 837 701 943 632 q 528 767 733 767 l 454 767 l 454 0 l 109 0 l 109 960 l 454 960 l 454 818 q 660 810 621 816 q 745 795 699 804 q 843 757 791 786 q 928 688 895 728 q 996 492 996 608 q 908 258 996 352 q 625 135 806 149 q 594 134 608 134 q 534 167 534 134 q 545 186 534 179 q 574 194 555 194 z "},"ß":{"ha":996,"x_min":109,"x_max":935,"o":"m 614 893 q 601 902 614 893 q 551 920 589 910 q 475 930 513 930 q 399 919 437 930 l 399 0 l 109 0 l 109 635 q 210 882 109 792 q 481 972 311 972 q 651 927 582 972 q 720 817 720 882 q 685 713 720 755 l 677 703 q 669 683 669 692 q 674 660 669 673 q 694 629 680 648 q 730 585 707 610 l 785 523 q 929 295 909 389 q 935 225 935 264 q 917 140 935 185 q 863 60 899 95 q 649 -16 783 -16 q 541 17 579 -16 q 529 26 535 22 q 518 35 523 31 q 507 60 507 47 q 535 90 507 90 q 552 83 545 90 l 569 66 q 654 31 609 31 q 701 44 684 31 q 732 90 732 68 q 726 129 732 111 q 707 168 720 146 q 625 275 681 212 q 541 375 570 339 q 498 438 513 412 q 475 522 475 479 q 569 678 475 615 q 663 785 653 734 q 665 818 665 800 q 652 856 665 835 q 614 893 640 877 z "},"à":{"ha":956,"x_min":65,"x_max":861,"o":"m 571 45 q 378 -13 484 -13 q 153 58 238 -13 q 65 259 65 130 q 153 446 65 373 q 388 520 242 520 q 571 483 486 520 l 571 669 q 462 687 509 687 q 382 683 415 687 q 321 671 350 679 q 225 623 258 653 q 191 606 206 606 q 167 613 175 606 q 159 631 159 621 q 162 648 159 640 q 175 664 165 656 q 243 699 195 682 q 440 736 341 736 q 825 593 741 736 q 861 425 861 529 l 861 0 l 571 0 l 571 45 m 571 430 q 401 471 486 471 q 375 469 387 471 l 375 38 q 382 37 378 37 q 391 37 387 37 q 571 103 484 37 l 571 430 m 343 1003 l 534 1003 l 613 810 l 509 810 l 343 1003 z "},"á":{"ha":956,"x_min":65,"x_max":861,"o":"m 571 45 q 378 -13 484 -13 q 153 58 238 -13 q 65 259 65 130 q 153 446 65 373 q 388 520 242 520 q 571 483 486 520 l 571 669 q 462 687 509 687 q 382 683 415 687 q 321 671 350 679 q 225 623 258 653 q 191 606 206 606 q 167 613 175 606 q 159 631 159 621 q 162 648 159 640 q 175 664 165 656 q 243 699 195 682 q 440 736 341 736 q 825 593 741 736 q 861 425 861 529 l 861 0 l 571 0 l 571 45 m 571 430 q 401 471 486 471 q 375 469 387 471 l 375 38 q 382 37 378 37 q 391 37 387 37 q 571 103 484 37 l 571 430 m 519 1074 l 709 1074 l 545 881 l 439 881 l 519 1074 z "},"â":{"ha":956,"x_min":65,"x_max":861,"o":"m 571 45 q 378 -13 484 -13 q 153 58 238 -13 q 65 259 65 130 q 153 446 65 373 q 388 520 242 520 q 571 483 486 520 l 571 669 q 462 687 509 687 q 382 683 415 687 q 321 671 350 679 q 225 623 258 653 q 191 606 206 606 q 167 613 175 606 q 159 631 159 621 q 162 648 159 640 q 175 664 165 656 q 243 699 195 682 q 440 736 341 736 q 825 593 741 736 q 861 425 861 529 l 861 0 l 571 0 l 571 45 m 571 430 q 401 471 486 471 q 375 469 387 471 l 375 38 q 382 37 378 37 q 391 37 387 37 q 571 103 484 37 l 571 430 m 322 912 l 302 892 q 275 876 287 876 q 257 883 264 876 q 250 900 250 890 q 277 941 250 918 q 300 962 286 950 q 339 1000 313 974 l 414 1074 l 587 1074 l 765 882 l 556 882 l 434 1027 q 338 929 349 941 q 322 912 328 917 z "},"ã":{"ha":956,"x_min":65,"x_max":861,"o":"m 571 45 q 378 -13 484 -13 q 153 58 238 -13 q 65 259 65 130 q 153 446 65 373 q 388 520 242 520 q 571 483 486 520 l 571 669 q 462 687 509 687 q 382 683 415 687 q 321 671 350 679 q 225 623 258 653 q 191 606 206 606 q 167 613 175 606 q 159 631 159 621 q 162 648 159 640 q 175 664 165 656 q 243 699 195 682 q 440 736 341 736 q 825 593 741 736 q 861 425 861 529 l 861 0 l 571 0 l 571 45 m 571 430 q 401 471 486 471 q 375 469 387 471 l 375 38 q 382 37 378 37 q 391 37 387 37 q 571 103 484 37 l 571 430 m 276 811 q 274 810 276 811 q 263 808 271 808 q 247 818 254 808 q 239 849 239 827 q 252 900 239 871 q 290 954 266 930 q 411 1006 342 1006 q 540 950 468 1006 l 575 923 q 626 894 614 894 q 649 911 638 894 q 665 955 661 928 q 674 991 669 982 q 690 1000 679 1000 q 710 990 702 1000 q 718 959 718 980 q 704 908 718 937 q 667 854 690 878 q 545 802 614 802 q 418 854 492 802 l 370 891 q 338 908 348 908 q 320 904 328 908 q 307 891 313 899 q 288 856 292 874 l 284 830 q 276 811 281 814 z "},"ä":{"ha":956,"x_min":65,"x_max":861,"o":"m 571 45 q 378 -13 484 -13 q 153 58 238 -13 q 65 259 65 130 q 153 446 65 373 q 388 520 242 520 q 571 483 486 520 l 571 669 q 462 687 509 687 q 382 683 415 687 q 321 671 350 679 q 225 623 258 653 q 191 606 206 606 q 167 613 175 606 q 159 631 159 621 q 162 648 159 640 q 175 664 165 656 q 243 699 195 682 q 440 736 341 736 q 825 593 741 736 q 861 425 861 529 l 861 0 l 571 0 l 571 45 m 571 430 q 401 471 486 471 q 375 469 387 471 l 375 38 q 382 37 378 37 q 391 37 387 37 q 571 103 484 37 l 571 430 m 779 967 q 779 949 779 967 q 746 907 779 930 q 673 884 714 884 q 610 890 631 884 q 572 909 588 897 q 540 970 540 932 q 606 1048 540 1029 q 659 1055 629 1055 q 711 1048 689 1055 q 748 1029 733 1041 q 779 967 779 1004 m 437 967 q 437 949 437 967 q 406 907 437 930 q 332 884 374 884 q 269 890 291 884 q 232 909 248 897 q 199 970 199 932 q 266 1048 199 1029 q 318 1055 288 1055 q 370 1048 349 1055 q 407 1029 392 1041 q 437 967 437 1004 z "},"å":{"ha":956,"x_min":65,"x_max":861,"o":"m 571 45 q 378 -13 484 -13 q 153 58 238 -13 q 65 259 65 130 q 153 446 65 373 q 388 520 242 520 q 571 483 486 520 l 571 669 q 462 687 509 687 q 382 683 415 687 q 321 671 350 679 q 225 623 258 653 q 191 606 206 606 q 167 613 175 606 q 159 631 159 621 q 162 648 159 640 q 175 664 165 656 q 243 699 195 682 q 440 736 341 736 q 825 593 741 736 q 861 425 861 529 l 861 0 l 571 0 l 571 45 m 571 430 q 401 471 486 471 q 375 469 387 471 l 375 38 q 382 37 378 37 q 391 37 387 37 q 571 103 484 37 l 571 430 m 488 871 q 413 899 444 871 q 382 974 382 927 q 447 1068 382 1042 q 489 1076 467 1076 q 531 1069 512 1076 q 565 1048 551 1061 q 594 974 594 1019 q 564 899 594 928 q 488 871 534 871 m 450 935 q 454 931 450 935 q 468 924 458 928 q 494 920 477 920 q 527 934 511 920 q 543 972 543 949 q 528 1011 543 996 q 489 1026 513 1026 q 449 1011 465 1026 q 434 979 434 996 q 438 952 434 962 q 450 935 443 943 z "},"æ":{"ha":1364,"x_min":65,"x_max":1312,"o":"m 646 100 q 378 -13 526 -13 q 153 58 238 -13 q 65 259 65 130 q 153 446 65 373 q 388 520 242 520 q 557 488 474 520 l 558 669 q 460 687 505 687 q 382 683 415 687 q 321 671 350 679 q 225 623 258 653 q 191 606 206 606 q 167 613 175 606 q 159 631 159 621 q 162 648 159 640 q 175 664 165 656 q 243 699 195 682 q 467 736 341 736 q 722 686 593 736 q 947 736 812 736 q 1200 645 1098 736 q 1312 387 1312 546 q 1309 338 1312 363 l 861 338 l 861 47 q 966 37 908 37 q 1174 118 1084 37 l 1187 132 q 1200 146 1193 138 q 1230 165 1214 165 q 1256 140 1256 165 q 1232 97 1256 122 q 945 -13 1127 -13 q 646 100 763 -13 m 1049 672 q 949 687 1007 687 q 861 680 890 687 l 861 387 l 1049 387 l 1049 672 m 557 436 q 401 471 478 471 q 375 469 387 471 l 375 38 q 382 37 378 37 q 391 37 387 37 q 612 138 506 37 q 557 376 557 214 l 557 436 z "},"ç":{"ha":765,"x_min":55,"x_max":728,"o":"m 483 -47 q 629 -132 629 -50 q 541 -221 629 -196 q 481 -229 512 -229 q 332 -192 379 -229 q 313 -163 313 -176 q 340 -134 313 -134 q 369 -146 354 -134 q 395 -164 383 -159 q 420 -172 406 -169 q 488 -180 447 -180 q 553 -165 529 -180 q 578 -135 578 -151 q 552 -109 578 -120 q 488 -96 527 -97 q 439 -88 449 -96 q 430 -59 430 -81 l 430 -12 q 157 100 260 -5 q 55 369 55 205 q 170 633 55 529 q 456 736 283 736 q 645 696 554 736 q 714 634 714 666 q 706 613 714 621 q 689 606 699 606 q 652 622 675 606 q 522 681 608 664 q 453 687 490 687 q 389 682 416 687 l 389 43 q 453 37 420 37 q 515 42 485 37 q 572 57 545 47 q 665 109 630 77 q 702 130 690 130 q 728 107 728 130 q 686 52 728 84 q 483 -12 598 -6 l 483 -47 z "},"è":{"ha":882,"x_min":55,"x_max":827,"o":"m 747 165 q 773 140 773 165 q 749 97 773 122 q 456 -13 642 -13 q 174 88 288 -13 q 55 354 55 193 q 162 624 55 518 q 463 736 275 736 q 716 645 614 736 q 827 387 827 547 q 825 338 827 363 l 378 338 l 378 47 q 481 37 424 37 q 690 118 604 37 q 715 146 707 136 q 747 165 730 165 m 566 674 q 466 687 522 687 q 378 680 410 687 l 378 387 l 566 387 l 566 674 m 306 1003 l 496 1003 l 576 810 l 471 810 l 306 1003 z "},"é":{"ha":882,"x_min":55,"x_max":827,"o":"m 747 165 q 773 140 773 165 q 749 97 773 122 q 456 -13 642 -13 q 174 88 288 -13 q 55 354 55 193 q 162 624 55 518 q 463 736 275 736 q 716 645 614 736 q 827 387 827 547 q 825 338 827 363 l 378 338 l 378 47 q 481 37 424 37 q 690 118 604 37 q 715 146 707 136 q 747 165 730 165 m 566 674 q 466 687 522 687 q 378 680 410 687 l 378 387 l 566 387 l 566 674 m 489 1074 l 680 1074 l 515 881 l 409 881 l 489 1074 z "},"ê":{"ha":882,"x_min":55,"x_max":827,"o":"m 747 165 q 773 140 773 165 q 749 97 773 122 q 456 -13 642 -13 q 174 88 288 -13 q 55 354 55 193 q 162 624 55 518 q 463 736 275 736 q 716 645 614 736 q 827 387 827 547 q 825 338 827 363 l 378 338 l 378 47 q 481 37 424 37 q 690 118 604 37 q 715 146 707 136 q 747 165 730 165 m 566 674 q 466 687 522 687 q 378 680 410 687 l 378 387 l 566 387 l 566 674 m 292 912 l 272 892 q 245 876 257 876 q 227 883 234 876 q 220 900 220 890 q 248 941 220 918 q 270 962 256 950 q 309 1000 283 974 l 384 1074 l 557 1074 l 735 882 l 526 882 l 404 1027 q 309 929 319 941 q 292 912 298 917 z "},"ë":{"ha":882,"x_min":55,"x_max":827,"o":"m 747 165 q 773 140 773 165 q 749 97 773 122 q 456 -13 642 -13 q 174 88 288 -13 q 55 354 55 193 q 162 624 55 518 q 463 736 275 736 q 716 645 614 736 q 827 387 827 547 q 825 338 827 363 l 378 338 l 378 47 q 481 37 424 37 q 690 118 604 37 q 715 146 707 136 q 747 165 730 165 m 566 674 q 466 687 522 687 q 378 680 410 687 l 378 387 l 566 387 l 566 674 m 749 967 q 749 949 749 967 q 716 907 749 930 q 643 884 684 884 q 580 890 602 884 q 543 909 558 897 q 510 970 510 932 q 576 1048 510 1029 q 629 1055 600 1055 q 681 1048 659 1055 q 718 1029 703 1041 q 749 967 749 1004 m 408 967 q 408 949 408 967 q 376 907 408 930 q 302 884 344 884 q 239 890 261 884 q 202 909 218 897 q 169 970 169 932 q 236 1048 169 1029 q 289 1055 258 1055 q 340 1048 319 1055 q 377 1029 362 1041 q 408 967 408 1004 z "},"ì":{"ha":513,"x_min":117,"x_max":409,"o":"m 117 724 l 409 724 l 409 0 l 117 0 l 117 724 m 121 1003 l 312 1003 l 391 810 l 287 810 l 121 1003 z "},"í":{"ha":513,"x_min":117,"x_max":488,"o":"m 117 724 l 409 724 l 409 0 l 117 0 l 117 724 m 297 1074 l 488 1074 l 323 881 l 217 881 l 297 1074 z "},"î":{"ha":513,"x_min":28,"x_max":544,"o":"m 117 724 l 409 724 l 409 0 l 117 0 l 117 724 m 101 912 l 81 892 q 54 876 66 876 q 36 883 43 876 q 28 900 28 890 q 56 941 28 918 q 79 962 65 950 q 118 1000 92 974 l 193 1074 l 366 1074 l 544 882 l 335 882 l 213 1027 q 117 929 128 941 q 101 912 106 917 z "},"ï":{"ha":513,"x_min":-22,"x_max":557,"o":"m 117 724 l 409 724 l 409 0 l 117 0 l 117 724 m 557 967 q 557 949 557 967 q 525 907 557 930 q 452 884 493 884 q 389 890 410 884 q 351 909 367 897 q 319 970 319 932 q 385 1048 319 1029 q 438 1055 408 1055 q 490 1048 468 1055 q 527 1029 512 1041 q 557 967 557 1004 m 216 967 q 216 949 216 967 q 184 907 216 930 q 111 884 153 884 q 48 890 70 884 q 11 909 26 897 q -22 970 -22 932 q 45 1048 -22 1029 q 97 1055 67 1055 q 149 1048 127 1055 q 186 1029 171 1041 q 216 967 216 1004 z "},"ð":{"ha":880,"x_min":57,"x_max":830,"o":"m 593 1114 q 620 1091 618 1114 q 593 1050 620 1076 l 543 1002 q 750 755 673 911 q 830 410 829 595 q 769 161 830 264 q 444 -13 665 -13 q 163 94 271 -13 q 57 367 57 199 q 161 627 57 523 q 452 736 273 736 q 736 604 633 736 q 768 552 754 581 q 601 891 735 744 q 512 970 559 937 l 474 932 q 450 905 459 917 q 420 881 433 881 q 399 889 407 881 q 391 907 391 897 q 444 970 391 929 q 472 996 458 981 q 339 1038 395 1038 q 323 1037 332 1038 q 263 1070 263 1037 q 315 1095 263 1101 q 503 1028 415 1080 l 540 1068 q 562 1095 555 1084 q 593 1114 577 1114 m 675 596 q 571 663 630 638 q 466 687 511 687 q 398 684 420 687 l 398 41 q 473 37 422 37 q 583 61 524 37 q 685 130 643 85 q 777 378 774 222 q 675 596 774 504 z "},"ñ":{"ha":1015,"x_min":117,"x_max":911,"o":"m 619 650 q 583 661 602 661 q 542 652 563 661 q 498 627 521 643 q 409 534 450 592 l 409 0 l 117 0 l 117 724 l 409 724 l 409 608 q 671 736 525 736 q 911 505 911 736 l 911 0 l 619 0 l 619 650 m 306 811 q 303 810 306 811 q 292 808 300 808 q 276 818 283 808 q 268 849 268 827 q 281 900 268 871 q 319 954 295 930 q 440 1006 372 1006 q 569 950 497 1006 l 604 923 q 655 894 643 894 q 679 911 667 894 q 694 955 690 928 q 703 991 699 982 q 720 1000 708 1000 q 739 990 731 1000 q 747 959 747 980 q 733 908 747 937 q 696 854 720 878 q 574 802 643 802 q 448 854 521 802 l 399 891 q 367 908 377 908 q 350 904 357 908 q 336 891 342 899 q 317 856 321 874 l 313 830 q 306 811 311 814 z "},"ò":{"ha":884,"x_min":55,"x_max":827,"o":"m 55 366 q 84 514 55 448 q 165 631 114 581 q 445 736 277 736 q 724 627 616 736 q 827 364 827 523 q 722 98 827 205 q 442 -13 612 -13 q 167 92 276 -13 q 55 366 55 201 m 423 38 q 434 37 429 37 l 444 37 q 673 122 581 37 q 772 362 772 214 q 680 597 772 507 q 443 687 588 687 l 433 687 q 423 686 428 687 l 423 38 m 307 1003 l 497 1003 l 576 810 l 472 810 l 307 1003 z "},"ó":{"ha":884,"x_min":55,"x_max":827,"o":"m 55 366 q 84 514 55 448 q 165 631 114 581 q 445 736 277 736 q 724 627 616 736 q 827 364 827 523 q 722 98 827 205 q 442 -13 612 -13 q 167 92 276 -13 q 55 366 55 201 m 423 38 q 434 37 429 37 l 444 37 q 673 122 581 37 q 772 362 772 214 q 680 597 772 507 q 443 687 588 687 l 433 687 q 423 686 428 687 l 423 38 m 467 1074 l 657 1074 l 492 881 l 387 881 l 467 1074 z "},"ô":{"ha":884,"x_min":55,"x_max":827,"o":"m 55 366 q 84 514 55 448 q 165 631 114 581 q 445 736 277 736 q 724 627 616 736 q 827 364 827 523 q 722 98 827 205 q 442 -13 612 -13 q 167 92 276 -13 q 55 366 55 201 m 423 38 q 434 37 429 37 l 444 37 q 673 122 581 37 q 772 362 772 214 q 680 597 772 507 q 443 687 588 687 l 433 687 q 423 686 428 687 l 423 38 m 270 912 l 250 892 q 223 876 235 876 q 204 883 212 876 q 197 900 197 890 q 225 941 197 918 q 248 962 234 950 q 287 1000 261 974 l 361 1074 l 534 1074 l 713 882 l 504 882 l 382 1027 q 286 929 297 941 q 270 912 275 917 z "},"õ":{"ha":884,"x_min":55,"x_max":827,"o":"m 55 366 q 84 514 55 448 q 165 631 114 581 q 445 736 277 736 q 724 627 616 736 q 827 364 827 523 q 722 98 827 205 q 442 -13 612 -13 q 167 92 276 -13 q 55 366 55 201 m 423 38 q 434 37 429 37 l 444 37 q 673 122 581 37 q 772 362 772 214 q 680 597 772 507 q 443 687 588 687 l 433 687 q 423 686 428 687 l 423 38 m 240 811 q 237 810 240 811 q 226 808 235 808 q 210 818 218 808 q 202 849 202 827 q 216 900 202 871 q 253 954 229 930 q 374 1006 306 1006 q 503 950 431 1006 l 538 923 q 589 894 577 894 q 613 911 602 894 q 628 955 624 928 q 637 991 633 982 q 654 1000 642 1000 q 673 990 665 1000 q 681 959 681 980 q 667 908 681 937 q 630 854 654 878 q 509 802 577 802 q 382 854 455 802 l 333 891 q 301 908 311 908 q 284 904 291 908 q 270 891 277 899 q 252 856 255 874 l 248 830 q 240 811 245 814 z "},"ö":{"ha":884,"x_min":55,"x_max":827,"o":"m 55 366 q 84 514 55 448 q 165 631 114 581 q 445 736 277 736 q 724 627 616 736 q 827 364 827 523 q 722 98 827 205 q 442 -13 612 -13 q 167 92 276 -13 q 55 366 55 201 m 423 38 q 434 37 429 37 l 444 37 q 673 122 581 37 q 772 362 772 214 q 680 597 772 507 q 443 687 588 687 l 433 687 q 423 686 428 687 l 423 38 m 726 967 q 726 949 726 967 q 694 907 726 930 q 621 884 662 884 q 557 890 579 884 q 520 909 536 897 q 488 970 488 932 q 554 1048 488 1029 q 607 1055 577 1055 q 659 1048 637 1055 q 696 1029 681 1041 q 726 967 726 1004 m 385 967 q 385 949 385 967 q 353 907 385 930 q 280 884 321 884 q 217 890 239 884 q 180 909 195 897 q 146 970 146 932 q 214 1048 146 1029 q 266 1055 236 1055 q 318 1048 296 1055 q 355 1029 340 1041 q 385 967 385 1004 z "},"÷":{"ha":695,"x_min":66,"x_max":613,"o":"m 338 494 q 273 504 302 494 q 224 534 244 515 q 184 640 184 573 q 229 734 184 694 q 344 777 276 777 q 460 730 416 777 q 500 629 500 687 q 454 533 500 572 q 338 494 408 494 m 208 358 l 108 353 q 77 362 89 353 q 66 384 66 370 q 106 413 66 413 q 137 410 114 413 q 202 408 160 408 l 475 408 l 563 413 l 574 413 q 602 405 591 413 q 613 384 613 397 q 601 362 613 370 q 572 354 589 354 l 471 358 l 208 358 m 195 80 q 184 137 184 107 q 196 191 184 166 q 229 235 208 216 q 344 277 276 277 q 460 230 416 277 q 500 130 500 187 q 454 33 500 72 q 340 -6 408 -6 q 195 80 227 -6 z "},"ø":{"ha":884,"x_min":55,"x_max":827,"o":"m 166 631 q 192 655 166 631 q 289 708 218 680 q 448 736 361 736 q 611 704 534 736 q 650 770 633 740 l 678 822 q 713 871 703 869 q 733 868 723 873 q 747 853 744 864 q 731 809 751 836 q 696 749 712 782 l 659 679 q 817 460 781 604 q 827 350 827 414 q 800 218 827 286 q 722 98 772 149 q 442 -13 612 -13 q 276 20 352 -13 l 212 -97 q 170 -150 184 -146 q 136 -133 142 -155 q 155 -80 130 -111 q 170 -58 160 -74 l 225 42 l 227 45 q 67 267 104 122 q 55 381 55 315 q 84 514 55 448 q 166 631 114 581 m 423 38 q 434 37 429 37 l 444 37 q 673 122 581 37 q 772 362 772 214 q 680 597 772 507 q 443 687 588 687 l 433 687 q 423 686 428 687 l 423 38 z "},"ù":{"ha":1013,"x_min":117,"x_max":909,"o":"m 355 -13 q 117 220 117 -13 l 117 724 l 407 724 l 407 60 q 424 57 414 57 l 446 57 q 575 130 500 57 q 617 179 597 153 l 617 724 l 909 724 l 909 0 l 617 0 l 617 104 q 355 -13 507 -13 m 372 1003 l 562 1003 l 642 810 l 537 810 l 372 1003 z "},"ú":{"ha":1013,"x_min":117,"x_max":909,"o":"m 355 -13 q 117 220 117 -13 l 117 724 l 407 724 l 407 60 q 424 57 414 57 l 446 57 q 575 130 500 57 q 617 179 597 153 l 617 724 l 909 724 l 909 0 l 617 0 l 617 104 q 355 -13 507 -13 m 539 1074 l 730 1074 l 565 881 l 459 881 l 539 1074 z "},"û":{"ha":1013,"x_min":117,"x_max":909,"o":"m 355 -13 q 117 220 117 -13 l 117 724 l 407 724 l 407 60 q 424 57 414 57 l 446 57 q 575 130 500 57 q 617 179 597 153 l 617 724 l 909 724 l 909 0 l 617 0 l 617 104 q 355 -13 507 -13 m 342 912 l 322 892 q 296 876 307 876 q 277 883 284 876 q 270 900 270 890 q 298 941 270 918 q 320 962 307 950 q 359 1000 334 974 l 434 1074 l 607 1074 l 785 882 l 576 882 l 454 1027 q 359 929 370 941 q 342 912 348 917 z "},"ü":{"ha":1013,"x_min":117,"x_max":909,"o":"m 355 -13 q 117 220 117 -13 l 117 724 l 407 724 l 407 60 q 424 57 414 57 l 446 57 q 575 130 500 57 q 617 179 597 153 l 617 724 l 909 724 l 909 0 l 617 0 l 617 104 q 355 -13 507 -13 m 799 967 q 799 949 799 967 q 767 907 799 930 q 693 884 734 884 q 630 890 652 884 q 593 909 608 897 q 560 970 560 932 q 627 1048 560 1029 q 680 1055 650 1055 q 731 1048 709 1055 q 768 1029 753 1041 q 799 967 799 1004 m 458 967 q 458 949 458 967 q 426 907 458 930 q 353 884 394 884 q 290 890 311 884 q 252 909 268 897 q 219 970 219 932 q 286 1048 219 1029 q 339 1055 309 1055 q 391 1048 369 1055 q 427 1029 412 1041 q 458 967 458 1004 z "},"ý":{"ha":725,"x_min":3,"x_max":724,"o":"m 243 -160 q 301 -127 285 -147 q 357 -29 324 -100 l 372 7 l 3 724 l 311 724 l 504 315 l 615 574 q 655 683 646 646 q 674 728 665 720 q 696 736 683 736 q 717 728 709 736 q 724 712 724 720 q 723 695 724 704 q 716 670 721 686 q 701 632 711 655 l 420 -20 q 323 -186 370 -138 q 244 -229 284 -229 q 203 -201 203 -229 q 243 -160 203 -173 m 420 1074 l 611 1074 l 446 881 l 340 881 l 420 1074 z "},"þ":{"ha":1025,"x_min":117,"x_max":968,"o":"m 578 -13 q 395 30 484 -13 l 395 -217 l 117 -217 l 117 960 l 395 960 l 395 687 q 577 736 484 736 q 741 709 669 736 q 863 632 812 681 q 968 368 968 529 q 865 99 968 205 q 578 -13 758 -13 m 575 687 q 395 632 477 687 l 395 87 q 594 37 485 37 q 628 39 613 37 l 628 683 q 575 687 602 687 z "},"ÿ":{"ha":725,"x_min":3,"x_max":724,"o":"m 243 -160 q 301 -127 285 -147 q 357 -29 324 -100 l 372 7 l 3 724 l 311 724 l 504 315 l 615 574 q 655 683 646 646 q 674 728 665 720 q 696 736 683 736 q 717 728 709 736 q 724 712 724 720 q 723 695 724 704 q 716 670 721 686 q 701 632 711 655 l 420 -20 q 323 -186 370 -138 q 244 -229 284 -229 q 203 -201 203 -229 q 243 -160 203 -173 m 680 967 q 680 949 680 967 q 648 907 680 930 q 574 884 616 884 q 511 890 533 884 q 474 909 490 897 q 441 970 441 932 q 508 1048 441 1029 q 561 1055 531 1055 q 613 1048 591 1055 q 650 1029 635 1041 q 680 967 680 1004 m 339 967 q 339 949 339 967 q 307 907 339 930 q 234 884 275 884 q 171 890 193 884 q 134 909 149 897 q 100 970 100 932 q 168 1048 100 1029 q 220 1055 190 1055 q 272 1048 250 1055 q 309 1029 294 1041 q 339 967 339 1004 z "},"Ā":{"ha":919,"x_min":6,"x_max":889,"o":"m 290 121 q 120 123 165 121 l 100 76 q 84 35 92 56 q 41 -7 68 -7 q 20 1 28 -7 q 12 18 12 9 q 24 51 12 33 q 64 125 45 79 q 6 159 6 131 q 39 188 6 188 q 87 181 60 188 l 425 1003 l 889 0 l 536 0 l 479 121 l 290 121 m 142 176 q 258 170 207 170 l 457 170 l 288 536 l 142 176 m 340 1167 l 239 1161 q 211 1170 222 1161 q 200 1192 200 1179 q 211 1213 200 1205 q 239 1221 221 1221 q 335 1216 239 1221 l 543 1216 l 651 1221 q 689 1192 689 1221 q 679 1171 689 1179 q 648 1162 668 1162 l 551 1167 l 340 1167 z "},"ā":{"ha":956,"x_min":65,"x_max":861,"o":"m 571 45 q 378 -13 484 -13 q 153 58 238 -13 q 65 259 65 130 q 153 446 65 373 q 388 520 242 520 q 571 483 486 520 l 571 669 q 462 687 509 687 q 382 683 415 687 q 321 671 350 679 q 225 623 258 653 q 191 606 206 606 q 167 613 175 606 q 159 631 159 621 q 162 648 159 640 q 175 664 165 656 q 243 699 195 682 q 440 736 341 736 q 825 593 741 736 q 861 425 861 529 l 861 0 l 571 0 l 571 45 m 571 430 q 401 471 486 471 q 375 469 387 471 l 375 38 q 382 37 378 37 q 391 37 387 37 q 571 103 484 37 l 571 430 m 387 853 l 286 847 q 258 856 269 847 q 247 878 247 865 q 257 899 247 891 q 286 907 268 907 q 382 902 286 907 l 590 902 l 698 907 q 736 878 736 907 q 725 857 736 865 q 695 848 715 848 l 598 853 l 387 853 z "},"Ă":{"ha":919,"x_min":6,"x_max":889,"o":"m 290 121 q 120 123 165 121 l 100 76 q 84 35 92 56 q 41 -7 68 -7 q 20 1 28 -7 q 12 18 12 9 q 24 51 12 33 q 64 125 45 79 q 6 159 6 131 q 39 188 6 188 q 87 181 60 188 l 425 1003 l 889 0 l 536 0 l 479 121 l 290 121 m 142 176 q 258 170 207 170 l 457 170 l 288 536 l 142 176 m 564 1191 q 565 1214 564 1191 q 595 1236 567 1236 q 623 1202 623 1236 q 610 1139 623 1168 q 574 1086 597 1109 q 444 1038 522 1038 q 313 1085 364 1038 q 262 1202 262 1132 q 271 1227 262 1217 q 292 1236 279 1236 q 324 1190 319 1236 q 364 1116 330 1145 q 434 1087 398 1087 q 491 1095 469 1087 q 528 1117 512 1103 q 564 1191 561 1145 z "},"ă":{"ha":956,"x_min":65,"x_max":861,"o":"m 571 45 q 378 -13 484 -13 q 153 58 238 -13 q 65 259 65 130 q 153 446 65 373 q 388 520 242 520 q 571 483 486 520 l 571 669 q 462 687 509 687 q 382 683 415 687 q 321 671 350 679 q 225 623 258 653 q 191 606 206 606 q 167 613 175 606 q 159 631 159 621 q 162 648 159 640 q 175 664 165 656 q 243 699 195 682 q 440 736 341 736 q 825 593 741 736 q 861 425 861 529 l 861 0 l 571 0 l 571 45 m 571 430 q 401 471 486 471 q 375 469 387 471 l 375 38 q 382 37 378 37 q 391 37 387 37 q 571 103 484 37 l 571 430 m 611 989 q 612 1011 611 989 q 642 1034 614 1034 q 669 1000 669 1034 q 656 937 669 966 q 621 884 644 907 q 490 836 569 836 q 360 883 411 836 q 309 1000 309 930 q 317 1025 309 1015 q 338 1034 326 1034 q 371 988 366 1034 q 411 914 376 943 q 480 885 445 885 q 537 893 516 885 q 574 914 559 901 q 611 989 608 943 z "},"Ą":{"ha":919,"x_min":6,"x_max":895,"o":"m 290 121 q 120 123 165 121 l 100 76 q 84 35 92 56 q 41 -7 68 -7 q 20 1 28 -7 q 12 18 12 9 q 24 51 12 33 q 64 125 45 79 q 6 159 6 131 q 39 188 6 188 q 87 181 60 188 l 425 1003 l 889 0 l 751 0 q 696 -88 707 -22 q 692 -118 692 -105 q 697 -145 692 -132 q 712 -170 703 -159 q 764 -195 734 -195 q 837 -168 813 -195 q 857 -148 850 -152 q 873 -144 863 -144 q 888 -151 882 -144 q 895 -169 895 -159 q 885 -193 895 -180 q 860 -218 876 -207 q 780 -245 821 -245 q 714 -236 738 -245 q 674 -210 690 -227 q 640 -128 640 -178 q 669 -24 640 -73 q 690 0 678 -8 l 536 0 l 479 121 l 290 121 m 142 176 q 258 170 207 170 l 457 170 l 288 536 l 142 176 z "},"ą":{"ha":956,"x_min":65,"x_max":862,"o":"m 571 45 q 378 -13 484 -13 q 153 58 238 -13 q 65 259 65 130 q 153 446 65 373 q 388 520 242 520 q 571 483 486 520 l 571 669 q 462 687 509 687 q 382 683 415 687 q 321 671 350 679 q 225 623 258 653 q 191 606 206 606 q 167 613 175 606 q 159 631 159 621 q 162 648 159 640 q 175 664 165 656 q 243 699 195 682 q 440 736 341 736 q 825 593 741 736 q 861 425 861 529 l 861 0 l 737 0 q 687 -55 707 -22 q 667 -113 667 -87 q 671 -151 667 -138 q 684 -174 675 -164 q 731 -195 702 -195 q 804 -168 781 -195 q 824 -148 818 -152 q 840 -144 831 -144 q 856 -151 850 -144 q 862 -169 862 -159 q 853 -193 862 -180 q 827 -218 844 -207 q 747 -245 789 -245 q 682 -236 705 -245 q 642 -210 658 -227 q 607 -128 607 -178 q 672 0 607 -49 l 571 0 l 571 45 m 571 430 q 401 471 486 471 q 375 469 387 471 l 375 38 q 382 37 378 37 q 391 37 387 37 q 571 103 484 37 l 571 430 z "},"Ć":{"ha":974,"x_min":60,"x_max":926,"o":"m 898 161 q 926 130 926 161 q 886 78 926 104 q 763 15 813 30 q 565 -13 669 -13 q 365 24 461 -13 q 201 127 269 61 q 60 488 60 267 q 100 684 60 595 q 210 837 140 773 q 585 972 359 972 q 808 928 712 972 q 911 851 911 883 q 902 829 911 838 q 883 819 894 819 q 844 839 861 819 q 796 873 826 858 q 730 901 766 889 q 596 923 656 923 q 497 915 536 923 l 497 45 q 581 37 545 37 q 656 42 618 37 q 730 58 694 47 q 854 130 812 82 q 878 154 869 147 q 898 161 886 161 m 663 1229 l 852 1229 l 688 1036 l 583 1036 l 663 1229 z "},"ć":{"ha":765,"x_min":55,"x_max":728,"o":"m 389 43 q 453 37 420 37 q 515 42 485 37 q 572 57 545 47 q 665 109 630 77 q 702 130 690 130 q 728 107 728 130 q 686 52 728 84 q 451 -13 588 -13 q 163 94 273 -13 q 55 369 55 200 q 170 633 55 529 q 456 736 283 736 q 645 696 554 736 q 714 634 714 666 q 706 613 714 621 q 689 606 699 606 q 652 622 675 606 q 522 681 608 664 q 453 687 490 687 q 389 682 416 687 l 389 43 m 477 1005 l 667 1005 l 503 812 l 397 812 l 477 1005 z "},"Ĉ":{"ha":974,"x_min":60,"x_max":926,"o":"m 898 161 q 926 130 926 161 q 886 78 926 104 q 763 15 813 30 q 565 -13 669 -13 q 365 24 461 -13 q 201 127 269 61 q 60 488 60 267 q 100 684 60 595 q 210 837 140 773 q 585 972 359 972 q 808 928 712 972 q 911 851 911 883 q 902 829 911 838 q 883 819 894 819 q 844 839 861 819 q 796 873 826 858 q 730 901 766 889 q 596 923 656 923 q 497 915 536 923 l 497 45 q 581 37 545 37 q 656 42 618 37 q 730 58 694 47 q 854 130 812 82 q 878 154 869 147 q 898 161 886 161 m 427 1067 l 406 1047 q 380 1032 391 1032 q 361 1039 368 1032 q 354 1056 354 1046 q 382 1097 354 1074 q 404 1118 391 1106 q 444 1156 418 1130 l 518 1230 l 691 1230 l 869 1038 l 661 1038 l 538 1183 q 443 1085 454 1097 q 427 1067 432 1073 z "},"ĉ":{"ha":765,"x_min":55,"x_max":728,"o":"m 389 43 q 453 37 420 37 q 515 42 485 37 q 572 57 545 47 q 665 109 630 77 q 702 130 690 130 q 728 107 728 130 q 686 52 728 84 q 451 -13 588 -13 q 163 94 273 -13 q 55 369 55 200 q 170 633 55 529 q 456 736 283 736 q 645 696 554 736 q 714 634 714 666 q 706 613 714 621 q 689 606 699 606 q 652 622 675 606 q 522 681 608 664 q 453 687 490 687 q 389 682 416 687 l 389 43 m 280 844 l 260 823 q 233 808 245 808 q 215 815 222 808 q 208 831 208 822 q 235 873 208 849 q 258 893 244 882 q 297 931 271 905 l 372 1006 l 545 1006 l 723 813 l 514 813 l 392 958 q 296 861 307 873 q 280 844 286 848 z "},"Ċ":{"ha":974,"x_min":60,"x_max":926,"o":"m 898 161 q 926 130 926 161 q 886 78 926 104 q 763 15 813 30 q 565 -13 669 -13 q 365 24 461 -13 q 201 127 269 61 q 60 488 60 267 q 100 684 60 595 q 210 837 140 773 q 585 972 359 972 q 808 928 712 972 q 911 851 911 883 q 902 829 911 838 q 883 819 894 819 q 844 839 861 819 q 796 873 826 858 q 730 901 766 889 q 596 923 656 923 q 497 915 536 923 l 497 45 q 581 37 545 37 q 656 42 618 37 q 730 58 694 47 q 854 130 812 82 q 878 154 869 147 q 898 161 886 161 m 581 1023 q 545 1023 581 1023 q 469 1057 509 1023 q 429 1144 429 1090 q 473 1223 429 1190 q 589 1257 519 1257 q 705 1218 660 1257 q 745 1136 745 1183 q 699 1057 745 1088 q 581 1023 652 1023 z "},"ċ":{"ha":765,"x_min":55,"x_max":728,"o":"m 389 43 q 453 37 420 37 q 515 42 485 37 q 572 57 545 47 q 665 109 630 77 q 702 130 690 130 q 728 107 728 130 q 686 52 728 84 q 451 -13 588 -13 q 163 94 273 -13 q 55 369 55 200 q 170 633 55 529 q 456 736 283 736 q 645 696 554 736 q 714 634 714 666 q 706 613 714 621 q 689 606 699 606 q 652 622 675 606 q 522 681 608 664 q 453 687 490 687 q 389 682 416 687 l 389 43 m 445 843 q 410 843 445 843 q 336 874 375 843 q 296 956 296 905 q 340 1029 296 999 q 437 1062 386 1062 q 517 1052 489 1062 q 565 1025 545 1042 q 604 948 604 992 q 559 873 604 904 q 445 843 515 843 z "},"Č":{"ha":974,"x_min":60,"x_max":926,"o":"m 898 161 q 926 130 926 161 q 886 78 926 104 q 763 15 813 30 q 565 -13 669 -13 q 365 24 461 -13 q 201 127 269 61 q 60 488 60 267 q 100 684 60 595 q 210 837 140 773 q 585 972 359 972 q 808 928 712 972 q 911 851 911 883 q 902 829 911 838 q 883 819 894 819 q 844 839 861 819 q 796 873 826 858 q 730 901 766 889 q 596 923 656 923 q 497 915 536 923 l 497 45 q 581 37 545 37 q 656 42 618 37 q 730 58 694 47 q 854 130 812 82 q 878 154 869 147 q 898 161 886 161 m 821 1236 q 848 1211 848 1236 q 821 1171 848 1193 l 758 1114 l 684 1038 l 510 1038 l 332 1231 l 542 1231 l 664 1086 l 785 1211 q 821 1236 807 1236 z "},"č":{"ha":765,"x_min":55,"x_max":728,"o":"m 389 43 q 453 37 420 37 q 515 42 485 37 q 572 57 545 47 q 665 109 630 77 q 702 130 690 130 q 728 107 728 130 q 686 52 728 84 q 451 -13 588 -13 q 163 94 273 -13 q 55 369 55 200 q 170 633 55 529 q 456 736 283 736 q 645 696 554 736 q 714 634 714 666 q 706 613 714 621 q 689 606 699 606 q 652 622 675 606 q 522 681 608 664 q 453 687 490 687 q 389 682 416 687 l 389 43 m 650 1013 q 676 988 676 1013 q 649 948 676 970 l 587 890 l 512 815 l 338 815 l 161 1008 l 370 1008 l 492 863 l 614 987 q 650 1013 635 1013 z "},"Ď":{"ha":1070,"x_min":120,"x_max":1010,"o":"m 120 960 l 402 960 q 692 932 600 960 q 854 848 797 899 q 944 743 911 798 q 1010 492 1010 633 q 852 134 1010 271 q 587 13 739 36 q 349 0 502 0 l 120 0 l 120 960 m 466 56 q 486 56 477 56 l 501 56 q 815 170 685 56 q 953 491 953 291 q 892 718 953 617 q 616 897 805 865 q 466 908 554 907 l 466 56 m 745 1236 q 771 1211 771 1236 q 744 1171 771 1193 l 682 1114 l 607 1038 l 433 1038 l 256 1231 l 465 1231 l 587 1086 l 709 1211 q 745 1236 730 1236 z "},"ď":{"ha":1270,"x_min":57,"x_max":1240,"o":"m 631 37 q 451 -13 546 -13 q 285 15 357 -13 q 163 94 214 43 q 57 367 57 199 q 161 627 57 523 q 452 736 273 736 q 631 695 547 736 l 631 960 l 910 960 l 910 0 l 631 0 l 631 37 m 438 687 q 398 684 417 687 l 398 41 q 451 37 422 37 q 631 97 545 37 l 631 635 q 438 687 539 687 m 1107 972 q 1240 809 1240 972 q 1153 572 1240 641 q 1106 554 1129 554 q 1074 584 1074 554 q 1082 598 1074 595 l 1107 609 q 1136 635 1125 617 l 1159 670 q 1166 693 1165 679 q 1168 724 1167 707 l 1154 715 q 1100 701 1133 701 q 1044 713 1067 701 q 1006 745 1021 725 q 979 823 979 781 q 987 889 979 864 q 1010 932 995 913 q 1107 972 1044 972 z "},"Đ":{"ha":1070,"x_min":-1,"x_max":1010,"o":"m 30 525 l 120 519 l 120 960 l 402 960 q 692 932 600 960 q 854 848 797 899 q 944 743 911 798 q 1010 492 1010 633 q 852 134 1010 271 q 587 13 739 36 q 349 0 502 0 l 120 0 l 120 469 q 79 468 100 468 l 37 465 q 10 474 21 464 q -1 496 -1 484 q 8 517 -1 509 q 30 525 18 525 m 466 56 q 486 56 477 56 l 501 56 q 815 170 685 56 q 953 491 953 291 q 892 718 953 617 q 616 897 805 865 q 466 908 554 907 l 466 519 l 534 519 q 596 522 581 519 q 636 525 622 525 q 661 517 651 525 q 671 496 671 509 q 661 473 671 482 q 632 466 651 465 l 590 468 q 530 469 560 469 l 466 469 l 466 56 z "},"đ":{"ha":1015,"x_min":57,"x_max":987,"o":"m 631 37 q 451 -13 546 -13 q 285 15 357 -13 q 163 94 214 43 q 57 367 57 199 q 161 627 57 523 q 452 736 273 736 q 631 695 547 736 l 631 838 q 600 838 615 838 l 525 833 q 498 842 509 833 q 488 863 488 850 q 525 892 488 892 l 622 886 l 631 886 l 631 960 l 910 960 l 910 890 q 948 892 929 892 q 987 863 987 892 q 945 833 987 833 q 910 836 943 833 l 910 0 l 631 0 l 631 37 m 438 687 q 398 684 417 687 l 398 41 q 451 37 422 37 q 631 97 545 37 l 631 635 q 438 687 539 687 z "},"Ē":{"ha":811,"x_min":109,"x_max":749,"o":"m 715 58 q 749 31 749 58 q 734 9 749 19 q 683 0 720 0 l 109 0 l 109 960 q 643 960 376 960 l 699 962 q 749 932 749 962 q 741 910 749 920 q 722 901 732 901 q 684 905 704 901 q 604 911 655 911 l 454 911 l 454 704 l 578 704 q 661 707 578 704 q 687 700 676 707 q 697 680 697 693 q 659 652 697 652 l 630 652 q 593 654 608 654 l 454 654 l 454 50 l 604 50 q 675 54 654 50 q 715 58 701 58 m 346 1167 l 244 1161 q 217 1170 228 1161 q 205 1192 205 1179 q 216 1213 205 1205 q 244 1221 227 1221 q 340 1216 244 1221 l 549 1216 l 656 1221 q 694 1192 694 1221 q 684 1171 694 1179 q 654 1162 673 1162 l 557 1167 l 346 1167 z "},"ē":{"ha":882,"x_min":55,"x_max":827,"o":"m 747 165 q 773 140 773 165 q 749 97 773 122 q 456 -13 642 -13 q 174 88 288 -13 q 55 354 55 193 q 162 624 55 518 q 463 736 275 736 q 716 645 614 736 q 827 387 827 547 q 825 338 827 363 l 378 338 l 378 47 q 481 37 424 37 q 690 118 604 37 q 715 146 707 136 q 747 165 730 165 m 566 674 q 466 687 522 687 q 378 680 410 687 l 378 387 l 566 387 l 566 674 m 357 853 l 256 847 q 228 856 239 847 q 217 878 217 865 q 228 899 217 891 q 256 907 238 907 q 352 902 256 907 l 560 902 l 668 907 q 706 878 706 907 q 695 857 706 865 q 665 848 685 848 l 568 853 l 357 853 z "},"Ĕ":{"ha":811,"x_min":109,"x_max":749,"o":"m 715 58 q 749 31 749 58 q 734 9 749 19 q 683 0 720 0 l 109 0 l 109 960 q 643 960 376 960 l 699 962 q 749 932 749 962 q 741 910 749 920 q 722 901 732 901 q 684 905 704 901 q 604 911 655 911 l 454 911 l 454 704 l 578 704 q 661 707 578 704 q 687 700 676 707 q 697 680 697 693 q 659 652 697 652 l 630 652 q 593 654 608 654 l 454 654 l 454 50 l 604 50 q 675 54 654 50 q 715 58 701 58 m 569 1191 q 571 1214 569 1191 q 600 1236 572 1236 q 628 1202 628 1236 q 615 1139 628 1168 q 579 1086 602 1109 q 449 1038 528 1038 q 319 1085 370 1038 q 268 1202 268 1132 q 276 1227 268 1217 q 297 1236 284 1236 q 330 1190 324 1236 q 369 1116 335 1145 q 439 1087 404 1087 q 496 1095 475 1087 q 533 1117 517 1103 q 569 1191 566 1145 z "},"ĕ":{"ha":882,"x_min":55,"x_max":827,"o":"m 747 165 q 773 140 773 165 q 749 97 773 122 q 456 -13 642 -13 q 174 88 288 -13 q 55 354 55 193 q 162 624 55 518 q 463 736 275 736 q 716 645 614 736 q 827 387 827 547 q 825 338 827 363 l 378 338 l 378 47 q 481 37 424 37 q 690 118 604 37 q 715 146 707 136 q 747 165 730 165 m 566 674 q 466 687 522 687 q 378 680 410 687 l 378 387 l 566 387 l 566 674 m 581 989 q 582 1011 581 989 q 612 1034 584 1034 q 640 1000 640 1034 q 627 937 640 966 q 591 884 614 907 q 460 836 539 836 q 330 883 381 836 q 279 1000 279 930 q 288 1025 279 1015 q 309 1034 296 1034 q 341 988 336 1034 q 381 914 347 943 q 451 885 415 885 q 508 893 486 885 q 545 914 529 901 q 581 989 578 943 z "},"Ė":{"ha":811,"x_min":109,"x_max":749,"o":"m 715 58 q 749 31 749 58 q 734 9 749 19 q 683 0 720 0 l 109 0 l 109 960 q 643 960 376 960 l 699 962 q 749 932 749 962 q 741 910 749 920 q 722 901 732 901 q 684 905 704 901 q 604 911 655 911 l 454 911 l 454 704 l 578 704 q 661 707 578 704 q 687 700 676 707 q 697 680 697 693 q 659 652 697 652 l 630 652 q 593 654 608 654 l 454 654 l 454 50 l 604 50 q 675 54 654 50 q 715 58 701 58 m 444 1023 q 408 1023 444 1023 q 332 1057 372 1023 q 292 1144 292 1090 q 336 1223 292 1190 q 452 1257 382 1257 q 568 1218 523 1257 q 608 1136 608 1183 q 562 1057 608 1088 q 444 1023 515 1023 z "},"ė":{"ha":882,"x_min":55,"x_max":827,"o":"m 747 165 q 773 140 773 165 q 749 97 773 122 q 456 -13 642 -13 q 174 88 288 -13 q 55 354 55 193 q 162 624 55 518 q 463 736 275 736 q 716 645 614 736 q 827 387 827 547 q 825 338 827 363 l 378 338 l 378 47 q 481 37 424 37 q 690 118 604 37 q 715 146 707 136 q 747 165 730 165 m 566 674 q 466 687 522 687 q 378 680 410 687 l 378 387 l 566 387 l 566 674 m 457 843 q 422 843 457 843 q 348 874 387 843 q 309 956 309 905 q 352 1029 309 999 q 450 1062 398 1062 q 529 1052 501 1062 q 577 1025 557 1042 q 616 948 616 992 q 572 873 616 904 q 457 843 527 843 z "},"Ę":{"ha":811,"x_min":109,"x_max":756,"o":"m 501 -128 q 541 0 501 -26 l 109 0 l 109 960 q 643 960 376 960 l 699 962 q 749 932 749 962 q 741 910 749 920 q 722 901 732 901 q 684 905 704 901 q 604 911 655 911 l 454 911 l 454 704 l 578 704 l 661 707 q 687 700 676 707 q 697 680 697 693 q 659 652 697 652 l 630 652 q 593 654 608 654 l 454 654 l 454 50 l 604 50 q 675 54 654 50 q 715 58 701 58 q 749 31 749 58 q 734 9 749 19 q 683 0 720 0 l 602 0 q 554 -118 554 -24 q 598 -188 554 -168 q 633 -195 613 -195 q 693 -173 675 -195 q 719 -148 712 -152 q 734 -144 725 -144 q 750 -151 744 -144 q 756 -169 756 -159 q 747 -193 756 -180 q 722 -218 738 -207 q 641 -245 683 -245 q 576 -236 600 -245 q 536 -210 552 -227 q 501 -128 501 -178 z "},"ę":{"ha":882,"x_min":55,"x_max":827,"o":"m 631 19 q 464 -13 554 -13 q 301 14 374 -13 q 174 88 229 40 q 55 354 55 193 q 162 624 55 518 q 463 736 275 736 q 716 645 614 736 q 827 387 827 547 q 825 338 827 363 l 378 338 l 378 47 q 481 37 424 37 q 690 118 604 37 q 715 146 707 136 q 747 165 730 165 q 773 140 773 165 q 762 111 773 124 l 764 113 q 691 19 724 71 q 627 -125 627 -81 q 665 -189 627 -172 q 700 -195 679 -195 q 759 -173 741 -195 q 784 -148 778 -152 q 800 -144 791 -144 q 816 -151 810 -144 q 822 -169 822 -159 q 813 -193 822 -180 q 787 -218 804 -207 q 707 -245 749 -245 q 642 -236 665 -245 q 601 -210 618 -227 q 567 -132 567 -178 q 631 19 567 -49 m 566 674 q 466 687 522 687 q 378 680 410 687 l 378 387 l 566 387 l 566 674 z "},"Ě":{"ha":811,"x_min":109,"x_max":749,"o":"m 715 58 q 749 31 749 58 q 734 9 749 19 q 683 0 720 0 l 109 0 l 109 960 q 643 960 376 960 l 699 962 q 749 932 749 962 q 741 910 749 920 q 722 901 732 901 q 684 905 704 901 q 604 911 655 911 l 454 911 l 454 704 l 578 704 q 661 707 578 704 q 687 700 676 707 q 697 680 697 693 q 659 652 697 652 l 630 652 q 593 654 608 654 l 454 654 l 454 50 l 604 50 q 675 54 654 50 q 715 58 701 58 m 684 1236 q 711 1211 711 1236 q 684 1171 711 1193 l 621 1114 l 547 1038 l 373 1038 l 195 1231 l 405 1231 l 527 1086 l 648 1211 q 684 1236 670 1236 z "},"ě":{"ha":882,"x_min":55,"x_max":827,"o":"m 747 165 q 773 140 773 165 q 749 97 773 122 q 456 -13 642 -13 q 174 88 288 -13 q 55 354 55 193 q 162 624 55 518 q 463 736 275 736 q 716 645 614 736 q 827 387 827 547 q 825 338 827 363 l 378 338 l 378 47 q 481 37 424 37 q 690 118 604 37 q 715 146 707 136 q 747 165 730 165 m 566 674 q 466 687 522 687 q 378 680 410 687 l 378 387 l 566 387 l 566 674 m 662 1013 q 688 988 688 1013 q 661 948 688 970 l 599 890 l 524 815 l 351 815 l 173 1008 l 382 1008 l 505 863 l 626 987 q 662 1013 648 1013 z "},"Ĝ":{"ha":1098,"x_min":60,"x_max":983,"o":"m 925 50 l 926 96 l 926 203 q 644 1 831 44 q 507 -13 585 -13 q 345 20 429 -13 q 198 114 261 52 q 60 467 60 248 q 206 822 60 677 q 589 972 359 972 q 800 928 706 972 q 882 881 858 903 q 905 845 905 859 q 897 823 905 832 q 874 813 889 813 q 842 829 860 813 q 750 889 790 875 q 687 909 711 903 q 644 918 663 916 q 575 922 615 922 q 501 916 535 922 l 501 38 q 516 37 509 37 l 530 37 q 856 190 731 37 q 926 313 899 242 l 926 378 q 923 439 926 378 q 951 475 923 475 q 975 466 966 475 q 983 441 983 456 l 979 385 l 979 133 l 983 28 q 974 2 983 12 q 952 -7 964 -7 q 922 24 922 -7 q 925 50 922 32 m 417 1067 l 397 1047 q 370 1032 382 1032 q 352 1039 359 1032 q 345 1056 345 1046 q 372 1097 345 1074 q 395 1118 381 1106 q 434 1156 408 1130 l 509 1230 l 682 1230 l 860 1038 l 651 1038 l 529 1183 q 433 1085 444 1097 q 417 1067 422 1073 z "},"ĝ":{"ha":810,"x_min":64,"x_max":782,"o":"m 265 221 q 205 181 205 203 q 240 152 205 160 q 429 133 309 136 q 609 114 549 130 q 706 76 670 99 q 771 -37 771 33 q 684 -180 771 -125 q 410 -241 587 -241 q 109 -186 228 -241 q 66 -139 66 -165 q 75 -121 66 -127 q 93 -114 83 -114 q 119 -123 104 -114 q 183 -156 154 -142 q 276 -181 213 -169 q 398 -193 339 -193 q 493 -188 456 -193 q 555 -176 530 -183 q 603 -144 603 -162 q 593 -121 603 -128 q 569 -107 584 -113 q 526 -97 553 -102 q 375 -83 471 -87 q 224 -64 279 -78 q 133 -28 168 -50 q 64 83 64 13 q 202 248 64 185 q 102 339 139 283 q 64 462 64 396 q 89 577 64 528 q 159 661 114 625 q 402 736 253 736 q 536 716 469 736 q 714 809 632 809 q 765 798 749 809 q 782 768 782 786 q 770 743 782 751 q 749 735 759 735 q 718 739 730 735 q 679 746 699 746 q 587 695 642 746 q 731 539 697 641 q 742 456 742 505 q 713 358 742 407 q 637 274 685 309 q 405 201 538 201 q 265 221 334 199 m 408 250 q 597 304 517 252 q 688 465 688 363 q 598 629 688 567 q 408 688 515 686 l 408 250 m 209 844 l 189 823 q 162 808 174 808 q 143 815 151 808 q 136 831 136 822 q 164 873 136 849 q 186 893 173 882 q 226 931 200 905 l 300 1006 l 473 1006 l 652 813 l 443 813 l 321 958 q 225 861 236 873 q 209 844 214 848 z "},"Ğ":{"ha":1098,"x_min":60,"x_max":983,"o":"m 925 50 l 926 96 l 926 203 q 644 1 831 44 q 507 -13 585 -13 q 345 20 429 -13 q 198 114 261 52 q 60 467 60 248 q 206 822 60 677 q 589 972 359 972 q 800 928 706 972 q 882 881 858 903 q 905 845 905 859 q 897 823 905 832 q 874 813 889 813 q 842 829 860 813 q 750 889 790 875 q 687 909 711 903 q 644 918 663 916 q 575 922 615 922 q 501 916 535 922 l 501 38 q 516 37 509 37 l 530 37 q 856 190 731 37 q 926 313 899 242 l 926 378 q 923 439 926 378 q 951 475 923 475 q 975 466 966 475 q 983 441 983 456 l 979 385 l 979 133 l 983 28 q 974 2 983 12 q 952 -7 964 -7 q 922 24 922 -7 q 925 50 922 32 m 697 1191 q 698 1214 697 1191 q 728 1236 700 1236 q 755 1202 755 1236 q 743 1139 755 1168 q 707 1086 730 1109 q 576 1038 655 1038 q 446 1085 497 1038 q 395 1202 395 1132 q 404 1227 395 1217 q 425 1236 412 1236 q 457 1190 452 1236 q 497 1116 463 1145 q 567 1087 531 1087 q 624 1095 602 1087 q 661 1117 645 1103 q 697 1191 694 1145 z "},"ğ":{"ha":810,"x_min":64,"x_max":782,"o":"m 265 221 q 205 181 205 203 q 240 152 205 160 q 429 133 309 136 q 609 114 549 130 q 706 76 670 99 q 771 -37 771 33 q 684 -180 771 -125 q 410 -241 587 -241 q 109 -186 228 -241 q 66 -139 66 -165 q 75 -121 66 -127 q 93 -114 83 -114 q 119 -123 104 -114 q 183 -156 154 -142 q 276 -181 213 -169 q 398 -193 339 -193 q 493 -188 456 -193 q 555 -176 530 -183 q 603 -144 603 -162 q 593 -121 603 -128 q 569 -107 584 -113 q 526 -97 553 -102 q 375 -83 471 -87 q 224 -64 279 -78 q 133 -28 168 -50 q 64 83 64 13 q 202 248 64 185 q 102 339 139 283 q 64 462 64 396 q 89 577 64 528 q 159 661 114 625 q 402 736 253 736 q 536 716 469 736 q 714 809 632 809 q 765 798 749 809 q 782 768 782 786 q 770 743 782 751 q 749 735 759 735 q 718 739 730 735 q 679 746 699 746 q 587 695 642 746 q 731 539 697 641 q 742 456 742 505 q 713 358 742 407 q 637 274 685 309 q 405 201 538 201 q 265 221 334 199 m 408 250 q 597 304 517 252 q 688 465 688 363 q 598 629 688 567 q 408 688 515 686 l 408 250 m 497 989 q 499 1011 497 989 q 528 1034 500 1034 q 556 1000 556 1034 q 543 937 556 966 q 507 884 530 907 q 377 836 456 836 q 247 883 298 836 q 196 1000 196 930 q 204 1025 196 1015 q 225 1034 212 1034 q 258 988 252 1034 q 297 914 263 943 q 367 885 332 885 q 424 893 403 885 q 461 914 446 901 q 497 989 494 943 z "},"Ġ":{"ha":1098,"x_min":60,"x_max":983,"o":"m 925 50 l 926 96 l 926 203 q 644 1 831 44 q 507 -13 585 -13 q 345 20 429 -13 q 198 114 261 52 q 60 467 60 248 q 206 822 60 677 q 589 972 359 972 q 800 928 706 972 q 882 881 858 903 q 905 845 905 859 q 897 823 905 832 q 874 813 889 813 q 842 829 860 813 q 750 889 790 875 q 687 909 711 903 q 644 918 663 916 q 575 922 615 922 q 501 916 535 922 l 501 38 q 516 37 509 37 l 530 37 q 856 190 731 37 q 926 313 899 242 l 926 378 q 923 439 926 378 q 951 475 923 475 q 975 466 966 475 q 983 441 983 456 l 979 385 l 979 133 l 983 28 q 974 2 983 12 q 952 -7 964 -7 q 922 24 922 -7 q 925 50 922 32 m 571 1023 q 536 1023 571 1023 q 459 1057 500 1023 q 419 1144 419 1090 q 464 1223 419 1190 q 580 1257 510 1257 q 696 1218 650 1257 q 736 1136 736 1183 q 690 1057 736 1088 q 571 1023 643 1023 z "},"ġ":{"ha":810,"x_min":64,"x_max":782,"o":"m 265 221 q 205 181 205 203 q 240 152 205 160 q 429 133 309 136 q 609 114 549 130 q 706 76 670 99 q 771 -37 771 33 q 684 -180 771 -125 q 410 -241 587 -241 q 109 -186 228 -241 q 66 -139 66 -165 q 75 -121 66 -127 q 93 -114 83 -114 q 119 -123 104 -114 q 183 -156 154 -142 q 276 -181 213 -169 q 398 -193 339 -193 q 493 -188 456 -193 q 555 -176 530 -183 q 603 -144 603 -162 q 593 -121 603 -128 q 569 -107 584 -113 q 526 -97 553 -102 q 375 -83 471 -87 q 224 -64 279 -78 q 133 -28 168 -50 q 64 83 64 13 q 202 248 64 185 q 102 339 139 283 q 64 462 64 396 q 89 577 64 528 q 159 661 114 625 q 402 736 253 736 q 536 716 469 736 q 714 809 632 809 q 765 798 749 809 q 782 768 782 786 q 770 743 782 751 q 749 735 759 735 q 718 739 730 735 q 679 746 699 746 q 587 695 642 746 q 731 539 697 641 q 742 456 742 505 q 713 358 742 407 q 637 274 685 309 q 405 201 538 201 q 265 221 334 199 m 408 250 q 597 304 517 252 q 688 465 688 363 q 598 629 688 567 q 408 688 515 686 l 408 250 m 374 843 q 339 843 374 843 q 264 874 304 843 q 225 956 225 905 q 269 1029 225 999 q 366 1062 315 1062 q 446 1052 418 1062 q 494 1025 474 1042 q 533 948 533 992 q 488 873 533 904 q 374 843 444 843 z "},"Ģ":{"ha":1098,"x_min":60,"x_max":983,"o":"m 925 50 l 926 96 l 926 203 q 644 1 831 44 q 507 -13 585 -13 q 345 20 429 -13 q 198 114 261 52 q 60 467 60 248 q 206 822 60 677 q 589 972 359 972 q 800 928 706 972 q 882 881 858 903 q 905 845 905 859 q 897 823 905 832 q 874 813 889 813 q 842 829 860 813 q 750 889 790 875 q 687 909 711 903 q 644 918 663 916 q 575 922 615 922 q 501 916 535 922 l 501 38 q 516 37 509 37 l 530 37 q 856 190 731 37 q 926 313 899 242 l 926 378 q 923 439 926 378 q 951 475 923 475 q 975 466 966 475 q 983 441 983 456 l 979 385 l 979 133 l 983 28 q 974 2 983 12 q 952 -7 964 -7 q 922 24 922 -7 q 925 50 922 32 m 642 -277 q 546 -302 587 -302 q 477 -294 505 -302 q 431 -272 450 -286 q 391 -201 391 -244 q 435 -128 391 -156 q 550 -100 478 -100 q 665 -131 623 -100 q 707 -220 707 -162 q 644 -361 707 -301 q 587 -411 601 -404 q 559 -422 572 -419 q 526 -399 527 -427 q 536 -380 525 -388 l 563 -361 q 642 -277 625 -317 z "},"ģ":{"ha":810,"x_min":64,"x_max":782,"o":"m 265 221 q 205 181 205 203 q 240 152 205 160 q 429 133 309 136 q 609 114 549 130 q 706 76 670 99 q 771 -37 771 33 q 684 -180 771 -125 q 410 -241 587 -241 q 109 -186 228 -241 q 66 -139 66 -165 q 75 -121 66 -127 q 93 -114 83 -114 q 119 -123 104 -114 q 183 -156 154 -142 q 276 -181 213 -169 q 398 -193 339 -193 q 493 -188 456 -193 q 555 -176 530 -183 q 603 -144 603 -162 q 593 -121 603 -128 q 569 -107 584 -113 q 526 -97 553 -102 q 375 -83 471 -87 q 224 -64 279 -78 q 133 -28 168 -50 q 64 83 64 13 q 202 248 64 185 q 102 339 139 283 q 64 462 64 396 q 89 577 64 528 q 159 661 114 625 q 402 736 253 736 q 536 716 469 736 q 714 809 632 809 q 765 798 749 809 q 782 768 782 786 q 770 743 782 751 q 749 735 759 735 q 718 739 730 735 q 679 746 699 746 q 587 695 642 746 q 731 539 697 641 q 742 456 742 505 q 713 358 742 407 q 637 274 685 309 q 405 201 538 201 q 265 221 334 199 m 408 250 q 597 304 517 252 q 688 465 688 363 q 598 629 688 567 q 408 688 515 686 l 408 250 m 309 1014 q 406 1038 365 1038 q 474 1030 446 1038 q 521 1008 502 1022 q 560 938 560 981 q 517 864 560 892 q 401 836 473 836 q 287 867 329 836 q 245 957 245 899 q 307 1098 245 1038 q 365 1148 351 1140 q 393 1158 379 1156 q 426 1135 425 1164 q 415 1116 427 1124 l 389 1097 q 309 1014 326 1054 z "},"Ĥ":{"ha":991,"x_min":120,"x_max":931,"o":"m 860 98 l 862 29 q 852 2 862 12 q 828 -7 842 -7 q 807 1 815 -7 q 800 24 800 10 q 803 54 800 37 q 808 159 808 75 l 808 654 l 467 654 l 467 0 l 120 0 l 120 960 l 467 960 l 467 704 q 700 704 613 704 q 808 705 787 704 l 808 823 q 806 899 808 882 l 803 920 q 802 936 802 929 q 831 967 802 967 q 852 959 841 967 q 863 932 863 951 l 860 845 l 860 707 l 903 713 q 923 706 915 713 q 931 688 931 699 q 889 658 931 661 q 874 656 882 656 q 860 655 867 656 l 860 98 m 361 1067 l 340 1047 q 314 1032 326 1032 q 295 1039 302 1032 q 288 1056 288 1046 q 316 1097 288 1074 q 338 1118 325 1106 q 378 1156 352 1130 l 452 1230 l 625 1230 l 804 1038 l 595 1038 l 473 1183 q 377 1085 388 1097 q 361 1067 366 1073 z "},"ĥ":{"ha":1015,"x_min":117,"x_max":910,"o":"m 671 736 q 910 505 910 736 l 910 0 l 618 0 l 618 660 q 586 668 606 668 q 545 659 566 668 q 499 632 523 649 q 409 538 448 595 l 409 0 l 117 0 l 117 960 l 409 960 l 409 610 q 671 736 525 736 m 355 1067 l 334 1047 q 308 1032 319 1032 q 289 1039 296 1032 q 282 1056 282 1046 q 310 1097 282 1074 q 332 1118 319 1106 q 372 1156 346 1130 l 446 1230 l 619 1230 l 798 1038 l 589 1038 l 467 1183 q 371 1085 382 1097 q 355 1067 360 1073 z "},"Ħ":{"ha":991,"x_min":-3,"x_max":981,"o":"m 860 98 l 862 29 q 852 2 862 12 q 828 -7 842 -7 q 807 1 815 -7 q 800 24 800 10 q 803 54 800 37 q 808 159 808 75 l 808 463 l 467 463 l 467 0 l 120 0 l 120 724 l 36 718 q 8 727 20 718 q -3 749 -3 736 q 8 770 -3 762 q 36 779 18 779 l 120 773 l 120 960 l 467 960 l 467 773 l 808 773 l 808 823 q 806 899 808 882 l 803 920 q 802 936 802 929 q 831 967 802 967 q 852 959 841 967 q 863 932 863 951 l 860 845 l 860 773 l 943 779 q 981 749 981 779 q 970 728 981 736 q 940 719 960 719 l 860 724 l 860 98 m 467 512 q 700 512 613 512 q 808 513 787 512 l 808 724 l 467 724 l 467 512 z "},"ħ":{"ha":1015,"x_min":34,"x_max":910,"o":"m 34 813 q 76 843 34 843 q 117 840 97 843 l 117 960 l 409 960 l 409 838 l 485 843 q 523 813 523 843 q 512 792 523 801 q 482 783 502 783 l 409 788 l 409 610 q 671 736 525 736 q 910 505 910 736 l 910 0 l 618 0 l 618 660 q 586 668 606 668 q 545 659 566 668 q 499 632 523 649 q 409 538 448 595 l 409 0 l 117 0 l 117 785 q 76 783 96 783 q 45 792 56 783 q 34 813 34 801 z "},"Ĩ":{"ha":562,"x_min":54,"x_max":532,"o":"m 109 960 l 454 960 l 454 0 l 109 0 l 109 960 m 91 1047 q 89 1046 91 1047 q 78 1044 86 1044 q 61 1054 69 1044 q 54 1085 54 1063 q 67 1136 54 1107 q 104 1190 81 1166 q 226 1242 157 1242 q 355 1186 283 1242 l 390 1159 q 441 1130 429 1130 q 464 1147 453 1130 q 480 1191 475 1164 q 489 1227 484 1218 q 505 1236 494 1236 q 525 1226 517 1236 q 532 1195 532 1216 q 519 1144 532 1173 q 481 1090 505 1114 q 360 1038 429 1038 q 233 1090 307 1038 l 184 1127 q 153 1144 163 1144 q 135 1140 142 1144 q 121 1127 128 1135 q 103 1092 106 1110 l 99 1066 q 91 1047 96 1050 z "},"ĩ":{"ha":513,"x_min":18,"x_max":497,"o":"m 117 724 l 409 724 l 409 0 l 117 0 l 117 724 m 56 811 q 53 810 56 811 q 42 808 51 808 q 26 818 34 808 q 18 849 18 827 q 32 900 18 871 q 69 954 45 930 q 191 1006 122 1006 q 319 950 248 1006 l 355 923 q 406 894 393 894 q 429 911 418 894 q 445 955 440 928 q 454 991 449 982 q 470 1000 458 1000 q 489 990 481 1000 q 497 959 497 980 q 484 908 497 937 q 446 854 470 878 q 325 802 393 802 q 198 854 271 802 l 149 891 q 117 908 127 908 q 100 904 107 908 q 86 891 93 899 q 68 856 71 874 l 64 830 q 56 811 61 814 z "},"Ī":{"ha":562,"x_min":44,"x_max":533,"o":"m 109 960 l 454 960 l 454 0 l 109 0 l 109 960 m 184 1167 l 83 1161 q 55 1170 66 1161 q 44 1192 44 1179 q 55 1213 44 1205 q 83 1221 65 1221 q 179 1216 83 1221 l 387 1216 l 495 1221 q 533 1192 533 1221 q 523 1171 533 1179 q 492 1162 512 1162 l 395 1167 l 184 1167 z "},"ī":{"ha":513,"x_min":26,"x_max":515,"o":"m 117 724 l 409 724 l 409 0 l 117 0 l 117 724 m 166 853 l 64 847 q 37 856 48 847 q 26 878 26 865 q 36 899 26 891 q 64 907 47 907 q 161 902 64 907 l 369 902 l 477 907 q 515 878 515 907 q 504 857 515 865 q 474 848 494 848 l 377 853 l 166 853 z "},"Ĭ":{"ha":562,"x_min":106,"x_max":466,"o":"m 109 960 l 454 960 l 454 0 l 109 0 l 109 960 m 407 1191 q 409 1214 407 1191 q 438 1236 410 1236 q 466 1202 466 1236 q 453 1139 466 1168 q 417 1086 440 1109 q 287 1038 366 1038 q 157 1085 208 1038 q 106 1202 106 1132 q 114 1227 106 1217 q 135 1236 122 1236 q 168 1190 162 1236 q 207 1116 173 1145 q 277 1087 241 1087 q 334 1095 313 1087 q 371 1117 355 1103 q 407 1191 404 1145 z "},"ĭ":{"ha":513,"x_min":87,"x_max":448,"o":"m 117 724 l 409 724 l 409 0 l 117 0 l 117 724 m 389 989 q 390 1011 389 989 q 420 1034 392 1034 q 448 1000 448 1034 q 435 937 448 966 q 399 884 422 907 q 269 836 347 836 q 138 883 189 836 q 87 1000 87 930 q 96 1025 87 1015 q 117 1034 104 1034 q 149 988 144 1034 q 189 914 155 943 q 259 885 223 885 q 316 893 294 885 q 353 914 337 901 q 389 989 386 943 z "},"Į":{"ha":562,"x_min":109,"x_max":455,"o":"m 200 -128 q 265 0 200 -49 l 109 0 l 109 960 l 454 960 l 454 0 l 330 0 q 280 -55 300 -22 q 260 -113 260 -87 q 264 -151 260 -138 q 277 -174 268 -164 q 324 -195 295 -195 q 397 -168 374 -195 q 417 -148 411 -152 q 433 -144 424 -144 q 449 -151 443 -144 q 455 -169 455 -159 q 446 -193 455 -180 q 420 -218 437 -207 q 340 -245 382 -245 q 275 -236 298 -245 q 235 -210 251 -227 q 200 -128 200 -178 z "},"į":{"ha":513,"x_min":111,"x_max":419,"o":"m 151 -128 q 216 0 151 -49 l 117 0 l 117 724 l 409 724 l 409 0 l 281 0 q 231 -55 252 -22 q 211 -113 211 -87 q 215 -151 211 -138 q 228 -174 219 -164 q 275 -195 246 -195 q 349 -168 325 -195 q 369 -148 362 -152 q 385 -144 375 -144 q 400 -151 394 -144 q 406 -169 406 -159 q 397 -193 406 -180 q 372 -218 388 -207 q 291 -245 333 -245 q 226 -236 250 -245 q 186 -210 202 -227 q 151 -128 151 -178 m 260 843 q 225 843 260 843 q 151 874 190 843 q 111 956 111 905 q 155 1029 111 999 q 252 1062 201 1062 q 332 1052 304 1062 q 380 1025 360 1042 q 419 948 419 992 q 374 873 419 904 q 260 843 330 843 z "},"İ":{"ha":562,"x_min":109,"x_max":454,"o":"m 109 960 l 454 960 l 454 0 l 109 0 l 109 960 m 282 1023 q 246 1023 282 1023 q 170 1057 210 1023 q 130 1144 130 1090 q 174 1223 130 1190 q 290 1257 220 1257 q 406 1218 361 1257 q 446 1136 446 1183 q 400 1057 446 1088 q 282 1023 353 1023 z "},"ı":{"ha":513,"x_min":117,"x_max":409,"o":"m 117 724 l 409 724 l 409 0 l 117 0 l 117 724 z "},"Ĳ":{"ha":1335,"x_min":109,"x_max":1215,"o":"m 109 960 l 454 960 l 454 0 l 109 0 l 109 960 m 705 51 q 717 46 705 51 q 758 37 730 41 q 815 33 787 33 q 869 39 843 33 l 869 960 l 1215 960 l 1215 362 q 1125 91 1215 184 q 810 -13 1024 -13 q 595 52 669 -13 l 584 63 q 562 108 559 89 q 590 137 566 140 q 626 111 613 133 q 660 74 640 88 q 705 51 680 60 z "},"ĳ":{"ha":1057,"x_min":111,"x_max":962,"o":"m 260 843 q 225 843 260 843 q 151 874 190 843 q 111 956 111 905 q 155 1029 111 999 q 252 1062 201 1062 q 332 1052 304 1062 q 380 1025 360 1042 q 419 948 419 992 q 374 873 419 904 q 260 843 330 843 m 117 724 l 409 724 l 409 0 l 117 0 l 117 724 m 803 843 q 768 843 803 843 q 694 874 733 843 q 654 956 654 905 q 698 1029 654 999 q 795 1062 744 1062 q 875 1052 847 1062 q 923 1025 903 1042 q 962 948 962 992 q 918 873 962 904 q 803 843 873 843 m 479 -138 q 513 -154 494 -138 q 543 -176 532 -170 q 604 -190 570 -190 q 663 -186 639 -190 l 663 724 l 953 724 l 952 72 q 855 -167 952 -86 q 615 -239 767 -239 q 504 -223 537 -239 q 449 -167 449 -197 q 479 -138 449 -138 z "},"Ĵ":{"ha":773,"x_min":-2,"x_max":767,"o":"m 143 51 q 156 46 143 51 q 197 37 168 41 q 253 33 225 33 q 307 39 281 33 l 307 960 l 654 960 l 654 362 q 564 91 654 184 q 248 -13 463 -13 q 34 52 107 -13 l 22 63 q 0 108 -2 89 q 28 137 5 140 q 65 111 52 133 q 98 74 78 88 q 143 51 118 60 m 324 1067 l 304 1047 q 277 1032 289 1032 q 259 1039 266 1032 q 252 1056 252 1046 q 279 1097 252 1074 q 302 1118 288 1106 q 341 1156 315 1130 l 416 1230 l 589 1230 l 767 1038 l 558 1038 l 436 1183 q 340 1085 351 1097 q 324 1067 330 1073 z "},"ĵ":{"ha":543,"x_min":-64,"x_max":567,"o":"m -35 -138 q 0 -154 -19 -138 q 30 -176 18 -170 q 91 -190 56 -190 q 149 -186 125 -190 l 149 724 l 439 724 l 439 72 q 342 -167 439 -86 q 102 -239 254 -239 q -9 -223 24 -239 q -64 -167 -64 -197 q -35 -138 -64 -138 m 124 844 l 104 823 q 77 808 89 808 q 59 815 66 808 q 52 831 52 822 q 79 873 52 849 q 102 893 88 882 q 141 931 115 905 l 216 1006 l 389 1006 l 567 813 l 358 813 l 236 958 q 140 861 151 873 q 124 844 130 848 z "},"Ķ":{"ha":985,"x_min":120,"x_max":958,"o":"m 120 960 l 466 960 l 466 679 l 707 861 q 781 924 758 900 q 810 954 804 949 q 821 962 816 959 q 841 967 829 967 q 861 960 854 967 q 869 944 869 953 q 867 930 869 936 q 859 917 865 924 q 807 871 845 901 l 655 756 l 909 134 q 924 103 917 117 l 935 79 l 947 56 q 955 37 951 46 q 958 20 958 28 q 953 5 957 12 q 930 -9 943 -9 q 901 1 911 -9 q 883 35 889 16 l 871 73 q 854 118 865 92 l 608 721 l 466 613 l 466 0 l 120 0 l 120 960 m 606 -277 q 510 -302 551 -302 q 441 -294 469 -302 q 395 -272 414 -286 q 355 -201 355 -244 q 399 -128 355 -156 q 514 -100 442 -100 q 629 -131 587 -100 q 671 -220 671 -162 q 608 -361 671 -301 q 551 -411 565 -404 q 523 -422 536 -419 q 490 -399 491 -427 q 500 -380 489 -388 l 527 -361 q 606 -277 589 -317 z "},"ķ":{"ha":891,"x_min":117,"x_max":885,"o":"m 117 960 l 409 960 l 409 442 l 694 649 q 760 708 735 680 q 801 736 784 736 q 831 711 831 736 q 808 673 831 692 l 635 540 l 885 0 l 582 0 l 409 382 l 409 0 l 117 0 l 117 960 m 568 -281 q 471 -306 512 -306 q 403 -298 431 -306 q 356 -276 375 -290 q 317 -205 317 -248 q 360 -132 317 -160 q 476 -104 404 -104 q 590 -135 548 -104 q 632 -224 632 -166 q 570 -366 632 -305 q 512 -415 526 -408 q 484 -426 498 -423 q 451 -403 452 -431 q 462 -384 450 -392 l 488 -365 q 568 -281 551 -321 z "},"ĸ":{"ha":891,"x_min":117,"x_max":885,"o":"m 117 724 l 409 724 l 409 442 l 694 649 q 760 708 735 680 q 801 736 784 736 q 831 711 831 736 q 808 673 831 692 l 635 540 l 885 0 l 582 0 l 409 382 l 409 0 l 117 0 l 117 724 z "},"Ĺ":{"ha":747,"x_min":120,"x_max":737,"o":"m 701 62 q 737 31 737 62 q 723 9 737 19 q 671 0 708 0 l 120 0 l 120 960 l 466 960 l 466 45 l 593 45 q 666 53 635 45 q 701 62 697 62 m 368 1229 l 558 1229 l 393 1036 l 288 1036 l 368 1229 z "},"ĺ":{"ha":513,"x_min":117,"x_max":425,"o":"m 117 960 l 409 960 l 409 0 l 117 0 l 117 960 m 235 1229 l 425 1229 l 260 1036 l 155 1036 l 235 1229 z "},"Ļ":{"ha":747,"x_min":120,"x_max":737,"o":"m 701 62 q 737 31 737 62 q 723 9 737 19 q 671 0 708 0 l 120 0 l 120 960 l 466 960 l 466 45 l 593 45 q 666 53 635 45 q 701 62 697 62 m 467 -277 q 370 -302 411 -302 q 302 -294 330 -302 q 255 -272 274 -286 q 216 -201 216 -244 q 259 -128 216 -156 q 375 -100 302 -100 q 489 -131 447 -100 q 531 -220 531 -162 q 469 -361 531 -301 q 411 -411 425 -404 q 383 -422 397 -419 q 350 -399 351 -427 q 361 -380 349 -388 l 387 -361 q 467 -277 450 -317 z "},"ļ":{"ha":513,"x_min":99,"x_max":414,"o":"m 117 960 l 409 960 l 409 0 l 117 0 l 117 960 m 350 -277 q 254 -302 294 -302 q 185 -294 213 -302 q 138 -272 157 -286 q 99 -201 99 -244 q 142 -128 99 -156 q 258 -100 186 -100 q 372 -131 330 -100 q 414 -220 414 -162 q 352 -361 414 -301 q 294 -411 309 -404 q 267 -422 280 -419 q 233 -399 235 -427 q 244 -380 233 -388 l 271 -361 q 350 -277 333 -317 z "},"Ľ":{"ha":747,"x_min":120,"x_max":789,"o":"m 701 62 q 737 31 737 62 q 723 9 737 19 q 671 0 708 0 l 120 0 l 120 960 l 466 960 l 466 45 l 593 45 q 666 53 635 45 q 701 62 697 62 m 657 972 q 789 809 789 972 q 703 572 789 641 q 656 554 679 554 q 624 584 624 554 q 631 598 624 595 l 656 609 q 686 635 675 617 l 709 670 q 716 693 715 679 q 718 724 717 707 l 703 715 q 650 701 683 701 q 593 713 616 701 q 556 745 570 725 q 529 823 529 781 q 537 889 529 864 q 560 932 545 913 q 657 972 594 972 z "},"ľ":{"ha":696,"x_min":117,"x_max":722,"o":"m 117 960 l 409 960 l 409 0 l 117 0 l 117 960 m 590 972 q 722 809 722 972 q 635 572 722 641 q 589 554 612 554 q 557 584 557 554 q 564 598 557 595 l 589 609 q 618 635 608 617 l 642 670 q 649 693 648 679 q 651 724 650 707 l 636 715 q 583 701 616 701 q 526 713 549 701 q 489 745 503 725 q 462 823 462 781 q 470 889 462 864 q 493 932 477 913 q 590 972 527 972 z "},"Ŀ":{"ha":747,"x_min":120,"x_max":785,"o":"m 746 424 q 726 407 746 424 q 644 391 706 391 q 549 425 583 391 q 515 511 515 460 q 554 597 515 562 q 653 633 593 633 q 749 594 713 633 q 785 507 785 555 q 746 424 785 458 m 701 62 q 737 31 737 62 q 723 9 737 19 q 671 0 708 0 l 120 0 l 120 960 l 466 960 l 466 45 l 593 45 q 666 53 635 45 q 701 62 697 62 z "},"ŀ":{"ha":809,"x_min":117,"x_max":789,"o":"m 117 960 l 409 960 l 409 0 l 117 0 l 117 960 m 749 424 q 729 407 749 424 q 648 391 709 391 q 552 425 586 391 q 518 511 518 460 q 557 597 518 562 q 656 633 596 633 q 752 594 716 633 q 789 507 789 555 q 749 424 789 458 z "},"Ł":{"ha":747,"x_min":1,"x_max":737,"o":"m 701 62 q 737 31 737 62 q 723 9 737 19 q 671 0 708 0 l 120 0 l 120 370 l 87 354 q 34 336 51 336 q 9 345 18 336 q 1 366 1 353 q 44 404 1 390 q 120 431 85 415 l 120 960 l 466 960 l 466 610 l 517 637 q 616 674 588 674 q 648 646 648 674 q 602 610 648 623 q 533 582 572 601 l 466 547 l 466 45 l 593 45 q 666 53 635 45 q 701 62 697 62 z "},"ł":{"ha":513,"x_min":-15,"x_max":540,"o":"m 409 595 q 509 633 478 633 q 540 602 540 633 q 501 570 540 581 q 425 541 463 559 l 409 532 l 409 0 l 117 0 l 117 382 l 79 362 q 20 342 38 342 q -15 371 -15 342 q 29 409 -15 395 q 117 443 75 422 l 117 960 l 409 960 l 409 595 z "},"Ń":{"ha":1041,"x_min":120,"x_max":921,"o":"m 181 97 l 183 29 q 174 2 183 12 q 151 -7 164 -7 q 129 1 138 -7 q 120 21 120 10 q 122 40 120 31 q 125 61 123 50 q 128 159 128 81 l 128 1003 l 865 418 l 865 823 q 863 888 865 869 q 859 933 859 920 q 888 967 859 967 q 910 959 900 967 q 921 935 921 951 l 921 911 l 918 813 l 918 -37 l 181 541 l 181 97 m 627 1229 l 817 1229 l 652 1036 l 547 1036 l 627 1229 z "},"ń":{"ha":1015,"x_min":117,"x_max":911,"o":"m 619 650 q 583 661 602 661 q 542 652 563 661 q 498 627 521 643 q 409 534 450 592 l 409 0 l 117 0 l 117 724 l 409 724 l 409 608 q 671 736 525 736 q 911 505 911 736 l 911 0 l 619 0 l 619 650 m 576 1074 l 767 1074 l 602 881 l 496 881 l 576 1074 z "},"Ņ":{"ha":1041,"x_min":120,"x_max":921,"o":"m 181 97 l 183 29 q 174 2 183 12 q 151 -7 164 -7 q 129 1 138 -7 q 120 21 120 10 q 122 40 120 31 q 125 61 123 50 q 128 159 128 81 l 128 1003 l 865 418 l 865 823 q 863 888 865 869 q 859 933 859 920 q 888 967 859 967 q 910 959 900 967 q 921 935 921 951 l 921 911 l 918 813 l 918 -37 l 181 541 l 181 97 m 650 -277 q 554 -302 595 -302 q 486 -294 513 -302 q 439 -272 458 -286 q 399 -201 399 -244 q 443 -128 399 -156 q 558 -100 486 -100 q 673 -131 631 -100 q 715 -220 715 -162 q 652 -361 715 -301 q 595 -411 609 -404 q 567 -422 581 -419 q 534 -399 535 -427 q 545 -380 533 -388 l 571 -361 q 650 -277 633 -317 z "},"ņ":{"ha":1015,"x_min":117,"x_max":911,"o":"m 619 650 q 583 661 602 661 q 542 652 563 661 q 498 627 521 643 q 409 534 450 592 l 409 0 l 117 0 l 117 724 l 409 724 l 409 608 q 671 736 525 736 q 911 505 911 736 l 911 0 l 619 0 l 619 650 m 601 -277 q 505 -302 545 -302 q 436 -294 464 -302 q 389 -272 408 -286 q 350 -201 350 -244 q 393 -128 350 -156 q 509 -100 437 -100 q 623 -131 581 -100 q 665 -220 665 -162 q 603 -361 665 -301 q 545 -411 559 -404 q 517 -422 531 -419 q 484 -399 486 -427 q 495 -380 484 -388 l 522 -361 q 601 -277 584 -317 z "},"Ň":{"ha":1041,"x_min":120,"x_max":921,"o":"m 181 97 l 183 29 q 174 2 183 12 q 151 -7 164 -7 q 129 1 138 -7 q 120 21 120 10 q 122 40 120 31 q 125 61 123 50 q 128 159 128 81 l 128 1003 l 865 418 l 865 823 q 863 888 865 869 q 859 933 859 920 q 888 967 859 967 q 910 959 900 967 q 921 935 921 951 l 921 911 l 918 813 l 918 -37 l 181 541 l 181 97 m 786 1236 q 812 1211 812 1236 q 785 1171 812 1193 l 723 1114 l 648 1038 l 475 1038 l 297 1231 l 507 1231 l 629 1086 l 750 1211 q 786 1236 772 1236 z "},"ň":{"ha":1015,"x_min":117,"x_max":911,"o":"m 619 650 q 583 661 602 661 q 542 652 563 661 q 498 627 521 643 q 409 534 450 592 l 409 0 l 117 0 l 117 724 l 409 724 l 409 608 q 671 736 525 736 q 911 505 911 736 l 911 0 l 619 0 l 619 650 m 749 1013 q 776 988 776 1013 q 749 948 776 970 l 686 890 l 612 815 l 438 815 l 260 1008 l 470 1008 l 592 863 l 713 987 q 749 1013 735 1013 z "},"Ŋ":{"ha":1041,"x_min":120,"x_max":921,"o":"m 181 97 l 183 29 q 174 2 183 12 q 151 -7 164 -7 q 129 1 138 -7 q 120 21 120 10 q 122 40 120 31 q 125 61 123 50 q 128 159 128 81 l 128 1003 l 865 418 l 865 823 q 863 888 865 869 q 859 933 859 920 q 888 967 859 967 q 910 959 900 967 q 921 935 921 951 l 921 911 l 918 813 l 918 -37 q 860 -310 917 -220 q 621 -420 789 -420 q 398 -316 488 -420 l 387 -304 q 364 -260 362 -279 q 393 -231 369 -228 q 431 -260 416 -235 q 553 -365 463 -335 q 638 -375 586 -375 q 736 -354 691 -375 q 811 -289 782 -332 q 865 -29 865 -208 l 865 4 l 181 541 l 181 97 z "},"ŋ":{"ha":1015,"x_min":117,"x_max":911,"o":"m 436 -246 q 460 -258 448 -246 l 481 -277 q 581 -304 509 -304 q 601 -300 591 -304 q 620 -295 610 -296 l 619 650 q 583 661 602 661 q 542 652 563 661 q 498 627 521 643 q 409 534 450 592 l 409 0 l 117 0 l 117 724 l 409 724 l 409 608 q 671 736 525 736 q 911 505 911 736 l 911 -37 q 813 -275 911 -194 q 572 -348 725 -348 q 461 -332 494 -348 q 406 -276 406 -305 q 436 -246 406 -246 z "},"Ō":{"ha":1135,"x_min":74,"x_max":1061,"o":"m 220 122 q 187 155 220 122 q 114 281 153 188 q 74 485 74 374 q 112 683 74 595 q 216 835 149 770 q 573 972 358 972 q 923 837 787 972 q 1061 481 1061 700 q 920 123 1061 264 q 701 3 831 37 q 552 -13 637 -13 q 377 22 467 -13 q 220 122 288 57 m 572 922 q 503 917 535 922 l 503 42 q 572 37 534 37 q 878 157 753 37 q 1007 481 1007 283 q 886 796 1007 671 q 572 922 763 922 m 467 1167 l 366 1161 q 338 1170 349 1161 q 327 1192 327 1179 q 337 1213 327 1205 q 366 1221 348 1221 q 462 1216 366 1221 l 670 1216 l 778 1221 q 816 1192 816 1221 q 805 1171 816 1179 q 775 1162 795 1162 l 678 1167 l 467 1167 z "},"ō":{"ha":884,"x_min":55,"x_max":827,"o":"m 55 366 q 84 514 55 448 q 165 631 114 581 q 445 736 277 736 q 724 627 616 736 q 827 364 827 523 q 722 98 827 205 q 442 -13 612 -13 q 167 92 276 -13 q 55 366 55 201 m 423 38 q 434 37 429 37 l 444 37 q 673 122 581 37 q 772 362 772 214 q 680 597 772 507 q 443 687 588 687 l 433 687 q 423 686 428 687 l 423 38 m 335 853 l 233 847 q 206 856 217 847 q 195 878 195 865 q 205 899 195 891 q 233 907 216 907 q 330 902 233 907 l 538 902 l 646 907 q 684 878 684 907 q 673 857 684 865 q 643 848 663 848 l 546 853 l 335 853 z "},"Ŏ":{"ha":1135,"x_min":74,"x_max":1061,"o":"m 220 122 q 187 155 220 122 q 114 281 153 188 q 74 485 74 374 q 112 683 74 595 q 216 835 149 770 q 573 972 358 972 q 923 837 787 972 q 1061 481 1061 700 q 920 123 1061 264 q 701 3 831 37 q 552 -13 637 -13 q 377 22 467 -13 q 220 122 288 57 m 572 922 q 503 917 535 922 l 503 42 q 572 37 534 37 q 878 157 753 37 q 1007 481 1007 283 q 886 796 1007 671 q 572 922 763 922 m 691 1191 q 692 1214 691 1191 q 722 1236 694 1236 q 749 1202 749 1236 q 736 1139 749 1168 q 701 1086 724 1109 q 570 1038 649 1038 q 440 1085 491 1038 q 389 1202 389 1132 q 397 1227 389 1217 q 418 1236 406 1236 q 451 1190 446 1236 q 491 1116 456 1145 q 561 1087 525 1087 q 617 1095 596 1087 q 654 1117 639 1103 q 691 1191 688 1145 z "},"ŏ":{"ha":884,"x_min":55,"x_max":827,"o":"m 55 366 q 84 514 55 448 q 165 631 114 581 q 445 736 277 736 q 724 627 616 736 q 827 364 827 523 q 722 98 827 205 q 442 -13 612 -13 q 167 92 276 -13 q 55 366 55 201 m 423 38 q 434 37 429 37 l 444 37 q 673 122 581 37 q 772 362 772 214 q 680 597 772 507 q 443 687 588 687 l 433 687 q 423 686 428 687 l 423 38 m 558 989 q 560 1011 558 989 q 589 1034 562 1034 q 617 1000 617 1034 q 604 937 617 966 q 568 884 591 907 q 438 836 517 836 q 308 883 359 836 q 257 1000 257 930 q 265 1025 257 1015 q 286 1034 273 1034 q 319 988 313 1034 q 358 914 324 943 q 428 885 393 885 q 485 893 464 885 q 522 914 507 901 q 558 989 555 943 z "},"Ő":{"ha":1135,"x_min":74,"x_max":1061,"o":"m 220 122 q 187 155 220 122 q 114 281 153 188 q 74 485 74 374 q 112 683 74 595 q 216 835 149 770 q 573 972 358 972 q 923 837 787 972 q 1061 481 1061 700 q 920 123 1061 264 q 701 3 831 37 q 552 -13 637 -13 q 377 22 467 -13 q 220 122 288 57 m 572 922 q 503 917 535 922 l 503 42 q 572 37 534 37 q 878 157 753 37 q 1007 481 1007 283 q 886 796 1007 671 q 572 922 763 922 m 700 1230 l 857 1230 l 726 1038 l 620 1038 l 700 1230 m 446 1230 l 603 1230 l 472 1038 l 366 1038 l 446 1230 z "},"ő":{"ha":884,"x_min":55,"x_max":827,"o":"m 55 366 q 84 514 55 448 q 165 631 114 581 q 445 736 277 736 q 724 627 616 736 q 827 364 827 523 q 722 98 827 205 q 442 -13 612 -13 q 167 92 276 -13 q 55 366 55 201 m 423 38 q 434 37 429 37 l 444 37 q 673 122 581 37 q 772 362 772 214 q 680 597 772 507 q 443 687 588 687 l 433 687 q 423 686 428 687 l 423 38 m 530 1028 l 687 1028 l 556 836 l 450 836 l 530 1028 m 277 1028 l 433 1028 l 302 836 l 197 836 l 277 1028 z "},"Œ":{"ha":1592,"x_min":74,"x_max":1538,"o":"m 897 104 q 566 -13 761 -13 q 377 22 467 -13 q 220 122 288 57 q 74 491 74 265 q 216 835 74 698 q 561 972 358 972 q 897 860 764 972 l 897 960 q 1432 960 1164 960 l 1487 962 q 1538 932 1538 962 q 1530 910 1538 920 q 1510 901 1521 901 q 1473 905 1492 901 q 1393 911 1444 911 l 1243 911 l 1243 704 l 1367 704 l 1450 707 q 1475 700 1465 707 q 1486 680 1486 693 q 1448 652 1486 652 l 1419 652 q 1381 654 1396 654 l 1243 654 l 1243 50 l 1393 50 q 1464 54 1443 50 q 1503 58 1489 58 q 1538 31 1538 58 q 1523 9 1538 19 q 1472 0 1508 0 l 897 0 l 897 104 m 572 922 q 503 917 535 922 l 503 42 q 572 37 534 37 q 752 73 668 37 q 897 178 836 110 l 897 783 q 572 922 772 922 z "},"œ":{"ha":1447,"x_min":55,"x_max":1392,"o":"m 726 102 q 442 -13 616 -13 q 167 92 276 -13 q 55 370 55 201 q 166 631 55 525 q 449 736 277 736 q 728 623 621 736 q 1029 736 841 736 q 1282 645 1180 736 q 1392 387 1392 546 q 1391 338 1392 363 l 943 338 l 943 47 q 1047 37 989 37 q 1255 118 1169 37 q 1280 146 1273 136 q 1313 165 1296 165 q 1339 140 1339 165 q 1316 97 1339 122 q 1024 -13 1208 -13 q 726 102 840 -13 m 1131 674 q 1031 687 1087 687 q 943 680 976 687 l 943 387 l 1131 387 l 1131 674 m 693 583 q 443 687 601 687 l 433 687 q 423 686 428 687 l 423 38 q 434 37 429 37 l 444 37 q 691 140 597 37 q 621 359 621 233 q 693 583 621 485 z "},"Ŕ":{"ha":1018,"x_min":120,"x_max":981,"o":"m 577 329 l 633 325 q 836 408 752 325 q 919 616 919 492 q 776 857 919 779 q 608 907 697 901 q 537 911 570 911 l 491 911 q 466 910 477 911 l 466 0 l 120 0 l 120 960 q 377 960 279 960 q 505 959 475 960 q 558 957 535 958 q 602 955 582 956 q 687 942 632 952 q 795 903 741 932 q 887 833 848 875 q 970 620 970 743 q 893 404 970 498 q 682 281 814 309 q 842 47 745 85 q 902 36 872 36 l 956 49 q 981 23 981 49 q 897 -13 981 -13 q 785 21 836 -13 q 650 205 705 68 l 630 254 q 622 268 625 265 q 609 271 618 271 q 593 269 600 271 l 576 269 q 539 279 549 269 q 530 300 530 289 q 577 329 530 329 m 587 1229 l 777 1229 l 612 1036 l 507 1036 l 587 1229 z "},"ŕ":{"ha":654,"x_min":117,"x_max":684,"o":"m 117 724 l 409 724 l 409 511 q 510 682 456 627 q 618 736 564 736 q 666 721 648 736 q 684 685 684 705 q 679 654 684 665 q 665 634 673 642 q 630 617 646 617 q 592 623 604 617 q 555 632 571 632 q 513 606 538 632 q 465 534 488 580 q 409 290 409 421 l 409 0 l 117 0 l 117 724 m 342 1005 l 532 1005 l 368 812 l 262 812 l 342 1005 z "},"Ŗ":{"ha":1018,"x_min":120,"x_max":981,"o":"m 577 329 l 633 325 q 836 408 752 325 q 919 616 919 492 q 776 857 919 779 q 608 907 697 901 q 537 911 570 911 l 491 911 q 466 910 477 911 l 466 0 l 120 0 l 120 960 q 377 960 279 960 q 505 959 475 960 q 558 957 535 958 q 602 955 582 956 q 687 942 632 952 q 795 903 741 932 q 887 833 848 875 q 970 620 970 743 q 893 404 970 498 q 682 281 814 309 q 842 47 745 85 q 902 36 872 36 l 956 49 q 981 23 981 49 q 897 -13 981 -13 q 785 21 836 -13 q 650 205 705 68 l 630 254 q 622 268 625 265 q 609 271 618 271 q 593 269 600 271 l 576 269 q 539 279 549 269 q 530 300 530 289 q 577 329 530 329 m 615 -281 q 519 -306 559 -306 q 450 -298 478 -306 q 404 -276 422 -290 q 364 -205 364 -248 q 408 -132 364 -160 q 523 -104 451 -104 q 637 -135 595 -104 q 680 -224 680 -166 q 617 -366 680 -305 q 559 -415 574 -408 q 532 -426 545 -423 q 498 -403 500 -431 q 509 -384 498 -392 l 536 -365 q 615 -281 598 -321 z "},"ŗ":{"ha":654,"x_min":117,"x_max":684,"o":"m 117 724 l 409 724 l 409 511 q 510 682 456 627 q 618 736 564 736 q 666 721 648 736 q 684 685 684 705 q 679 654 684 665 q 665 634 673 642 q 630 617 646 617 q 592 623 604 617 q 555 632 571 632 q 513 606 538 632 q 465 534 488 580 q 409 290 409 421 l 409 0 l 117 0 l 117 724 m 390 -277 q 294 -302 334 -302 q 225 -294 253 -302 q 178 -272 197 -286 q 139 -201 139 -244 q 182 -128 139 -156 q 298 -100 226 -100 q 412 -131 370 -100 q 454 -220 454 -162 q 392 -361 454 -301 q 334 -411 349 -404 q 307 -422 320 -419 q 273 -399 275 -427 q 284 -380 273 -388 l 311 -361 q 390 -277 373 -317 z "},"Ř":{"ha":1018,"x_min":120,"x_max":981,"o":"m 577 329 l 633 325 q 836 408 752 325 q 919 616 919 492 q 776 857 919 779 q 608 907 697 901 q 537 911 570 911 l 491 911 q 466 910 477 911 l 466 0 l 120 0 l 120 960 q 377 960 279 960 q 505 959 475 960 q 558 957 535 958 q 602 955 582 956 q 687 942 632 952 q 795 903 741 932 q 887 833 848 875 q 970 620 970 743 q 893 404 970 498 q 682 281 814 309 q 842 47 745 85 q 902 36 872 36 l 956 49 q 981 23 981 49 q 897 -13 981 -13 q 785 21 836 -13 q 650 205 705 68 l 630 254 q 622 268 625 265 q 609 271 618 271 q 593 269 600 271 l 576 269 q 539 279 549 269 q 530 300 530 289 q 577 329 530 329 m 746 1236 q 772 1211 772 1236 q 745 1171 772 1193 l 683 1114 l 608 1038 l 435 1038 l 257 1231 l 467 1231 l 589 1086 l 710 1211 q 746 1236 732 1236 z "},"ř":{"ha":654,"x_min":26,"x_max":684,"o":"m 117 724 l 409 724 l 409 511 q 510 682 456 627 q 618 736 564 736 q 666 721 648 736 q 684 685 684 705 q 679 654 684 665 q 665 634 673 642 q 630 617 646 617 q 592 623 604 617 q 555 632 571 632 q 513 606 538 632 q 465 534 488 580 q 409 290 409 421 l 409 0 l 117 0 l 117 724 m 515 1082 q 542 1057 542 1082 q 515 1017 542 1038 l 452 959 l 378 884 l 204 884 l 26 1076 l 236 1076 l 358 931 l 479 1056 q 515 1082 501 1082 z "},"Ś":{"ha":807,"x_min":62,"x_max":745,"o":"m 120 49 q 79 77 96 62 q 62 109 62 92 q 90 142 62 142 q 130 121 108 142 q 180 86 153 101 q 241 60 208 71 q 365 37 308 37 q 453 45 422 37 q 505 65 484 52 q 549 136 549 93 q 511 217 549 176 q 418 300 478 252 l 302 391 q 97 636 128 525 q 86 722 86 675 q 107 816 86 770 q 171 897 129 862 q 416 972 261 972 q 559 948 496 972 q 645 907 622 925 q 668 873 668 888 q 642 842 668 842 q 610 857 627 842 q 573 883 593 872 q 526 903 552 895 q 414 922 469 922 q 313 856 313 922 q 331 804 313 828 q 458 686 363 763 q 610 551 553 609 q 697 448 667 494 q 745 297 745 375 q 717 164 745 218 q 640 70 690 109 q 381 -13 536 -13 q 120 49 227 -13 m 484 1229 l 674 1229 l 509 1036 l 404 1036 l 484 1229 z "},"ś":{"ha":694,"x_min":64,"x_max":648,"o":"m 64 91 q 72 110 64 101 q 90 118 79 118 q 109 111 102 118 q 126 96 109 111 q 323 34 197 34 q 433 69 409 34 q 440 89 440 79 q 436 107 440 98 q 420 130 433 117 q 386 161 408 143 l 326 210 q 123 397 178 325 q 73 531 73 463 q 153 675 73 617 q 365 736 235 736 q 509 715 456 736 q 584 677 562 694 q 606 646 606 660 q 583 616 606 616 q 563 624 572 616 q 526 651 553 632 q 454 680 499 669 q 371 691 410 691 q 316 679 332 691 q 300 655 300 667 q 305 632 300 643 q 323 608 310 622 q 418 524 353 572 q 530 436 484 476 q 601 362 575 396 q 648 239 648 301 q 625 132 648 176 q 559 56 602 87 q 318 -13 469 -13 q 117 33 197 -13 q 64 91 64 62 m 398 1005 l 589 1005 l 424 812 l 318 812 l 398 1005 z "},"Ŝ":{"ha":807,"x_min":62,"x_max":745,"o":"m 120 49 q 79 77 96 62 q 62 109 62 92 q 90 142 62 142 q 130 121 108 142 q 180 86 153 101 q 241 60 208 71 q 365 37 308 37 q 453 45 422 37 q 505 65 484 52 q 549 136 549 93 q 511 217 549 176 q 418 300 478 252 l 302 391 q 97 636 128 525 q 86 722 86 675 q 107 816 86 770 q 171 897 129 862 q 416 972 261 972 q 559 948 496 972 q 645 907 622 925 q 668 873 668 888 q 642 842 668 842 q 610 857 627 842 q 573 883 593 872 q 526 903 552 895 q 414 922 469 922 q 313 856 313 922 q 331 804 313 828 q 458 686 363 763 q 610 551 553 609 q 697 448 667 494 q 745 297 745 375 q 717 164 745 218 q 640 70 690 109 q 381 -13 536 -13 q 120 49 227 -13 m 248 1067 l 228 1047 q 201 1032 213 1032 q 183 1039 190 1032 q 176 1056 176 1046 q 203 1097 176 1074 q 226 1118 212 1106 q 265 1156 239 1130 l 340 1230 l 513 1230 l 691 1038 l 482 1038 l 360 1183 q 264 1085 275 1097 q 248 1067 254 1073 z "},"ŝ":{"ha":694,"x_min":64,"x_max":648,"o":"m 64 91 q 72 110 64 101 q 90 118 79 118 q 109 111 102 118 q 126 96 109 111 q 323 34 197 34 q 433 69 409 34 q 440 89 440 79 q 436 107 440 98 q 420 130 433 117 q 386 161 408 143 l 326 210 q 123 397 178 325 q 73 531 73 463 q 153 675 73 617 q 365 736 235 736 q 509 715 456 736 q 584 677 562 694 q 606 646 606 660 q 583 616 606 616 q 563 624 572 616 q 526 651 553 632 q 454 680 499 669 q 371 691 410 691 q 316 679 332 691 q 300 655 300 667 q 305 632 300 643 q 323 608 310 622 q 418 524 353 572 q 530 436 484 476 q 601 362 575 396 q 648 239 648 301 q 625 132 648 176 q 559 56 602 87 q 318 -13 469 -13 q 117 33 197 -13 q 64 91 64 62 m 201 844 l 181 823 q 155 808 166 808 q 136 815 143 808 q 129 831 129 822 q 157 873 129 849 q 179 893 165 882 q 218 931 193 905 l 293 1006 l 466 1006 l 644 813 l 435 813 l 313 958 q 218 861 229 873 q 201 844 207 848 z "},"Ş":{"ha":807,"x_min":62,"x_max":745,"o":"m 382 -12 l 374 -13 q 120 49 227 -13 q 79 77 96 62 q 62 109 62 92 q 90 142 62 142 q 130 121 108 142 q 180 86 153 101 q 241 60 208 71 q 365 37 308 37 q 453 45 422 37 q 505 65 484 52 q 549 136 549 93 q 511 217 549 176 q 418 300 478 252 l 302 391 q 97 636 128 525 q 86 722 86 675 q 107 816 86 770 q 171 897 129 862 q 416 972 261 972 q 559 948 496 972 q 645 907 622 925 q 668 873 668 888 q 642 842 668 842 q 610 857 627 842 q 573 883 593 872 q 526 903 552 895 q 414 922 469 922 q 313 856 313 922 q 331 804 313 828 q 458 686 363 763 q 610 551 553 609 q 697 448 667 494 q 745 300 745 375 q 722 175 745 225 q 659 85 699 124 q 435 -9 573 5 l 435 -47 q 582 -132 582 -50 q 494 -221 582 -196 q 434 -229 465 -229 q 285 -192 332 -229 q 265 -163 265 -176 q 292 -134 265 -134 q 321 -146 307 -134 q 347 -164 336 -159 q 373 -172 359 -169 q 440 -180 399 -180 q 506 -165 481 -180 q 530 -135 530 -151 q 505 -109 530 -120 q 440 -96 479 -97 q 392 -88 401 -96 q 382 -59 382 -81 l 382 -12 z "},"ş":{"ha":694,"x_min":64,"x_max":648,"o":"m 345 -12 l 318 -13 q 117 33 197 -13 q 64 91 64 62 q 72 110 64 101 q 90 118 79 118 q 109 111 102 118 l 126 96 q 323 34 197 34 q 433 69 409 34 q 440 89 440 79 q 436 107 440 98 q 420 130 433 117 q 386 161 408 143 q 326 210 386 161 q 123 397 178 325 q 73 531 73 463 q 153 675 73 617 q 365 736 235 736 q 509 715 456 736 q 584 677 562 694 q 606 646 606 660 q 583 616 606 616 q 563 624 572 616 q 526 651 553 632 q 454 680 499 669 q 371 691 410 691 q 316 679 332 691 q 300 655 300 667 q 305 632 300 643 q 323 608 310 622 q 418 524 353 572 q 530 436 484 476 q 601 362 575 396 q 648 229 648 301 q 581 75 648 138 q 397 -7 513 9 l 397 -47 q 544 -132 544 -50 q 456 -221 544 -196 q 396 -229 427 -229 q 247 -192 294 -229 q 227 -163 227 -176 q 254 -134 227 -134 q 283 -146 269 -134 q 309 -164 298 -159 q 335 -172 321 -169 q 402 -180 361 -180 q 468 -165 444 -180 q 492 -135 492 -151 q 467 -109 492 -120 q 402 -96 441 -97 q 354 -88 363 -96 q 345 -59 345 -81 l 345 -12 z "},"Š":{"ha":807,"x_min":62,"x_max":745,"o":"m 120 49 q 79 77 96 62 q 62 109 62 92 q 90 142 62 142 q 130 121 108 142 q 180 86 153 101 q 241 60 208 71 q 365 37 308 37 q 453 45 422 37 q 505 65 484 52 q 549 136 549 93 q 511 217 549 176 q 418 300 478 252 l 302 391 q 97 636 128 525 q 86 722 86 675 q 107 816 86 770 q 171 897 129 862 q 416 972 261 972 q 559 948 496 972 q 645 907 622 925 q 668 873 668 888 q 642 842 668 842 q 610 857 627 842 q 573 883 593 872 q 526 903 552 895 q 414 922 469 922 q 313 856 313 922 q 331 804 313 828 q 458 686 363 763 q 610 551 553 609 q 697 448 667 494 q 745 297 745 375 q 717 164 745 218 q 640 70 690 109 q 381 -13 536 -13 q 120 49 227 -13 m 643 1236 q 669 1211 669 1236 q 642 1171 669 1193 l 580 1114 l 505 1038 l 332 1038 l 154 1231 l 363 1231 l 486 1086 l 607 1211 q 643 1236 629 1236 z "},"š":{"ha":694,"x_min":64,"x_max":648,"o":"m 64 91 q 72 110 64 101 q 90 118 79 118 q 109 111 102 118 q 126 96 109 111 q 323 34 197 34 q 433 69 409 34 q 440 89 440 79 q 436 107 440 98 q 420 130 433 117 q 386 161 408 143 l 326 210 q 123 397 178 325 q 73 531 73 463 q 153 675 73 617 q 365 736 235 736 q 509 715 456 736 q 584 677 562 694 q 606 646 606 660 q 583 616 606 616 q 563 624 572 616 q 526 651 553 632 q 454 680 499 669 q 371 691 410 691 q 316 679 332 691 q 300 655 300 667 q 305 632 300 643 q 323 608 310 622 q 418 524 353 572 q 530 436 484 476 q 601 362 575 396 q 648 239 648 301 q 625 132 648 176 q 559 56 602 87 q 318 -13 469 -13 q 117 33 197 -13 q 64 91 64 62 m 571 1013 q 597 988 597 1013 q 570 948 597 970 l 508 890 l 433 815 l 260 815 l 82 1008 l 292 1008 l 414 863 l 535 987 q 571 1013 557 1013 z "},"Ţ":{"ha":840,"x_min":1,"x_max":817,"o":"m 817 942 q 751 911 817 911 l 593 911 l 593 0 l 246 0 l 246 911 l 144 911 q 73 906 92 911 q 35 901 47 901 q 1 928 1 901 q 68 960 1 960 l 673 960 q 742 964 720 960 q 783 968 769 968 q 817 942 817 968 m 513 -277 q 417 -302 458 -302 q 349 -294 376 -302 q 302 -272 321 -286 q 262 -201 262 -244 q 306 -128 262 -156 q 421 -100 349 -100 q 536 -131 494 -100 q 578 -220 578 -162 q 515 -361 578 -301 q 458 -411 472 -404 q 430 -422 444 -419 q 397 -399 398 -427 q 408 -380 396 -388 l 434 -361 q 513 -277 496 -317 z "},"ţ":{"ha":653,"x_min":15,"x_max":655,"o":"m 396 -13 q 130 230 130 -13 l 130 675 l 52 671 q 15 699 15 671 q 54 727 15 727 l 119 724 l 130 724 l 130 829 l 420 960 l 420 724 l 511 724 l 576 727 q 616 699 616 727 q 605 679 616 686 q 579 671 593 671 l 495 675 l 420 675 l 420 37 q 553 83 500 39 q 588 132 578 102 q 607 170 599 161 q 627 178 616 178 q 647 169 639 178 q 655 148 655 160 q 648 120 655 135 q 628 87 642 104 q 557 27 597 50 q 396 -13 485 -13 m 420 -277 q 323 -302 364 -302 q 255 -294 283 -302 q 208 -272 227 -286 q 169 -201 169 -244 q 212 -128 169 -156 q 328 -100 256 -100 q 442 -131 400 -100 q 484 -220 484 -162 q 422 -361 484 -301 q 364 -411 378 -404 q 336 -422 350 -419 q 303 -399 304 -427 q 314 -380 302 -388 l 340 -361 q 420 -277 403 -317 z "},"Ť":{"ha":840,"x_min":1,"x_max":817,"o":"m 817 942 q 751 911 817 911 l 593 911 l 593 0 l 246 0 l 246 911 l 144 911 q 73 906 92 911 q 35 901 47 901 q 1 928 1 901 q 68 960 1 960 l 673 960 q 742 964 720 960 q 783 968 769 968 q 817 942 817 968 m 655 1236 q 682 1211 682 1236 q 654 1171 682 1193 l 592 1114 l 517 1038 l 344 1038 l 166 1231 l 376 1231 l 498 1086 l 619 1211 q 655 1236 641 1236 z "},"ť":{"ha":922,"x_min":15,"x_max":890,"o":"m 396 -13 q 130 230 130 -13 l 130 675 l 52 671 q 15 699 15 671 q 54 727 15 727 l 119 724 l 130 724 l 130 829 l 420 960 l 420 724 l 511 724 l 576 727 q 616 699 616 727 q 605 679 616 686 q 579 671 593 671 l 495 675 l 420 675 l 420 37 q 553 83 500 39 q 588 132 578 102 q 607 170 599 161 q 627 178 616 178 q 647 169 639 178 q 655 148 655 160 q 648 120 655 135 q 628 87 642 104 q 557 27 597 50 q 396 -13 485 -13 m 758 972 q 890 809 890 972 q 803 572 890 641 q 756 554 779 554 q 724 584 724 554 q 732 598 724 595 l 757 609 q 786 635 775 617 l 809 670 q 816 693 815 679 q 819 724 817 707 l 804 715 q 750 701 783 701 q 694 713 717 701 q 656 745 671 725 q 629 823 629 781 q 637 889 629 864 q 661 932 645 913 q 758 972 694 972 z "},"Ŧ":{"ha":840,"x_min":1,"x_max":817,"o":"m 679 574 l 593 579 l 593 0 l 246 0 l 246 579 l 154 573 q 126 582 138 573 q 115 604 115 591 q 126 625 115 617 q 154 633 136 633 l 246 628 l 246 911 l 144 911 q 73 906 92 911 q 35 901 47 901 q 1 928 1 901 q 68 960 1 960 l 673 960 q 742 964 720 960 q 783 968 769 968 q 817 942 817 968 q 751 911 817 911 l 593 911 l 593 628 l 682 633 q 720 604 720 633 q 709 583 720 591 q 679 574 699 574 z "},"ŧ":{"ha":653,"x_min":15,"x_max":655,"o":"m 396 -13 q 130 230 130 -13 l 130 355 q 81 352 99 352 q 53 361 64 352 q 41 383 41 370 q 52 404 41 396 q 80 412 62 412 q 125 409 80 412 l 130 409 l 130 675 l 52 671 q 15 699 15 671 q 54 727 15 727 l 119 724 l 130 724 l 130 829 l 420 960 l 420 724 l 511 724 l 576 727 q 616 699 616 727 q 605 679 616 686 q 579 671 593 671 l 495 675 l 420 675 l 420 408 l 453 410 q 492 412 472 412 q 530 382 530 412 q 520 361 530 370 q 490 353 509 353 l 420 357 l 420 37 q 553 83 500 39 q 588 132 578 102 q 607 170 599 161 q 627 178 616 178 q 647 169 639 178 q 655 148 655 160 q 648 120 655 135 q 628 87 642 104 q 557 27 597 50 q 396 -13 485 -13 z "},"Ũ":{"ha":1065,"x_min":99,"x_max":966,"o":"m 966 931 l 962 847 l 962 441 q 846 115 962 241 q 533 -13 728 -13 q 208 118 324 -13 q 99 426 99 238 l 99 960 l 446 960 l 446 45 q 561 37 498 37 q 688 62 623 37 q 802 141 753 87 q 909 478 907 256 l 909 846 q 906 894 909 866 q 903 932 903 922 q 936 967 903 967 q 966 931 966 967 m 380 1047 q 378 1046 380 1047 q 367 1044 375 1044 q 350 1054 358 1044 q 342 1085 342 1063 q 356 1136 342 1107 q 393 1190 370 1166 q 515 1242 446 1242 q 644 1186 572 1242 l 679 1159 q 730 1130 718 1130 q 753 1147 742 1130 q 769 1191 764 1164 q 778 1227 773 1218 q 794 1236 783 1236 q 813 1226 806 1236 q 821 1195 821 1216 q 808 1144 821 1173 q 770 1090 794 1114 q 649 1038 718 1038 q 522 1090 595 1038 l 473 1127 q 441 1144 452 1144 q 424 1140 431 1144 q 410 1127 417 1135 q 392 1092 395 1110 l 388 1066 q 380 1047 385 1050 z "},"ũ":{"ha":1013,"x_min":117,"x_max":909,"o":"m 355 -13 q 117 220 117 -13 l 117 724 l 407 724 l 407 60 q 424 57 414 57 l 446 57 q 575 130 500 57 q 617 179 597 153 l 617 724 l 909 724 l 909 0 l 617 0 l 617 104 q 355 -13 507 -13 m 305 811 q 302 810 305 811 q 291 808 300 808 q 275 818 283 808 q 267 849 267 827 q 281 900 267 871 q 318 954 294 930 q 439 1006 371 1006 q 568 950 496 1006 l 604 923 q 654 894 642 894 q 678 911 667 894 q 693 955 689 928 q 703 991 698 982 q 719 1000 707 1000 q 738 990 730 1000 q 746 959 746 980 q 732 908 746 937 q 695 854 719 878 q 574 802 642 802 q 447 854 520 802 l 398 891 q 366 908 376 908 q 349 904 356 908 q 335 891 342 899 q 317 856 320 874 l 313 830 q 305 811 310 814 z "},"Ū":{"ha":1065,"x_min":99,"x_max":966,"o":"m 966 931 l 962 847 l 962 441 q 846 115 962 241 q 533 -13 728 -13 q 208 118 324 -13 q 99 426 99 238 l 99 960 l 446 960 l 446 45 q 561 37 498 37 q 688 62 623 37 q 802 141 753 87 q 909 478 907 256 l 909 846 q 906 894 909 866 q 903 932 903 922 q 936 967 903 967 q 966 931 966 967 m 473 1167 l 372 1161 q 344 1170 355 1161 q 333 1192 333 1179 q 343 1213 333 1205 q 372 1221 354 1221 q 468 1216 372 1221 l 676 1216 l 784 1221 q 822 1192 822 1221 q 811 1171 822 1179 q 781 1162 801 1162 l 684 1167 l 473 1167 z "},"ū":{"ha":1013,"x_min":117,"x_max":909,"o":"m 355 -13 q 117 220 117 -13 l 117 724 l 407 724 l 407 60 q 424 57 414 57 l 446 57 q 575 130 500 57 q 617 179 597 153 l 617 724 l 909 724 l 909 0 l 617 0 l 617 104 q 355 -13 507 -13 m 408 853 l 306 847 q 278 856 290 847 q 267 878 267 865 q 278 899 267 891 q 306 907 288 907 q 402 902 306 907 l 610 902 l 718 907 q 756 878 756 907 q 746 857 756 865 q 715 848 735 848 l 618 853 l 408 853 z "},"Ŭ":{"ha":1065,"x_min":99,"x_max":966,"o":"m 966 931 l 962 847 l 962 441 q 846 115 962 241 q 533 -13 728 -13 q 208 118 324 -13 q 99 426 99 238 l 99 960 l 446 960 l 446 45 q 561 37 498 37 q 688 62 623 37 q 802 141 753 87 q 909 478 907 256 l 909 846 q 906 894 909 866 q 903 932 903 922 q 936 967 903 967 q 966 931 966 967 m 697 1191 q 698 1214 697 1191 q 728 1236 700 1236 q 755 1202 755 1236 q 743 1139 755 1168 q 707 1086 730 1109 q 576 1038 655 1038 q 446 1085 497 1038 q 395 1202 395 1132 q 404 1227 395 1217 q 425 1236 412 1236 q 457 1190 452 1236 q 497 1116 463 1145 q 567 1087 531 1087 q 624 1095 602 1087 q 661 1117 645 1103 q 697 1191 694 1145 z "},"ŭ":{"ha":1013,"x_min":117,"x_max":909,"o":"m 355 -13 q 117 220 117 -13 l 117 724 l 407 724 l 407 60 q 424 57 414 57 l 446 57 q 575 130 500 57 q 617 179 597 153 l 617 724 l 909 724 l 909 0 l 617 0 l 617 104 q 355 -13 507 -13 m 631 989 q 633 1011 631 989 q 662 1034 634 1034 q 690 1000 690 1034 q 677 937 690 966 q 641 884 664 907 q 511 836 589 836 q 380 883 431 836 q 330 1000 330 930 q 338 1025 330 1015 q 359 1034 346 1034 q 391 988 386 1034 q 431 914 397 943 q 501 885 465 885 q 558 893 536 885 q 595 914 579 901 q 631 989 628 943 z "},"Ů":{"ha":1065,"x_min":99,"x_max":966,"o":"m 966 931 l 962 847 l 962 441 q 846 115 962 241 q 533 -13 728 -13 q 208 118 324 -13 q 99 426 99 238 l 99 960 l 446 960 l 446 45 q 561 37 498 37 q 688 62 623 37 q 802 141 753 87 q 909 478 907 256 l 909 846 q 906 894 909 866 q 903 932 903 922 q 936 967 903 967 q 966 931 966 967 m 576 1038 q 500 1066 531 1038 q 470 1141 470 1094 q 534 1235 470 1208 q 577 1243 554 1243 q 619 1236 600 1243 q 652 1215 638 1228 q 682 1141 682 1186 q 651 1066 682 1095 q 576 1038 621 1038 m 538 1102 q 542 1098 538 1102 q 555 1090 545 1095 q 582 1086 565 1086 q 615 1101 599 1086 q 631 1139 631 1116 q 615 1178 631 1163 q 576 1193 600 1193 q 537 1178 552 1193 q 522 1146 522 1163 q 526 1119 522 1129 q 538 1102 530 1109 z "},"ů":{"ha":1013,"x_min":117,"x_max":909,"o":"m 355 -13 q 117 220 117 -13 l 117 724 l 407 724 l 407 60 q 424 57 414 57 l 446 57 q 575 130 500 57 q 617 179 597 153 l 617 724 l 909 724 l 909 0 l 617 0 l 617 104 q 355 -13 507 -13 m 509 802 q 433 830 464 802 q 403 905 403 859 q 467 1000 403 973 q 510 1008 487 1008 q 552 1000 532 1008 q 585 979 571 993 q 614 905 614 951 q 584 831 614 860 q 509 802 554 802 m 471 867 q 474 863 471 867 q 488 855 478 859 q 515 851 498 851 q 548 866 532 851 q 564 904 564 880 q 548 943 564 928 q 509 958 533 958 q 470 943 485 958 q 454 911 454 928 q 459 884 454 894 q 471 867 463 874 z "},"Ű":{"ha":1065,"x_min":99,"x_max":966,"o":"m 966 931 l 962 847 l 962 441 q 846 115 962 241 q 533 -13 728 -13 q 208 118 324 -13 q 99 426 99 238 l 99 960 l 446 960 l 446 45 q 561 37 498 37 q 688 62 623 37 q 802 141 753 87 q 909 478 907 256 l 909 846 q 906 894 909 866 q 903 932 903 922 q 936 967 903 967 q 966 931 966 967 m 706 1230 l 863 1230 l 732 1038 l 626 1038 l 706 1230 m 452 1230 l 609 1230 l 478 1038 l 372 1038 l 452 1230 z "},"ű":{"ha":1013,"x_min":117,"x_max":909,"o":"m 355 -13 q 117 220 117 -13 l 117 724 l 407 724 l 407 60 q 424 57 414 57 l 446 57 q 575 130 500 57 q 617 179 597 153 l 617 724 l 909 724 l 909 0 l 617 0 l 617 104 q 355 -13 507 -13 m 595 1028 l 751 1028 l 621 836 l 515 836 l 595 1028 m 341 1028 l 498 1028 l 367 836 l 261 836 l 341 1028 z "},"Ų":{"ha":1065,"x_min":99,"x_max":966,"o":"m 603 -8 q 533 -13 564 -13 q 208 118 324 -13 q 99 426 99 238 l 99 960 l 446 960 l 446 45 q 561 37 498 37 q 688 62 623 37 q 802 141 753 87 q 909 478 907 256 l 909 846 q 906 894 909 866 q 903 932 903 922 q 936 967 903 967 q 966 931 966 967 l 962 847 l 962 441 q 897 183 962 295 q 715 22 831 72 l 717 22 q 617 -77 645 -7 q 608 -119 608 -100 q 612 -151 608 -138 q 624 -174 616 -164 q 672 -195 643 -195 q 745 -168 722 -195 q 765 -148 759 -152 q 781 -144 772 -144 q 797 -151 791 -144 q 803 -169 803 -159 q 794 -193 803 -180 q 768 -218 785 -207 q 688 -245 730 -245 q 623 -236 646 -245 q 582 -210 599 -227 q 548 -133 548 -178 q 603 -8 548 -55 z "},"ų":{"ha":1013,"x_min":117,"x_max":909,"o":"m 355 -13 q 117 220 117 -13 l 117 724 l 407 724 l 407 60 q 424 57 414 57 l 446 57 q 575 130 500 57 q 617 179 597 153 l 617 724 l 909 724 l 909 0 l 784 0 q 734 -55 754 -22 q 713 -113 713 -87 q 718 -151 713 -138 q 730 -174 722 -164 q 778 -195 749 -195 q 851 -168 827 -195 q 871 -148 865 -152 q 887 -144 878 -144 q 903 -151 897 -144 q 909 -169 909 -159 q 900 -193 909 -180 q 873 -218 890 -207 q 794 -245 836 -245 q 728 -236 752 -245 q 688 -210 705 -227 q 654 -128 654 -178 q 719 0 654 -49 l 617 0 l 617 104 q 355 -13 507 -13 z "},"Ŵ":{"ha":1331,"x_min":-6,"x_max":1310,"o":"m 1310 937 q 1305 912 1310 927 q 1276 836 1289 868 l 916 -37 l 661 534 l 395 -37 l -6 960 l 366 960 l 556 452 l 814 1003 l 1055 453 l 1225 851 q 1240 895 1234 873 l 1251 937 q 1284 967 1259 967 q 1310 937 1310 967 m 517 1067 l 497 1047 q 471 1032 482 1032 q 452 1039 459 1032 q 445 1056 445 1046 q 473 1097 445 1074 q 495 1118 481 1106 q 534 1156 509 1130 l 609 1230 l 782 1230 l 960 1038 l 751 1038 l 629 1183 q 534 1085 545 1097 q 517 1067 523 1073 z "},"ŵ":{"ha":1109,"x_min":3,"x_max":1109,"o":"m 3 724 l 310 724 l 484 359 l 688 755 l 902 355 l 999 574 q 1041 687 1034 655 q 1058 727 1048 718 q 1080 736 1067 736 q 1101 727 1093 736 q 1109 710 1109 718 q 1108 697 1109 703 q 1102 676 1107 690 q 1086 639 1097 663 l 794 -31 l 568 403 l 349 -31 l 3 724 m 408 844 l 388 823 q 361 808 373 808 q 343 815 350 808 q 336 831 336 822 q 363 873 336 849 q 386 893 372 882 q 425 931 399 905 l 500 1006 l 673 1006 l 851 813 l 642 813 l 520 958 q 425 861 435 873 q 408 844 414 848 z "},"Ŷ":{"ha":895,"x_min":14,"x_max":873,"o":"m 374 28 q 327 -7 356 -7 q 298 22 298 -7 q 315 62 298 41 q 382 159 351 104 l 417 221 l 14 960 l 410 960 l 604 551 l 777 859 q 810 931 796 895 q 846 967 823 967 q 873 939 873 967 q 861 902 873 923 l 397 75 q 385 52 390 61 l 374 28 m 389 1067 l 368 1047 q 342 1032 353 1032 q 323 1039 330 1032 q 316 1056 316 1046 q 344 1097 316 1074 q 366 1118 353 1106 q 406 1156 380 1130 l 480 1230 l 653 1230 l 831 1038 l 623 1038 l 500 1183 q 405 1085 416 1097 q 389 1067 394 1073 z "},"ŷ":{"ha":725,"x_min":3,"x_max":724,"o":"m 243 -160 q 301 -127 285 -147 q 357 -29 324 -100 l 372 7 l 3 724 l 311 724 l 504 315 l 615 574 q 655 683 646 646 q 674 728 665 720 q 696 736 683 736 q 717 728 709 736 q 724 712 724 720 q 723 695 724 704 q 716 670 721 686 q 701 632 711 655 l 420 -20 q 323 -186 370 -138 q 244 -229 284 -229 q 203 -201 203 -229 q 243 -160 203 -173 m 224 844 l 203 823 q 177 808 189 808 q 158 815 165 808 q 151 831 151 822 q 179 873 151 849 q 201 893 188 882 q 241 931 215 905 l 315 1006 l 488 1006 l 667 813 l 458 813 l 336 958 q 240 861 251 873 q 224 844 229 848 z "},"Ÿ":{"ha":895,"x_min":14,"x_max":873,"o":"m 374 28 q 327 -7 356 -7 q 298 22 298 -7 q 315 62 298 41 q 382 159 351 104 l 417 221 l 14 960 l 410 960 l 604 551 l 777 859 q 810 931 796 895 q 846 967 823 967 q 873 939 873 967 q 861 902 873 923 l 397 75 q 385 52 390 61 l 374 28 m 835 1121 q 835 1103 835 1121 q 803 1061 835 1084 q 729 1038 770 1038 q 666 1044 688 1038 q 629 1063 644 1051 q 596 1124 596 1086 q 663 1202 596 1183 q 715 1209 686 1209 q 767 1202 745 1209 q 804 1183 789 1195 q 835 1121 835 1158 m 494 1121 q 494 1103 494 1121 q 462 1061 494 1084 q 389 1038 430 1038 q 326 1044 347 1038 q 288 1063 304 1051 q 255 1124 255 1086 q 322 1202 255 1183 q 375 1209 345 1209 q 427 1202 405 1209 q 463 1183 448 1195 q 494 1121 494 1158 z "},"Ź":{"ha":802,"x_min":35,"x_max":768,"o":"m 732 58 q 768 31 768 58 q 753 9 768 19 q 700 0 738 0 l 35 0 l 389 911 l 216 911 q 143 906 164 911 q 106 901 117 901 q 71 928 71 901 q 137 960 71 960 l 743 960 l 397 50 l 623 50 q 694 54 674 50 q 732 58 718 58 m 547 1229 l 737 1229 l 572 1036 l 467 1036 l 547 1229 z "},"ź":{"ha":762,"x_min":28,"x_max":734,"o":"m 691 58 q 728 31 728 58 q 712 9 728 19 q 659 0 696 0 l 28 0 l 429 675 l 225 675 q 157 671 180 675 q 111 665 125 665 q 89 673 98 665 q 79 692 79 681 q 146 724 79 724 l 734 724 l 358 50 l 581 50 q 652 54 631 50 q 691 58 677 58 m 427 1005 l 617 1005 l 452 812 l 347 812 l 427 1005 z "},"Ż":{"ha":802,"x_min":35,"x_max":768,"o":"m 732 58 q 768 31 768 58 q 753 9 768 19 q 700 0 738 0 l 35 0 l 389 911 l 216 911 q 143 906 164 911 q 106 901 117 901 q 71 928 71 901 q 137 960 71 960 l 743 960 l 397 50 l 623 50 q 694 54 674 50 q 732 58 718 58 m 466 1023 q 430 1023 466 1023 q 354 1057 394 1023 q 313 1144 313 1090 q 358 1223 313 1190 q 474 1257 404 1257 q 590 1218 545 1257 q 630 1136 630 1183 q 584 1057 630 1088 q 466 1023 537 1023 z "},"ż":{"ha":762,"x_min":28,"x_max":734,"o":"m 691 58 q 728 31 728 58 q 712 9 728 19 q 659 0 696 0 l 28 0 l 429 675 l 225 675 q 157 671 180 675 q 111 665 125 665 q 89 673 98 665 q 79 692 79 681 q 146 724 79 724 l 734 724 l 358 50 l 581 50 q 652 54 631 50 q 691 58 677 58 m 395 843 q 360 843 395 843 q 286 874 325 843 q 246 956 246 905 q 290 1029 246 999 q 387 1062 336 1062 q 467 1052 439 1062 q 515 1025 495 1042 q 554 948 554 992 q 509 873 554 904 q 395 843 465 843 z "},"Ž":{"ha":802,"x_min":35,"x_max":768,"o":"m 732 58 q 768 31 768 58 q 753 9 768 19 q 700 0 738 0 l 35 0 l 389 911 l 216 911 q 143 906 164 911 q 106 901 117 901 q 71 928 71 901 q 137 960 71 960 l 743 960 l 397 50 l 623 50 q 694 54 674 50 q 732 58 718 58 m 706 1236 q 732 1211 732 1236 q 705 1171 732 1193 l 643 1114 l 568 1038 l 395 1038 l 217 1231 l 427 1231 l 549 1086 l 670 1211 q 706 1236 692 1236 z "},"ž":{"ha":762,"x_min":28,"x_max":734,"o":"m 691 58 q 728 31 728 58 q 712 9 728 19 q 659 0 696 0 l 28 0 l 429 675 l 225 675 q 157 671 180 675 q 111 665 125 665 q 89 673 98 665 q 79 692 79 681 q 146 724 79 724 l 734 724 l 358 50 l 581 50 q 652 54 631 50 q 691 58 677 58 m 600 1013 q 626 988 626 1013 q 599 948 626 970 l 536 890 l 462 815 l 288 815 l 111 1008 l 320 1008 l 442 863 l 564 987 q 600 1013 585 1013 z "},"ƒ":{"ha":565,"x_min":-84,"x_max":679,"o":"m -55 -123 q -7 -142 -39 -123 q 109 -180 49 -180 q 117 -179 115 -180 l 117 675 l 106 675 l 41 672 q 2 701 2 672 q 13 720 2 713 q 38 727 24 727 l 119 724 q 229 912 134 848 q 456 972 316 972 q 613 944 544 972 q 679 890 679 919 q 648 861 679 861 q 608 878 631 861 q 568 905 585 895 q 452 922 535 922 q 430 921 441 922 l 408 918 l 408 724 l 427 724 l 511 727 q 548 700 548 727 q 508 672 548 672 l 443 675 l 408 675 l 408 151 q 236 -209 408 -147 q 122 -229 180 -229 q 30 -222 64 -229 q -31 -205 -5 -216 q -84 -152 -84 -180 q -55 -123 -84 -123 z "},"Ǽ":{"ha":1117,"x_min":1,"x_max":1055,"o":"m 284 121 q 114 123 160 121 l 94 76 q 77 35 85 56 q 35 -7 62 -7 q 14 1 22 -7 q 5 18 5 9 q 19 51 5 33 q 58 125 41 83 q 1 159 1 131 q 34 188 1 188 q 81 181 54 188 l 414 960 l 414 959 l 414 960 q 949 960 682 960 q 1004 962 949 960 q 1055 932 1055 962 q 1047 910 1055 920 q 1027 901 1038 901 q 990 905 1009 901 q 910 911 961 911 l 760 911 l 760 704 l 884 704 l 967 707 q 992 700 982 707 q 1003 680 1003 693 q 965 652 1003 652 l 936 652 q 899 654 913 654 l 760 654 l 760 50 l 910 50 q 981 54 960 50 q 1021 58 1006 58 q 1055 31 1055 58 q 1040 9 1055 19 q 989 0 1025 0 l 414 0 l 414 121 l 284 121 m 136 176 q 253 170 201 170 l 414 170 l 414 825 l 414 825 l 136 176 m 751 1229 l 941 1229 l 776 1036 l 671 1036 l 751 1229 z "},"ǽ":{"ha":1364,"x_min":65,"x_max":1312,"o":"m 646 100 q 378 -13 526 -13 q 153 58 238 -13 q 65 259 65 130 q 153 446 65 373 q 388 520 242 520 q 557 488 474 520 l 558 669 q 460 687 505 687 q 382 683 415 687 q 321 671 350 679 q 225 623 258 653 q 191 606 206 606 q 167 613 175 606 q 159 631 159 621 q 162 648 159 640 q 175 664 165 656 q 243 699 195 682 q 467 736 341 736 q 722 686 593 736 q 947 736 812 736 q 1200 645 1098 736 q 1312 387 1312 546 q 1309 338 1312 363 l 861 338 l 861 47 q 966 37 908 37 q 1174 118 1084 37 l 1187 132 q 1200 146 1193 138 q 1230 165 1214 165 q 1256 140 1256 165 q 1232 97 1256 122 q 945 -13 1127 -13 q 646 100 763 -13 m 1049 672 q 949 687 1007 687 q 861 680 890 687 l 861 387 l 1049 387 l 1049 672 m 557 436 q 401 471 478 471 q 375 469 387 471 l 375 38 q 382 37 378 37 q 391 37 387 37 q 612 138 506 37 q 557 376 557 214 l 557 436 m 747 1005 l 937 1005 l 772 812 l 667 812 l 747 1005 z "},"Ș":{"ha":807,"x_min":62,"x_max":745,"o":"m 120 49 q 79 77 96 62 q 62 109 62 92 q 90 142 62 142 q 130 121 108 142 q 180 86 153 101 q 241 60 208 71 q 365 37 308 37 q 453 45 422 37 q 505 65 484 52 q 549 136 549 93 q 511 217 549 176 q 418 300 478 252 l 302 391 q 97 636 128 525 q 86 722 86 675 q 107 816 86 770 q 171 897 129 862 q 416 972 261 972 q 559 948 496 972 q 645 907 622 925 q 668 873 668 888 q 642 842 668 842 q 610 857 627 842 q 573 883 593 872 q 526 903 552 895 q 414 922 469 922 q 313 856 313 922 q 331 804 313 828 q 458 686 363 763 q 610 551 553 609 q 697 448 667 494 q 745 297 745 375 q 717 164 745 218 q 640 70 690 109 q 381 -13 536 -13 q 120 49 227 -13 m 506 -277 q 410 -302 450 -302 q 341 -294 369 -302 q 294 -272 313 -286 q 255 -201 255 -244 q 298 -128 255 -156 q 414 -100 342 -100 q 528 -131 486 -100 q 570 -220 570 -162 q 508 -361 570 -301 q 450 -411 465 -404 q 422 -422 436 -419 q 389 -399 391 -427 q 400 -380 389 -388 l 427 -361 q 506 -277 489 -317 z "},"ș":{"ha":694,"x_min":64,"x_max":648,"o":"m 64 91 q 72 110 64 101 q 90 118 79 118 q 109 111 102 118 q 126 96 109 111 q 323 34 197 34 q 433 69 409 34 q 440 89 440 79 q 436 107 440 98 q 420 130 433 117 q 386 161 408 143 l 326 210 q 123 397 178 325 q 73 531 73 463 q 153 675 73 617 q 365 736 235 736 q 509 715 456 736 q 584 677 562 694 q 606 646 606 660 q 583 616 606 616 q 563 624 572 616 q 526 651 553 632 q 454 680 499 669 q 371 691 410 691 q 316 679 332 691 q 300 655 300 667 q 305 632 300 643 q 323 608 310 622 q 418 524 353 572 q 530 436 484 476 q 601 362 575 396 q 648 239 648 301 q 625 132 648 176 q 559 56 602 87 q 318 -13 469 -13 q 117 33 197 -13 q 64 91 64 62 m 468 -277 q 372 -302 412 -302 q 303 -294 331 -302 q 256 -272 275 -286 q 217 -201 217 -244 q 260 -128 217 -156 q 376 -100 304 -100 q 490 -131 448 -100 q 532 -220 532 -162 q 470 -361 532 -301 q 412 -411 427 -404 q 385 -422 398 -419 q 351 -399 353 -427 q 362 -380 351 -388 l 389 -361 q 468 -277 451 -317 z "},"ȷ":{"ha":543,"x_min":-64,"x_max":439,"o":"m -35 -138 q 0 -154 -19 -138 q 30 -176 18 -170 q 91 -190 56 -190 q 149 -186 125 -190 l 149 724 l 439 724 l 439 72 q 342 -167 439 -86 q 102 -239 254 -239 q -9 -223 24 -239 q -64 -167 -64 -197 q -35 -138 -64 -138 z "},"ˆ":{"ha":640,"x_min":62,"x_max":577,"o":"m 134 844 l 114 823 q 87 808 99 808 q 69 815 76 808 q 62 831 62 822 q 90 873 62 849 q 112 893 98 882 q 151 931 125 905 l 226 1006 l 399 1006 l 577 813 l 368 813 l 246 958 q 151 861 161 873 q 134 844 140 848 z "},"ˇ":{"ha":640,"x_min":62,"x_max":577,"o":"m 551 1013 q 577 988 577 1013 q 550 948 577 970 l 488 890 l 413 815 l 239 815 l 62 1008 l 271 1008 l 393 863 l 515 987 q 551 1013 536 1013 z "},"˘":{"ha":484,"x_min":62,"x_max":422,"o":"m 363 989 q 365 1011 363 989 q 394 1034 366 1034 q 422 1000 422 1034 q 409 937 422 966 q 373 884 396 907 q 243 836 321 836 q 113 883 163 836 q 62 1000 62 930 q 70 1025 62 1015 q 91 1034 78 1034 q 123 988 118 1034 q 163 914 129 943 q 233 885 197 885 q 290 893 269 885 q 327 914 311 901 q 363 989 360 943 z "},"˙":{"ha":363,"x_min":27,"x_max":335,"o":"m 176 843 q 141 843 176 843 q 66 874 106 843 q 27 956 27 905 q 71 1029 27 999 q 168 1062 117 1062 q 248 1052 220 1062 q 296 1025 276 1042 q 335 948 335 992 q 290 873 335 904 q 176 843 245 843 z "},"˚":{"ha":335,"x_min":62,"x_max":273,"o":"m 168 802 q 92 830 123 802 q 62 905 62 859 q 126 1000 62 973 q 169 1008 146 1008 q 211 1000 191 1008 q 244 979 230 993 q 273 905 273 951 q 243 831 273 860 q 168 802 213 802 m 130 867 q 133 863 130 867 q 147 855 137 859 q 174 851 157 851 q 207 866 191 851 q 222 904 222 880 q 207 943 222 928 q 168 958 192 958 q 129 943 144 958 q 113 911 113 928 q 118 884 113 894 q 130 867 122 874 z "},"˛":{"ha":380,"x_min":62,"x_max":317,"o":"m 96 -211 q 88 -203 96 -211 q 71 -173 79 -195 q 62 -122 62 -152 q 75 -65 62 -93 q 107 -18 87 -38 q 196 34 142 19 l 231 22 q 130 -77 159 -7 q 121 -119 121 -100 q 125 -151 121 -138 q 138 -174 130 -164 q 186 -195 157 -195 q 259 -168 235 -195 q 279 -148 273 -152 q 295 -144 286 -144 q 311 -151 304 -144 q 317 -169 317 -159 q 308 -193 317 -180 q 282 -218 298 -207 q 202 -245 243 -245 q 136 -236 160 -245 q 96 -211 113 -227 z "},"˜":{"ha":602,"x_min":62,"x_max":541,"o":"m 99 811 q 97 810 99 811 q 86 808 94 808 q 70 818 77 808 q 62 849 62 827 q 75 900 62 871 q 113 954 89 930 q 234 1006 165 1006 q 363 950 291 1006 l 398 923 q 449 894 437 894 q 472 911 461 894 q 488 955 484 928 q 497 991 492 982 q 513 1000 502 1000 q 533 990 525 1000 q 541 959 541 980 q 527 908 541 937 q 490 854 513 878 q 368 802 437 802 q 241 854 315 802 l 193 891 q 161 908 171 908 q 143 904 151 908 q 130 891 136 899 q 111 856 115 874 l 107 830 q 99 811 104 814 z "},"˝":{"ha":648,"x_min":136,"x_max":627,"o":"m 470 1028 l 627 1028 l 496 836 l 390 836 l 470 1028 m 216 1028 l 373 1028 l 242 836 l 136 836 l 216 1028 z "},"Δ":{"ha":939,"x_min":66,"x_max":857,"o":"m 857 33 q 812 0 857 0 l 106 0 q 75 12 83 0 q 66 37 66 24 q 75 73 66 50 l 420 1041 q 460 1080 433 1080 q 501 1041 488 1080 l 829 119 q 850 60 843 79 q 857 33 857 42 m 787 54 l 459 985 l 133 54 l 787 54 z "},"Ω":{"ha":1133,"x_min":60,"x_max":1074,"o":"m 496 36 q 433 0 496 0 l 136 0 q 78 11 95 0 q 62 35 62 21 q 100 65 62 65 q 130 62 113 65 q 222 54 169 54 l 405 54 q 152 291 243 149 q 60 586 60 433 q 202 936 60 793 q 566 1080 347 1080 q 829 1013 711 1080 q 1008 836 942 949 q 1074 586 1074 722 q 977 285 1074 431 q 727 54 884 146 l 911 54 q 989 59 965 54 q 1033 65 1021 65 q 1072 35 1072 65 q 998 0 1072 0 l 700 0 q 637 34 637 0 q 705 100 637 58 q 831 197 772 142 q 932 315 891 253 q 1016 584 1016 441 q 951 818 1016 713 q 785 971 890 914 q 566 1025 684 1025 q 256 905 387 1025 q 136 709 170 826 q 118 584 118 651 q 141 449 118 516 q 205 318 163 381 q 437 95 289 191 q 479 67 463 79 q 496 36 496 55 z "},"π":{"ha":1000,"x_min":66,"x_max":918,"o":"m 281 -8 q 250 26 250 -8 q 251 45 250 36 l 255 67 q 258 178 258 89 l 258 750 q 185 737 212 747 q 145 710 159 726 q 122 687 132 694 q 100 681 113 681 q 76 690 86 681 q 66 720 66 699 q 174 793 66 766 q 332 805 222 805 l 652 805 q 841 809 821 805 l 868 814 q 885 816 874 816 q 906 808 897 816 q 916 787 916 800 q 869 753 916 758 q 789 751 833 751 l 708 751 l 708 155 q 755 52 708 75 q 785 45 769 45 q 843 62 821 45 q 913 80 896 103 q 918 62 918 72 q 909 40 918 52 q 882 16 899 27 q 782 -8 843 -8 q 685 34 721 -8 q 650 165 650 77 l 650 751 l 317 751 l 317 110 l 319 33 q 308 2 319 13 q 281 -8 296 -8 z "},"Ḃ":{"ha":1019,"x_min":120,"x_max":973,"o":"m 120 960 q 411 960 303 960 q 543 959 519 960 q 684 936 643 954 q 750 894 726 917 q 802 769 802 842 q 751 642 802 696 q 715 612 736 625 q 897 519 826 592 q 973 328 973 441 q 902 129 973 212 q 594 3 802 14 q 490 0 541 0 l 120 0 l 120 960 m 565 626 l 600 622 l 610 622 q 703 661 664 622 q 745 764 745 703 q 681 879 745 839 q 616 903 648 899 q 566 908 584 907 q 466 911 528 911 l 466 50 l 541 50 q 729 79 656 50 q 867 175 816 109 q 915 307 915 238 q 895 424 915 376 q 836 505 874 471 q 616 573 757 573 l 570 569 q 538 578 548 569 q 528 598 528 587 q 565 626 528 626 m 474 1023 q 439 1023 474 1023 q 362 1057 403 1023 q 322 1144 322 1090 q 367 1223 322 1190 q 483 1257 413 1257 q 599 1218 553 1257 q 639 1136 639 1183 q 593 1057 639 1088 q 474 1023 546 1023 z "},"ḃ":{"ha":1026,"x_min":117,"x_max":969,"o":"m 578 -13 q 396 30 484 -13 l 396 0 l 117 0 l 117 960 l 396 960 l 396 690 q 576 736 482 736 q 742 709 671 736 q 864 632 813 681 q 969 368 969 529 q 865 99 969 206 q 578 -13 758 -13 m 576 687 q 396 631 476 687 l 396 87 q 595 37 485 37 l 613 37 q 629 39 621 37 l 629 683 q 576 687 603 687 m 648 843 q 613 843 648 843 q 539 874 578 843 q 500 956 500 905 q 543 1029 500 999 q 641 1062 589 1062 q 721 1052 692 1062 q 768 1025 749 1042 q 808 948 808 992 q 763 873 808 904 q 648 843 718 843 z "},"Ḋ":{"ha":1070,"x_min":120,"x_max":1010,"o":"m 120 960 l 402 960 q 692 932 600 960 q 854 848 797 899 q 944 743 911 798 q 1010 492 1010 633 q 852 134 1010 271 q 587 13 739 36 q 349 0 502 0 l 120 0 l 120 960 m 466 56 q 486 56 477 56 l 501 56 q 815 170 685 56 q 953 491 953 291 q 892 718 953 617 q 616 897 805 865 q 466 908 554 907 l 466 56 m 504 1023 q 468 1023 504 1023 q 392 1057 433 1023 q 352 1144 352 1090 q 397 1223 352 1190 q 513 1257 443 1257 q 629 1218 583 1257 q 669 1136 669 1183 q 623 1057 669 1088 q 504 1023 576 1023 z "},"ḋ":{"ha":1015,"x_min":57,"x_max":910,"o":"m 631 37 q 451 -13 546 -13 q 285 15 357 -13 q 163 94 214 43 q 57 367 57 199 q 161 627 57 523 q 452 736 273 736 q 631 695 547 736 l 631 960 l 910 960 l 910 0 l 631 0 l 631 37 m 438 687 q 398 684 417 687 l 398 41 q 451 37 422 37 q 631 97 545 37 l 631 635 q 438 687 539 687 m 342 843 q 308 843 342 843 q 233 874 273 843 q 194 956 194 905 q 237 1029 194 999 q 335 1062 283 1062 q 415 1052 387 1062 q 463 1025 443 1042 q 502 948 502 992 q 457 873 502 904 q 342 843 412 843 z "},"Ḟ":{"ha":785,"x_min":120,"x_max":789,"o":"m 684 616 l 656 616 q 618 618 641 618 l 466 618 l 466 0 l 120 0 l 120 960 l 659 960 l 726 962 l 738 962 q 789 932 789 962 q 780 910 789 920 q 760 901 770 901 q 726 904 742 901 q 644 911 694 911 l 466 911 l 466 667 l 602 667 q 686 670 602 667 q 723 643 723 670 q 684 616 723 616 m 474 1023 q 439 1023 474 1023 q 362 1057 403 1023 q 322 1144 322 1090 q 367 1223 322 1190 q 483 1257 413 1257 q 599 1218 553 1257 q 639 1136 639 1183 q 593 1057 639 1088 q 474 1023 546 1023 z "},"ḟ":{"ha":566,"x_min":3,"x_max":651,"o":"m 557 672 l 484 675 l 409 675 l 409 0 l 117 0 l 118 675 l 107 675 l 43 672 q 3 700 3 672 q 39 727 3 727 l 120 724 q 229 912 134 847 q 456 972 316 972 q 637 920 588 972 q 651 892 651 905 q 621 863 651 863 q 591 873 606 863 l 567 890 q 482 922 528 919 q 457 922 470 922 q 432 921 444 922 q 409 918 420 920 l 409 724 l 468 724 l 559 727 q 595 700 595 727 q 557 672 595 672 m 273 1045 q 238 1045 273 1045 q 163 1076 203 1045 q 124 1158 124 1107 q 168 1232 124 1201 q 265 1264 214 1264 q 345 1254 317 1264 q 393 1227 373 1244 q 432 1150 432 1194 q 387 1076 432 1106 q 273 1045 342 1045 z "},"Ṁ":{"ha":1304,"x_min":7,"x_max":1287,"o":"m 33 -10 q 14 1 20 -9 q 8 24 7 12 q 21 62 12 45 q 35 89 31 80 q 44 109 39 98 l 70 168 l 349 1003 l 648 424 l 939 1003 l 1287 0 l 923 0 l 755 518 l 494 -24 l 220 464 l 125 168 q 94 83 103 118 q 78 30 84 49 q 33 -10 64 -13 m 634 1023 q 599 1023 634 1023 q 523 1057 563 1023 q 482 1144 482 1090 q 527 1223 482 1190 q 643 1257 573 1257 q 759 1218 713 1257 q 799 1136 799 1183 q 753 1057 799 1088 q 634 1023 706 1023 z "},"ṁ":{"ha":1503,"x_min":117,"x_max":1399,"o":"m 903 537 q 904 505 904 521 l 904 0 l 613 0 l 613 658 q 595 661 606 661 l 574 661 q 450 589 521 661 q 409 539 429 566 l 409 0 l 117 0 l 117 724 l 409 724 l 409 615 q 665 736 524 736 q 891 601 848 736 q 1020 702 949 668 q 1161 736 1090 736 q 1341 679 1282 736 q 1399 505 1399 621 l 1399 0 l 1108 0 l 1108 659 q 1078 661 1102 661 q 1033 652 1053 661 q 990 627 1012 643 q 903 537 943 592 m 746 843 q 711 843 746 843 q 637 874 676 843 q 597 956 597 905 q 641 1029 597 999 q 739 1062 687 1062 q 818 1052 790 1062 q 866 1025 846 1042 q 905 948 905 992 q 861 873 905 904 q 746 843 816 843 z "},"Ṗ":{"ha":1029,"x_min":120,"x_max":995,"o":"m 569 281 l 629 279 q 846 366 761 279 q 937 592 933 453 q 731 882 945 806 q 523 910 651 910 l 466 910 l 466 0 l 120 0 l 120 960 l 380 960 q 633 954 590 960 q 724 938 677 947 q 826 897 771 928 q 918 821 880 865 q 992 610 995 731 q 902 354 988 456 q 661 227 814 251 q 590 220 616 220 q 529 254 529 220 q 540 274 529 266 q 569 281 551 281 m 480 1023 q 445 1023 480 1023 q 369 1057 409 1023 q 328 1144 328 1090 q 373 1223 328 1190 q 489 1257 419 1257 q 605 1218 559 1257 q 645 1136 645 1183 q 599 1057 645 1088 q 480 1023 552 1023 z "},"ṗ":{"ha":1025,"x_min":117,"x_max":969,"o":"m 578 -13 q 396 30 484 -13 l 396 -217 l 117 -217 l 117 724 l 396 724 l 396 687 q 578 736 485 736 q 742 709 671 736 q 864 632 813 681 q 969 368 969 529 q 865 99 969 206 q 578 -13 758 -13 m 576 687 q 396 631 476 687 l 396 90 q 595 37 488 37 l 613 37 q 629 39 621 37 l 629 683 q 576 687 603 687 m 586 843 q 551 843 586 843 q 477 874 516 843 q 437 956 437 905 q 481 1029 437 999 q 578 1062 527 1062 q 658 1052 630 1062 q 706 1025 686 1042 q 745 948 745 992 q 701 873 745 904 q 586 843 656 843 z "},"Ṡ":{"ha":807,"x_min":62,"x_max":745,"o":"m 120 49 q 79 77 96 62 q 62 109 62 92 q 90 142 62 142 q 130 121 108 142 q 180 86 153 101 q 241 60 208 71 q 365 37 308 37 q 453 45 422 37 q 505 65 484 52 q 549 136 549 93 q 511 217 549 176 q 418 300 478 252 l 302 391 q 97 636 128 525 q 86 722 86 675 q 107 816 86 770 q 171 897 129 862 q 416 972 261 972 q 559 948 496 972 q 645 907 622 925 q 668 873 668 888 q 642 842 668 842 q 610 857 627 842 q 573 883 593 872 q 526 903 552 895 q 414 922 469 922 q 313 856 313 922 q 331 804 313 828 q 458 686 363 763 q 610 551 553 609 q 697 448 667 494 q 745 297 745 375 q 717 164 745 218 q 640 70 690 109 q 381 -13 536 -13 q 120 49 227 -13 m 402 1023 q 367 1023 402 1023 q 291 1057 331 1023 q 250 1144 250 1090 q 295 1223 250 1190 q 411 1257 341 1257 q 527 1218 481 1257 q 567 1136 567 1183 q 521 1057 567 1088 q 402 1023 474 1023 z "},"ṡ":{"ha":694,"x_min":64,"x_max":648,"o":"m 64 91 q 72 110 64 101 q 90 118 79 118 q 109 111 102 118 q 126 96 109 111 q 323 34 197 34 q 433 69 409 34 q 440 89 440 79 q 436 107 440 98 q 420 130 433 117 q 386 161 408 143 l 326 210 q 123 397 178 325 q 73 531 73 463 q 153 675 73 617 q 365 736 235 736 q 509 715 456 736 q 584 677 562 694 q 606 646 606 660 q 583 616 606 616 q 563 624 572 616 q 526 651 553 632 q 454 680 499 669 q 371 691 410 691 q 316 679 332 691 q 300 655 300 667 q 305 632 300 643 q 323 608 310 622 q 418 524 353 572 q 530 436 484 476 q 601 362 575 396 q 648 239 648 301 q 625 132 648 176 q 559 56 602 87 q 318 -13 469 -13 q 117 33 197 -13 q 64 91 64 62 m 366 843 q 331 843 366 843 q 257 874 296 843 q 218 956 218 905 q 261 1029 218 999 q 359 1062 307 1062 q 438 1052 410 1062 q 486 1025 467 1042 q 526 948 526 992 q 481 873 526 904 q 366 843 436 843 z "},"Ṫ":{"ha":840,"x_min":1,"x_max":817,"o":"m 817 942 q 751 911 817 911 l 593 911 l 593 0 l 246 0 l 246 911 l 144 911 q 73 906 92 911 q 35 901 47 901 q 1 928 1 901 q 68 960 1 960 l 673 960 q 742 964 720 960 q 783 968 769 968 q 817 942 817 968 m 415 1023 q 379 1023 415 1023 q 303 1057 343 1023 q 262 1144 262 1090 q 307 1223 262 1190 q 423 1257 353 1257 q 539 1218 494 1257 q 579 1136 579 1183 q 533 1057 579 1088 q 415 1023 486 1023 z "},"ṫ":{"ha":653,"x_min":15,"x_max":655,"o":"m 396 -13 q 130 230 130 -13 l 130 675 l 52 671 q 15 699 15 671 q 54 727 15 727 l 119 724 l 130 724 l 130 829 l 420 960 l 420 724 l 511 724 l 576 727 q 616 699 616 727 q 605 679 616 686 q 579 671 593 671 l 495 675 l 420 675 l 420 37 q 553 83 500 39 q 588 132 578 102 q 607 170 599 161 q 627 178 616 178 q 647 169 639 178 q 655 148 655 160 q 648 120 655 135 q 628 87 642 104 q 557 27 597 50 q 396 -13 485 -13 m 279 1017 q 244 1017 279 1017 q 170 1048 209 1017 q 130 1130 130 1079 q 174 1203 130 1173 q 271 1236 220 1236 q 351 1225 323 1236 q 399 1199 379 1215 q 438 1122 438 1166 q 393 1047 438 1078 q 279 1017 349 1017 z "},"Ẁ":{"ha":1331,"x_min":-6,"x_max":1310,"o":"m 1310 937 q 1305 912 1310 927 q 1276 836 1289 868 l 916 -37 l 661 534 l 395 -37 l -6 960 l 366 960 l 556 452 l 814 1003 l 1055 453 l 1225 851 q 1240 895 1234 873 l 1251 937 q 1284 967 1259 967 q 1310 937 1310 967 m 421 1153 l 612 1153 l 691 960 l 587 960 l 421 1153 z "},"ẁ":{"ha":1109,"x_min":3,"x_max":1109,"o":"m 3 724 l 310 724 l 484 359 l 688 755 l 902 355 l 999 574 q 1041 687 1034 655 q 1058 727 1048 718 q 1080 736 1067 736 q 1101 727 1093 736 q 1109 710 1109 718 q 1108 697 1109 703 q 1102 676 1107 690 q 1086 639 1097 663 l 794 -31 l 568 403 l 349 -31 l 3 724 m 420 1003 l 610 1003 l 690 810 l 585 810 l 420 1003 z "},"Ẃ":{"ha":1331,"x_min":-6,"x_max":1310,"o":"m 1310 937 q 1305 912 1310 927 q 1276 836 1289 868 l 916 -37 l 661 534 l 395 -37 l -6 960 l 366 960 l 556 452 l 814 1003 l 1055 453 l 1225 851 q 1240 895 1234 873 l 1251 937 q 1284 967 1259 967 q 1310 937 1310 967 m 753 1229 l 943 1229 l 779 1036 l 673 1036 l 753 1229 z "},"ẃ":{"ha":1109,"x_min":3,"x_max":1109,"o":"m 3 724 l 310 724 l 484 359 l 688 755 l 902 355 l 999 574 q 1041 687 1034 655 q 1058 727 1048 718 q 1080 736 1067 736 q 1101 727 1093 736 q 1109 710 1109 718 q 1108 697 1109 703 q 1102 676 1107 690 q 1086 639 1097 663 l 794 -31 l 568 403 l 349 -31 l 3 724 m 605 1005 l 795 1005 l 631 812 l 525 812 l 605 1005 z "},"Ẅ":{"ha":1331,"x_min":-6,"x_max":1310,"o":"m 1310 937 q 1305 912 1310 927 q 1276 836 1289 868 l 916 -37 l 661 534 l 395 -37 l -6 960 l 366 960 l 556 452 l 814 1003 l 1055 453 l 1225 851 q 1240 895 1234 873 l 1251 937 q 1284 967 1259 967 q 1310 937 1310 967 m 964 1121 q 964 1103 964 1121 q 931 1061 964 1084 q 858 1038 899 1038 q 795 1044 817 1038 q 758 1063 773 1051 q 725 1124 725 1086 q 791 1202 725 1183 q 844 1209 814 1209 q 896 1202 874 1209 q 933 1183 918 1195 q 964 1121 964 1158 m 623 1121 q 623 1103 623 1121 q 591 1061 623 1084 q 517 1038 559 1038 q 454 1044 476 1038 q 417 1063 433 1051 q 384 1124 384 1086 q 451 1202 384 1183 q 504 1209 473 1209 q 555 1202 534 1209 q 592 1183 577 1195 q 623 1121 623 1158 z "},"ẅ":{"ha":1109,"x_min":3,"x_max":1109,"o":"m 3 724 l 310 724 l 484 359 l 688 755 l 902 355 l 999 574 q 1041 687 1034 655 q 1058 727 1048 718 q 1080 736 1067 736 q 1101 727 1093 736 q 1109 710 1109 718 q 1108 697 1109 703 q 1102 676 1107 690 q 1086 639 1097 663 l 794 -31 l 568 403 l 349 -31 l 3 724 m 865 899 q 865 880 865 899 q 832 839 865 862 q 759 815 800 815 q 696 822 718 815 q 659 840 674 829 q 626 901 626 864 q 692 980 626 960 q 745 987 715 987 q 797 980 775 987 q 834 960 819 972 q 865 899 865 935 m 524 899 q 524 880 524 899 q 492 839 524 862 q 418 815 460 815 q 355 822 377 815 q 318 840 334 829 q 285 901 285 864 q 352 980 285 960 q 405 987 374 987 q 456 980 435 987 q 493 960 478 972 q 524 899 524 935 z "},"Ỳ":{"ha":895,"x_min":14,"x_max":873,"o":"m 374 28 q 327 -7 356 -7 q 298 22 298 -7 q 315 62 298 41 q 382 159 351 104 l 417 221 l 14 960 l 410 960 l 604 551 l 777 859 q 810 931 796 895 q 846 967 823 967 q 873 939 873 967 q 861 902 873 923 l 397 75 q 385 52 390 61 l 374 28 m 292 1153 l 483 1153 l 562 960 l 458 960 l 292 1153 z "},"ỳ":{"ha":725,"x_min":3,"x_max":724,"o":"m 243 -160 q 301 -127 285 -147 q 357 -29 324 -100 l 372 7 l 3 724 l 311 724 l 504 315 l 615 574 q 655 683 646 646 q 674 728 665 720 q 696 736 683 736 q 717 728 709 736 q 724 712 724 720 q 723 695 724 704 q 716 670 721 686 q 701 632 711 655 l 420 -20 q 323 -186 370 -138 q 244 -229 284 -229 q 203 -201 203 -229 q 243 -160 203 -173 m 227 1003 l 418 1003 l 497 810 l 393 810 l 227 1003 z "},"–":{"ha":718,"x_min":66,"x_max":635,"o":"m 206 414 l 104 410 q 77 418 88 410 q 66 440 66 427 q 76 461 66 453 q 104 469 87 469 q 201 463 104 469 l 488 463 l 597 469 q 625 461 614 469 q 635 439 635 453 q 594 410 635 410 l 497 414 l 206 414 z "},"—":{"ha":922,"x_min":66,"x_max":840,"o":"m 206 414 l 104 410 q 77 418 88 410 q 66 440 66 427 q 76 461 66 453 q 104 469 87 469 q 201 463 104 469 l 693 463 l 802 469 q 830 461 819 469 q 840 439 840 453 q 799 410 840 410 l 702 414 l 206 414 z "},"‘":{"ha":426,"x_min":35,"x_max":350,"o":"m 113 801 q 192 825 146 825 q 264 813 237 825 q 311 781 292 801 q 350 689 350 741 q 309 594 350 633 q 201 553 266 553 q 79 600 124 553 q 35 717 35 645 q 106 911 35 826 q 164 964 143 956 q 196 972 184 972 q 228 942 228 972 q 220 928 228 931 l 195 917 q 130 856 161 901 q 113 801 116 835 z "},"’":{"ha":426,"x_min":56,"x_max":370,"o":"m 210 554 q 178 584 178 554 q 186 598 178 595 q 210 609 186 598 q 276 670 245 625 q 292 724 290 690 q 213 701 258 701 q 141 713 169 701 q 95 745 114 725 q 56 837 56 785 q 97 932 56 893 q 204 972 140 972 q 327 926 281 972 q 370 809 370 881 q 300 614 370 700 q 242 562 262 570 q 210 554 221 554 z "},"‚":{"ha":426,"x_min":56,"x_max":370,"o":"m 292 10 q 213 -13 256 -13 q 141 -1 169 -13 q 95 30 114 11 q 56 123 56 71 q 97 218 56 179 q 204 258 140 258 q 327 212 281 258 q 370 95 370 167 q 300 -99 370 -14 q 242 -152 262 -144 q 210 -160 221 -160 q 178 -130 178 -160 q 186 -116 178 -119 l 210 -105 q 276 -44 245 -90 q 292 10 290 -23 z "},"“":{"ha":785,"x_min":35,"x_max":709,"o":"m 472 802 q 550 825 505 825 q 623 813 595 825 q 669 783 650 802 q 709 690 709 742 q 667 594 709 633 q 560 554 625 554 q 438 601 483 554 q 394 718 394 646 q 465 911 394 827 q 523 964 502 956 q 555 972 543 972 q 587 943 587 972 q 579 928 587 932 l 554 918 q 488 857 519 902 q 472 802 475 836 m 113 802 q 192 825 146 825 q 264 813 237 825 q 311 783 292 802 q 350 690 350 742 q 309 594 350 633 q 201 554 266 554 q 79 601 124 554 q 35 718 35 646 q 106 911 35 827 q 164 964 143 956 q 196 972 184 972 q 228 943 228 972 q 220 928 228 932 l 195 918 q 130 857 161 902 q 113 802 116 836 z "},"”":{"ha":785,"x_min":56,"x_max":729,"o":"m 568 554 q 536 584 536 554 q 544 598 536 595 l 569 609 q 635 670 604 625 q 651 724 648 690 q 572 701 616 701 q 500 713 528 701 q 454 745 473 725 q 414 837 414 785 q 456 932 414 893 q 563 972 498 972 q 685 926 640 972 q 729 809 729 881 q 658 614 729 700 q 601 562 621 570 q 568 554 580 554 m 210 554 q 178 584 178 554 q 186 598 178 595 l 210 609 q 276 670 245 625 q 292 724 290 690 q 213 701 258 701 q 141 713 169 701 q 95 745 114 725 q 56 837 56 785 q 97 932 56 893 q 204 972 140 972 q 327 926 281 972 q 370 809 370 881 q 300 614 370 700 q 242 562 262 570 q 210 554 221 554 z "},"„":{"ha":794,"x_min":56,"x_max":739,"o":"m 661 10 q 581 -13 625 -13 q 510 -1 537 -13 q 463 30 482 11 q 424 123 424 71 q 465 218 424 179 q 572 258 508 258 q 694 212 649 258 q 739 95 739 167 q 667 -99 739 -14 q 610 -152 631 -144 q 578 -160 589 -160 q 546 -130 546 -160 q 553 -116 546 -119 l 578 -105 q 644 -44 613 -90 q 661 10 658 -23 m 292 10 q 213 -13 256 -13 q 141 -1 169 -13 q 95 30 114 11 q 56 123 56 71 q 97 218 56 179 q 204 258 140 258 q 327 212 281 258 q 370 95 370 167 q 300 -99 370 -14 q 242 -152 262 -144 q 210 -160 221 -160 q 178 -130 178 -160 q 186 -116 178 -119 l 210 -105 q 276 -44 245 -90 q 292 10 290 -23 z "},"†":{"ha":464,"x_min":56,"x_max":409,"o":"m 261 94 l 263 24 q 253 -3 263 7 q 230 -13 243 -13 q 209 -4 216 -13 q 201 19 201 5 q 204 50 201 33 q 209 154 209 74 l 209 669 q 169 669 189 669 l 94 664 q 67 672 79 664 q 56 693 56 680 q 66 715 56 707 q 94 723 77 723 l 190 717 l 209 717 l 209 823 q 207 888 209 867 l 204 917 q 203 933 203 924 q 231 967 203 967 q 253 959 243 967 q 264 931 264 951 l 261 845 l 261 717 l 262 717 l 370 723 q 398 715 388 723 q 409 693 409 707 q 368 664 409 664 l 271 669 l 261 669 l 261 94 z "},"‡":{"ha":464,"x_min":56,"x_max":409,"o":"m 261 94 l 263 24 q 253 -3 263 7 q 230 -13 243 -13 q 209 -4 216 -13 q 201 19 201 5 q 204 50 201 33 q 209 154 209 74 l 209 367 q 169 367 189 367 l 94 362 q 67 370 79 362 q 56 392 56 378 q 66 413 56 405 q 94 421 77 421 l 190 415 l 209 415 l 209 669 q 169 669 189 669 l 94 664 q 67 672 79 664 q 56 693 56 680 q 66 715 56 707 q 94 723 77 723 l 190 717 l 209 717 l 209 823 q 207 888 209 867 l 204 917 q 203 933 203 924 q 231 967 203 967 q 253 959 243 967 q 264 931 264 951 l 261 845 l 261 717 l 262 717 l 370 723 q 398 715 388 723 q 409 693 409 707 q 368 664 409 664 l 271 669 l 261 669 l 261 415 l 262 415 l 370 421 q 398 413 388 421 q 409 392 409 405 q 368 362 409 362 l 271 367 l 261 367 l 261 94 z "},"•":{"ha":465,"x_min":66,"x_max":382,"o":"m 220 363 q 155 374 184 363 q 106 404 126 385 q 66 510 66 444 q 111 606 66 566 q 227 647 157 647 q 342 600 298 647 q 382 500 382 557 q 336 404 382 442 q 220 363 289 363 z "},"…":{"ha":1406,"x_min":66,"x_max":1324,"o":"m 1017 74 q 1007 131 1007 101 q 1019 185 1007 161 q 1053 229 1031 210 q 1168 271 1099 271 q 1283 224 1239 271 q 1324 123 1324 181 q 1278 27 1324 66 q 1164 -13 1230 -13 q 1017 74 1051 -13 m 547 74 q 536 131 536 101 q 548 185 536 161 q 582 229 560 210 q 697 271 628 271 q 812 224 768 271 q 853 123 853 181 q 807 27 853 66 q 693 -13 760 -13 q 547 74 581 -13 m 76 74 q 66 131 66 101 q 78 185 66 161 q 111 229 90 210 q 227 271 157 271 q 342 224 298 271 q 382 123 382 181 q 336 27 382 66 q 222 -13 289 -13 q 76 74 110 -13 z "},"‰":{"ha":1562,"x_min":85,"x_max":1489,"o":"m 233 -13 q 207 16 207 -13 q 219 47 207 32 q 243 76 232 63 q 305 162 266 100 l 753 862 q 788 925 777 900 q 806 958 800 949 q 827 967 813 967 q 851 960 842 967 q 861 943 861 952 q 858 927 861 934 q 849 911 854 920 l 835 891 q 816 863 827 880 l 304 56 q 259 -3 273 7 q 233 -13 245 -13 m 311 534 q 222 550 264 534 q 150 593 180 565 q 85 748 85 654 q 151 895 85 837 q 313 954 217 954 q 468 897 406 954 q 533 745 533 838 q 468 594 533 654 q 311 534 405 536 m 310 581 q 431 622 383 581 q 484 743 484 667 q 432 862 484 815 q 310 907 382 907 l 305 907 q 299 907 302 907 l 299 581 l 310 581 m 1042 213 q 1060 297 1042 259 q 1107 362 1077 334 q 1269 420 1173 420 q 1424 363 1361 420 q 1489 211 1489 304 q 1423 60 1489 121 q 1267 1 1358 1 q 1106 59 1170 -1 q 1042 213 1042 119 m 560 213 q 577 297 560 259 q 625 362 595 334 q 787 420 690 420 q 941 363 879 420 q 1006 211 1006 304 q 941 60 1006 121 q 786 1 878 1 q 624 60 688 -1 q 560 213 560 119 m 1265 47 q 1388 88 1338 47 q 1440 210 1440 132 q 1388 329 1440 281 q 1265 374 1338 374 q 1260 374 1263 374 q 1254 374 1257 374 l 1254 47 l 1265 47 m 784 47 q 905 89 856 47 q 958 210 958 133 q 906 328 958 282 q 784 374 856 374 q 779 374 781 374 q 773 373 776 374 l 773 47 l 784 47 z "},"‹":{"ha":404,"x_min":68,"x_max":336,"o":"m 68 474 q 211 604 161 551 q 271 666 261 656 q 286 680 280 675 q 308 688 296 688 q 328 681 319 688 q 336 662 336 673 q 328 640 336 650 q 298 614 319 630 q 250 574 277 597 l 198 529 l 165 497 q 136 471 149 482 l 317 335 l 317 36 l 68 258 l 68 474 z "}}}
